<svg width="41" height="36" viewBox="0 0 41 36" fill="none" xmlns="http://www.w3.org/2000/svg">
<g opacity="0.6">
<path d="M28.3663 6.64951C24.2044 6.61104 21.192 12.9145 20.3266 15.9351C23.3359 17.4704 29.3277 20.2648 29.2201 19.1593C29.1126 18.0538 28.6061 10.3588 28.3663 6.64951Z" fill="#326270"/>
<path d="M37.612 21.7443C37.6793 21.4932 35.9658 21.1911 35.1006 21.0714C34.6875 22.1944 34.1944 24.3278 35.5264 23.8772C37.1914 23.314 37.5279 22.0583 37.612 21.7443Z" fill="#326270"/>
<path d="M10.5439 21.0525C5.63346 16.7758 3.11258 17.6032 2.46594 18.5515C1.65038 19.0839 2.3409 20.0646 2.78812 20.4884C0.911156 21.466 2.02456 22.9195 2.81588 23.5241C-0.083665 25.3043 1.38893 26.3381 2.48767 26.6325C4.52384 25.5631 8.78698 25.5166 10.664 25.627C18.31 32.2516 25.3044 31.6808 27.8458 30.5673C35.8043 27.9892 35.8938 23.1345 34.9438 21.0294C33.2243 16.3965 27.5938 16.6486 24.9935 17.3538L15.7839 7.14739C12.3303 9.99043 14.2227 17.1595 15.6005 20.3886C15.1073 19.7181 12.0239 20.5518 10.5439 21.0525Z" fill="#326270"/>
</g>
</svg>
