<svg width="45" height="45" viewBox="0 0 45 45" fill="none" xmlns="http://www.w3.org/2000/svg">
<g opacity="0.6">
<path d="M22.5694 0C13.2807 1.76165 13.6277 12.4783 14.9623 17.6165C15.1796 18.5774 12.7842 18.4172 11.5593 18.217C1.95033 10.3697 1.283 14.1466 2.15045 17.0159C0.7091 16.8558 0.882621 19.3514 1.14955 20.6193C-0.932396 21.7403 0.282072 23.4886 1.14955 24.2226C8.99688 23.1016 11.3591 23.7555 11.5593 24.2226L17.9653 29.2273C23.2502 42.84 36.4492 45.1756 42.3881 44.6417C42.0678 41.759 37.7171 34.6324 35.5817 31.4294C41.9877 28.7068 42.5215 24.2894 41.9877 22.421C41.3471 15.2142 32.7791 15.4144 28.5752 16.4153C28.7353 13.5326 24.638 4.27066 22.5694 0Z" fill="#4C7C8A"/>
<path d="M44.9901 23.2217C45.1503 22.9014 43.2551 21.9538 41.7871 21.6202C41.7871 22.8213 41.8271 25.1835 41.9873 25.0234C42.1875 24.8232 44.7899 23.622 44.9901 23.2217Z" fill="#4C7C8A"/>
</g>
</svg>
