<svg width="170" height="179" viewBox="0 0 170 179" fill="none" xmlns="http://www.w3.org/2000/svg">
<path d="M29.2717 14.0185C26.9111 21.6917 36.217 25.0856 41.6266 25.8234C26.8731 40.8254 4.74277 75.5513 34.2498 94.4392C24.4141 101.325 7.10332 119.82 16.5456 138.708C10.6442 139.445 -0.863575 143.282 0.316707 152.726C0.808491 161.58 8.28361 176.631 34.2498 166.006C55.1506 175.106 105.214 187.845 138.262 166.006C147.852 169.941 167.622 173.384 169.982 155.677C170.228 150.021 168.064 138.708 157.442 138.708C165.114 114.712 144.409 99.1971 133.098 94.4392C169.687 80.2733 146.377 42.7929 130.148 25.8234C135.459 25.8234 141.055 21.0411 143.514 18.8276C145.875 11.1545 137.77 3.19716 133.098 0C120.705 0.590245 120.066 9.59159 121.296 14.0185C98.2801 -8.41079 65.9699 4.67296 52.6917 14.0185C53.4294 9.59169 50.1921 7.4188 46.5038 4.46758C42.8154 1.51635 32.2224 4.42701 29.2717 14.0185Z" fill="#CAAF82"/>
<path d="M29.2717 14.0185C26.9111 21.6917 36.217 25.0856 41.6266 25.8234C26.8731 40.8254 4.74277 75.5513 34.2498 94.4392C24.4141 101.325 7.10332 119.82 16.5456 138.708C10.6442 139.445 -0.863575 143.282 0.316707 152.726C0.808491 161.58 8.28361 176.631 34.2498 166.006C55.1506 175.106 105.214 187.845 138.262 166.006C147.852 169.941 167.622 173.384 169.982 155.677C170.228 150.021 168.064 138.708 157.442 138.708C165.114 114.712 144.409 99.1971 133.098 94.4392C169.687 80.2733 146.377 42.7929 130.148 25.8234C135.459 25.8234 141.055 21.0411 143.514 18.8276C145.875 11.1545 137.77 3.19716 133.098 0C120.705 0.590245 120.066 9.59159 121.296 14.0185C98.2801 -8.41079 65.9699 4.67296 52.6917 14.0185C53.4294 9.59169 50.1921 7.4188 46.5038 4.46758C42.8154 1.51635 32.2224 4.42701 29.2717 14.0185Z" fill="#CAAF82"/>
<path d="M52.5672 13.7219L41.7173 26.4864C35.8457 26.4864 31.1866 22.6571 29.591 20.7424C25.7617 7.46729 37.5689 3.29755 43.9511 2.87207C50.3334 3.12736 52.3544 10.2117 52.5672 13.7219Z" fill="#936C2C"/>
<path d="M132.664 0C120.921 0.25529 120.325 9.04152 121.495 13.4027L129.792 26.1672C136.43 27.4437 141.706 21.806 143.514 18.8276C147.343 11.6795 137.876 3.2975 132.664 0Z" fill="#936C2C"/>
<path d="M73.1547 47.2512C52.4655 73.5623 67.0018 85.4787 76.8562 88.148C89.6718 90.6909 99.1981 84.7272 102.359 81.4275C112.336 70.1267 99.373 53.1675 91.6445 46.1005C81.7183 41.9889 75.1821 45.1545 73.1547 47.2512Z" fill="#936C2C"/>
<path d="M82.8859 76.228C82.302 71.98 82.6426 64.4626 82.8859 61.2349C83.6157 58.986 84.1631 60.2979 84.3455 61.2349C84.8929 64.0461 83.6157 81.5381 82.8859 76.228Z" fill="#272727"/>
<path d="M34.3776 166.577C37.1858 150.493 23.4214 140.835 16.1882 138.814C-6.02209 141.112 -0.724785 156.897 5.01924 164.662C10.8909 172.066 27.2508 169.662 34.3776 166.577Z" fill="#936C2C"/>
<path d="M169.681 157.322C171.724 142.516 162.448 138.92 157.555 138.814C147.854 142.133 140.961 158.493 138.728 166.258C145.766 168.279 150.991 169.491 155.321 169.13C165.756 168.259 169.456 161.382 169.681 157.322Z" fill="#936C2C"/>
<path d="M57.5882 102.155C63.8163 114.05 70.7447 124.528 60.8299 129.624C54.7934 130.953 40.8313 129.268 33.2742 111.895" stroke="#936C2C" stroke-width="6"/>
<path d="M60.8299 129.624C70.7447 124.528 63.8163 114.05 57.5882 102.155L33.2742 111.895C40.8313 129.268 54.7935 130.953 60.8299 129.624Z" fill="#CAAF82"/>
<path d="M62.6632 111.829L44.4456 126.474C54.9085 132.413 61.6298 130.548 63.249 128.614C68.7721 124.854 65.2504 115.442 62.6632 111.829Z" fill="#936C2C"/>
<path d="M109.854 105.474C109.173 118.883 107.263 131.299 118.401 131.78C124.439 130.462 136.416 123.091 136.013 104.15" stroke="#936C2C" stroke-width="6"/>
<path d="M118.401 131.78C107.263 131.299 109.173 118.883 109.854 105.474L136.013 104.15C136.416 123.091 124.439 130.462 118.401 131.78Z" fill="#CAAF82"/>
<path d="M109.291 116.384L131.964 122.064C124.946 131.836 118.06 132.953 115.781 131.875C109.191 130.77 108.453 120.747 109.291 116.384Z" fill="#936C2C"/>
<path d="M76.3094 53.7245C78.1024 53.9485 81.6103 55.8442 82.3927 58.5315C82.3927 58.5649 82.4044 58.5846 82.4216 58.5949C82.5007 58.6422 82.6968 58.4945 82.4216 58.5949C82.3554 58.6191 82.2618 58.6576 82.1326 58.7168C80.0135 58.0449 75.3533 56.343 75.5489 54.9098C75.7934 53.1183 76.0649 53.6902 76.3094 53.7245Z" fill="#272727"/>
<path d="M90.7321 53.7245C88.9391 53.9485 85.4312 55.8442 84.6488 58.5315C84.6488 58.5649 84.6371 58.5846 84.6199 58.5949C84.5408 58.6422 84.3447 58.4945 84.6199 58.5949C84.6861 58.6191 84.7798 58.6576 84.9089 58.7168C87.028 58.0449 91.6882 56.343 91.4926 54.9098C91.2481 53.1183 90.9766 53.6902 90.7321 53.7245Z" fill="#272727"/>
<rect x="96" y="35" width="20" height="3" fill="#60410E"/>
<rect x="54" y="35" width="20" height="3" fill="#60410E"/>
</svg>
