<svg width="170" height="179" viewBox="0 0 170 179" fill="none" xmlns="http://www.w3.org/2000/svg">
<path d="M29.2707 14.0185C26.9101 21.6917 36.216 25.0856 41.6256 25.8234C26.8721 40.8254 4.74179 75.5513 34.2488 94.4392C24.4132 101.325 7.10234 119.82 16.5446 138.708C10.6432 139.445 -0.864551 143.282 0.315731 152.726C0.807515 161.58 8.28263 176.631 34.2488 166.006C55.1497 175.106 105.213 187.845 138.261 166.006C147.851 169.941 167.621 173.384 169.981 155.677C170.227 150.021 168.063 138.708 157.441 138.708C165.113 114.712 144.408 99.1971 133.097 94.4392C169.686 80.2733 146.376 42.7929 130.147 25.8234C135.458 25.8234 141.054 21.0411 143.513 18.8276C145.874 11.1545 137.769 3.19716 133.097 0C120.704 0.590245 120.065 9.59159 121.295 14.0185C98.2791 -8.41079 65.9689 4.67296 52.6907 14.0185C53.4284 9.59169 50.1912 7.4188 46.5028 4.46758C42.8144 1.51635 32.2214 4.42701 29.2707 14.0185Z" fill="#CAAF82"/>
<path d="M29.2707 14.0185C26.9101 21.6917 36.216 25.0856 41.6256 25.8234C26.8721 40.8254 4.74179 75.5513 34.2488 94.4392C24.4132 101.325 7.10234 119.82 16.5446 138.708C10.6432 139.445 -0.864551 143.282 0.315731 152.726C0.807515 161.58 8.28263 176.631 34.2488 166.006C55.1497 175.106 105.213 187.845 138.261 166.006C147.851 169.941 167.621 173.384 169.981 155.677C170.227 150.021 168.063 138.708 157.441 138.708C165.113 114.712 144.408 99.1971 133.097 94.4392C169.686 80.2733 146.376 42.7929 130.147 25.8234C135.458 25.8234 141.054 21.0411 143.513 18.8276C145.874 11.1545 137.769 3.19716 133.097 0C120.704 0.590245 120.065 9.59159 121.295 14.0185C98.2791 -8.41079 65.9689 4.67296 52.6907 14.0185C53.4284 9.59169 50.1912 7.4188 46.5028 4.46758C42.8144 1.51635 32.2214 4.42701 29.2707 14.0185Z" fill="#CAAF82"/>
<path d="M52.5657 13.7219L41.7159 26.4864C35.8442 26.4864 31.1852 22.6571 29.5896 20.7424C25.7602 7.46729 37.5674 3.29755 43.9496 2.87207C50.3319 3.12736 52.3529 10.2117 52.5657 13.7219Z" fill="#936C2C"/>
<path d="M132.664 0C120.92 0.25529 120.325 9.04152 121.495 13.4027L129.792 26.1672C136.429 27.4437 141.705 21.806 143.514 18.8276C147.343 11.6795 137.876 3.2975 132.664 0Z" fill="#936C2C"/>
<path d="M73.1537 47.2515C52.4645 73.5625 67.0009 85.4789 76.8552 88.1482C89.6708 90.6911 99.1971 84.7274 102.358 81.4277C112.335 70.127 99.372 53.1678 91.6435 46.1008C81.7173 41.9892 75.1811 45.1547 73.1537 47.2515Z" fill="#936C2C"/>
<path d="M82.8849 76.228C82.301 71.98 82.6416 64.4626 82.8849 61.2349C83.6147 58.986 84.1621 60.2979 84.3445 61.2349C84.8919 64.0461 83.6147 81.5381 82.8849 76.228Z" fill="#272727"/>
<path d="M34.3766 166.577C37.1848 150.494 23.4204 140.835 16.1872 138.814C-6.02306 141.112 -0.725761 156.898 5.01827 164.663C10.8899 172.066 27.2498 169.662 34.3766 166.577Z" fill="#936C2C"/>
<path d="M169.68 157.323C171.723 142.516 162.447 138.921 157.554 138.814C147.853 142.133 140.96 158.493 138.727 166.258C145.765 168.28 150.99 169.491 155.32 169.13C165.755 168.26 169.455 161.382 169.68 157.323Z" fill="#936C2C"/>
<path d="M57.5867 102.155C63.8148 114.051 70.7433 124.528 60.8284 129.624C54.792 130.953 40.8298 129.268 33.2728 111.896" stroke="#936C2C" stroke-width="6"/>
<path d="M60.8284 129.624C70.7433 124.528 63.8148 114.051 57.5867 102.155L33.2728 111.896C40.8298 129.268 54.792 130.953 60.8284 129.624Z" fill="#CAAF82"/>
<path d="M62.6617 111.83L44.4442 126.474C54.907 132.414 61.6284 130.548 63.2475 128.615C68.7707 124.855 65.2489 115.443 62.6617 111.83Z" fill="#936C2C"/>
<path d="M109.853 105.473C109.172 118.883 107.262 131.298 118.399 131.779C124.438 130.461 136.415 123.09 136.012 104.149" stroke="#936C2C" stroke-width="6"/>
<path d="M118.399 131.779C107.262 131.298 109.172 118.883 109.853 105.473L136.012 104.149C136.415 123.09 124.438 130.461 118.399 131.779Z" fill="#CAAF82"/>
<path d="M109.29 116.384L131.963 122.064C124.945 131.836 118.059 132.953 115.78 131.874C109.19 130.769 108.452 120.747 109.29 116.384Z" fill="#936C2C"/>
<path d="M76.3084 53.7249C78.1015 53.9488 81.6093 55.8446 82.3917 58.5318C82.3917 58.5653 82.4034 58.5849 82.4206 58.5952C82.6958 58.4949 82.4997 58.6426 82.4206 58.5952C82.3544 58.6194 82.2608 58.658 82.1316 58.7171C80.0126 58.0453 75.3524 56.3434 75.548 54.9102C75.7925 53.1186 76.0639 53.6906 76.3084 53.7249Z" fill="#272727"/>
<path d="M90.7316 53.7249C88.9386 53.9488 85.4307 55.8446 84.6483 58.5318C84.6483 58.5653 84.6366 58.5849 84.6194 58.5952C84.3442 58.4949 84.5403 58.6426 84.6194 58.5952C84.6857 58.6194 84.7793 58.658 84.9084 58.7171C87.0275 58.0453 91.6877 56.3434 91.4921 54.9102C91.2476 53.1186 90.9761 53.6906 90.7316 53.7249Z" fill="#272727"/>
<ellipse cx="61.499" cy="36.5" rx="6.5" ry="9.5" fill="#60410E"/>
<ellipse cx="106.499" cy="36.5" rx="6.5" ry="9.5" fill="#60410E"/>
</svg>
