<svg width="51" height="51" viewBox="0 0 51 51" fill="none" xmlns="http://www.w3.org/2000/svg">
<path d="M25.4245 50.9167C39.4617 50.9167 50.8411 39.5373 50.8411 25.5C50.8411 11.4628 39.4617 0.083374 25.4245 0.083374C11.3872 0.083374 0.0078125 11.4628 0.0078125 25.5C0.0078125 39.5373 11.3872 50.9167 25.4245 50.9167Z" fill="white"/>
<path d="M30.3635 15.9362L14.7288 31.5709C13.4904 32.8093 13.3597 33.659 14.2762 34.5756L16.6126 36.912C17.5292 37.8285 18.3789 37.6978 19.6173 36.4594L35.252 20.8247C36.4904 19.5863 36.6211 18.7367 35.7045 17.8201L33.3861 15.5016C32.4515 14.5671 31.6019 14.6978 30.3635 15.9362Z" fill="#78C58D"/>
<path d="M19.599 15.7286L35.2337 31.3633C36.4721 32.6017 36.6028 33.4514 35.6863 34.3679L33.3678 36.6864C32.4512 37.603 31.6016 37.4722 30.3632 36.2338L14.7285 20.5991C13.4901 19.3607 13.3594 18.5111 14.2759 17.5945L16.5944 15.2761C17.511 14.3595 18.3606 14.4902 19.599 15.7286Z" fill="#78C58D"/>
</svg>
