<?xml version="1.0" encoding="UTF-8"?>
<svg version="1.1" xmlns="http://www.w3.org/2000/svg" width="128" height="128">
<path d="M0 0 C2.48063576 2.48063576 2.25394046 3.20553847 2.26742554 6.62413025 C2.27595551 7.59858597 2.28448547 8.57304169 2.29327393 9.57702637 C2.29236755 10.64980835 2.29146118 11.72259033 2.29052734 12.82788086 C2.29724457 13.95476822 2.30396179 15.08165558 2.31088257 16.24269104 C2.3299462 19.98345294 2.33379091 23.72403625 2.3359375 27.46484375 C2.34235928 30.05554785 2.34908716 32.6462512 2.35610962 35.23695374 C2.36810313 40.67353302 2.37187369 46.11004096 2.37060547 51.54663086 C2.36940359 57.83379227 2.39051186 64.12061064 2.4220928 70.40768522 C2.45137388 76.45186969 2.45858224 82.49586759 2.45738602 88.54013252 C2.45975266 91.11384038 2.46863543 93.68755053 2.48405075 96.2612133 C2.50356299 99.85534315 2.49793038 103.44858157 2.48583984 107.04272461 C2.49707886 108.11348236 2.50831787 109.18424011 2.51989746 110.28744507 C2.51150848 111.26472061 2.50311951 112.24199615 2.49447632 113.24888611 C2.49556585 114.09894698 2.49665539 114.94900785 2.49777794 115.82482815 C2 118 2 118 0.13608742 119.79206181 C-2 121 -2 121 -4.671875 121.078125 C-9.5094642 119.51101864 -13.16796089 116.7312512 -17.25 113.75 C-18.55215454 112.81849121 -18.55215454 112.81849121 -19.88061523 111.86816406 C-22.59487913 109.92269149 -25.29790234 107.96232467 -28 106 C-29.73515523 104.74927571 -31.47081782 103.49925492 -33.20703125 102.25 C-36.92013202 99.57604056 -40.62568925 96.8919832 -44.32446289 94.19824219 C-47.91053377 91.6337025 -49.76802145 90.75035116 -54.1484375 90.69140625 C-55.15390625 90.66626953 -56.159375 90.64113281 -57.1953125 90.61523438 C-59.30723242 90.58020868 -61.41921797 90.54893034 -63.53125 90.52148438 C-64.53929688 90.49505859 -65.54734375 90.46863281 -66.5859375 90.44140625 C-67.5042334 90.42795166 -68.4225293 90.41449707 -69.36865234 90.40063477 C-72.60945317 89.90720796 -74.38938571 88.98114762 -77 87 C-77.63491821 84.609375 -77.63491821 84.609375 -77.64697266 81.75 C-77.66273346 80.67878906 -77.67849426 79.60757813 -77.69473267 78.50390625 C-77.68461151 77.34761719 -77.67449036 76.19132812 -77.6640625 75 C-77.66884613 73.81277344 -77.67362976 72.62554687 -77.67855835 71.40234375 C-77.68196296 68.89061154 -77.67272166 66.37883535 -77.65185547 63.8671875 C-77.62510155 60.01462332 -77.65158829 56.16497316 -77.68359375 52.3125 C-77.68028976 49.87499354 -77.67388375 47.43748891 -77.6640625 45 C-77.67418365 43.84371094 -77.68430481 42.68742187 -77.69473267 41.49609375 C-77.67897186 40.42488281 -77.66321106 39.35367188 -77.64697266 38.25 C-77.64299469 37.30640625 -77.63901672 36.3628125 -77.63491821 35.390625 C-77 33 -77 33 -74.60914612 31.18600464 C-71.77036186 29.89561646 -70.19467491 29.73351006 -67.11328125 29.9453125 C-52.22384259 30.46826998 -44.53075162 27.48452153 -33.32128906 17.90966797 C-29.13525679 14.46592118 -24.64818691 11.44858383 -20.1875 8.375 C-19.34485596 7.78372314 -18.50221191 7.19244629 -17.6340332 6.58325195 C-5.83680853 -1.68618913 -5.83680853 -1.68618913 0 0 Z " fill="#FFFFFF" transform="translate(79,4)"/>
<path d="M0 0 C2.94167486 2.4275443 5.48402187 5.13919237 8 8 C9.12588014 7.04270084 10.2506715 6.08412105 11.375 5.125 C12.00148438 4.59132813 12.62796875 4.05765625 13.2734375 3.5078125 C14.55836651 2.38567993 15.79371975 1.20628025 17 0 C20.07108055 -0.3267107 22.15050101 -0.48138276 24.875 1.0625 C26.75904814 4.30724958 26.61408773 6.31547364 26 10 C23.92809958 12.65430029 21.57479056 14.83901506 19 17 C20.29822754 19.88157982 21.17238304 21.15186125 23.625 23.3125 C26 26 26 26 26.5 29.625 C26 33 26 33 24.875 34.9375 C21.84023108 36.65720239 20.4632187 36.71878124 17 36 C14.06096014 33.5693346 11.51601711 30.86085194 9 28 C7.87411986 28.95729916 6.7493285 29.91587895 5.625 30.875 C4.68527344 31.67550781 4.68527344 31.67550781 3.7265625 32.4921875 C2.44163349 33.61432007 1.20628025 34.79371975 0 36 C-4.05261287 36.34490322 -5.54754176 36.30163882 -9 34 C-10.125 31.375 -10.125 31.375 -10 28 C-8.34695795 25.76731982 -6.55517985 23.86786608 -4.56640625 21.9296875 C-2.57984163 19.89663542 -2.57984163 19.89663542 -3 16 C-4.56251634 13.99875624 -4.56251634 13.99875624 -6.5625 12.125 C-9.98445904 8.41960597 -9.98445904 8.41960597 -10.125 4.625 C-8.06463275 -0.18252358 -4.82654761 -0.91066936 0 0 Z " fill="#FFFFFF" transform="translate(100,46)"/>
</svg>
