<svg width="61" height="61" viewBox="0 0 61 61" fill="none" xmlns="http://www.w3.org/2000/svg">
<path d="M30.4245 55.9167C44.4617 55.9167 55.8411 44.5373 55.8411 30.5C55.8411 16.4628 44.4617 5.08337 30.4245 5.08337C16.3872 5.08337 5.00781 16.4628 5.00781 30.5C5.00781 44.5373 16.3872 55.9167 30.4245 55.9167Z" fill="white"/>
<path d="M27.2468 38.2014V22.7989C27.2468 21.5789 26.7385 21.0959 25.4422 21.0959H22.1381C20.8418 21.0959 20.3335 21.5789 20.3335 22.7989V38.2014C20.3335 39.4214 20.8418 39.9043 22.1381 39.9043H25.4168C26.7385 39.9043 27.2468 39.4214 27.2468 38.2014Z" fill="#78C58D"/>
<path d="M40.6667 38.2014V22.7989C40.6667 21.5789 40.1584 21.0959 38.8621 21.0959H35.5834C34.2871 21.0959 33.7788 21.5789 33.7788 22.7989V38.2014C33.7788 39.4214 34.2871 39.9043 35.5834 39.9043H38.8621C40.1584 39.9043 40.6667 39.4214 40.6667 38.2014Z" fill="#78C58D"/>
</svg>
