<svg width="1440" height="896" viewBox="0 0 1440 896" fill="none" xmlns="http://www.w3.org/2000/svg">
<line opacity="0.9" y1="-2" x2="57.9279" y2="-2" transform="matrix(0.47603 0.879429 -0.89187 0.452292 145.252 378.268)" stroke="#EAF9FF" stroke-width="4"/>
<line opacity="0.9" y1="-2" x2="57.9279" y2="-2" transform="matrix(0.47603 0.879429 -0.89187 0.452292 1288.79 256.267)" stroke="#EAF9FF" stroke-width="4"/>
<line opacity="0.9" y1="-2" x2="57.9279" y2="-2" transform="matrix(0.47603 0.879429 -0.89187 0.452292 263.989 100.67)" stroke="#EAF9FF" stroke-width="4"/>
<line opacity="0.9" y1="-2" x2="57.9279" y2="-2" transform="matrix(0.47603 0.879429 -0.89187 0.452292 627.51 -49.6215)" stroke="#EAF9FF" stroke-width="4"/>
<line opacity="0.9" y1="-2" x2="57.9279" y2="-2" transform="matrix(0.47603 0.879429 -0.89187 0.452292 793.741 134.265)" stroke="#EAF9FF" stroke-width="4"/>
<line opacity="0.9" y1="-2" x2="57.9279" y2="-2" transform="matrix(0.47603 0.879429 -0.89187 0.452292 863.158 429.544)" stroke="#EAF9FF" stroke-width="4"/>
<line opacity="0.9" y1="-2" x2="57.9279" y2="-2" transform="matrix(0.47603 0.879429 -0.89187 0.452292 534.346 167.859)" stroke="#EAF9FF" stroke-width="4"/>
<line opacity="0.9" y1="-2" x2="57.9279" y2="-2" transform="matrix(0.47603 0.879429 -0.89187 0.452292 435.703 615.199)" stroke="#EAF9FF" stroke-width="4"/>
<line opacity="0.9" y1="-2" x2="57.9279" y2="-2" transform="matrix(0.47603 0.879429 -0.89187 0.452292 145.252 694.765)" stroke="#EAF9FF" stroke-width="4"/>
<line opacity="0.9" y1="-2" x2="57.9279" y2="-2" transform="matrix(0.47603 0.879429 -0.89187 0.452292 654.91 447.225)" stroke="#EAF9FF" stroke-width="4"/>
<line opacity="0.9" y1="-2" x2="57.9279" y2="-2" transform="matrix(0.47603 0.879429 -0.89187 0.452292 961.801 845.056)" stroke="#EAF9FF" stroke-width="4"/>
<line opacity="0.9" y1="-2" x2="57.9279" y2="-2" transform="matrix(0.47603 0.879429 -0.89187 0.452292 1246.77 615.199)" stroke="#EAF9FF" stroke-width="4"/>
<line opacity="0.9" y1="-2" x2="57.9279" y2="-2" transform="matrix(0.47603 0.879429 -0.89187 0.452292 1098.81 10.4952)" stroke="#EAF9FF" stroke-width="4"/>
<line opacity="0.9" y1="-2" x2="57.9279" y2="-2" transform="matrix(0.47603 0.879429 -0.89187 0.452292 -6.36621 542.705)" stroke="#EAF9FF" stroke-width="4"/>
<line opacity="0.9" y1="-2" x2="57.9279" y2="-2" transform="matrix(0.47603 0.879429 -0.89187 0.452292 961.801 256.267)" stroke="#EAF9FF" stroke-width="4"/>
<line opacity="0.9" y1="-2" x2="57.9279" y2="-2" transform="matrix(0.47603 0.879429 -0.89187 0.452292 55.7432 116.583)" stroke="#EAF9FF" stroke-width="4"/>
</svg>
