<?xml version="1.0" encoding="UTF-8"?>
<svg version="1.1" xmlns="http://www.w3.org/2000/svg" width="128" height="128">
<path d="M0 0 C2.75465083 1.44981622 4.42188175 2.82371555 6.75 5 C10.71007274 7.93045383 13.45563137 7.77864092 18.25390625 8.01953125 C23.16797124 8.56879336 25.86540243 11.27561601 29.1875 14.6875 C31.07593284 17.6250622 31.5540093 19.86185001 31.875 23.3125 C32.720625 23.498125 33.56625 23.68375 34.4375 23.875 C40.13237234 26.25649207 43.54870174 30.21609308 46.8125 35.375 C49.24166915 42.08557977 49.25091485 51.20569598 46.375 57.75 C42.83713349 63.60447661 37.39061737 68.2481755 30.875 70.3125 C27.85774848 70.61901633 24.85230656 70.62676365 21.82128906 70.63476562 C20.91817993 70.64469543 20.0150708 70.65462524 19.08459473 70.66485596 C16.10324021 70.69401361 13.12209855 70.707689 10.140625 70.71875 C8.06182859 70.73026057 5.9830322 70.74177594 3.90423584 70.7532959 C-0.45350124 70.77429193 -4.81116479 70.78599268 -9.16894531 70.79296875 C-14.73860727 70.80392946 -20.30728918 70.85197343 -25.87664413 70.90891266 C-30.17135407 70.94625939 -34.46583021 70.95658155 -38.76068878 70.9596405 C-40.81312667 70.96567425 -42.86556138 70.9816662 -44.91783905 71.00801086 C-64.299509 71.23903705 -64.299509 71.23903705 -70.65362549 65.89489746 C-76.27432096 59.85009094 -76.88978863 54.96857976 -76.63671875 46.765625 C-75.86148549 41.53427997 -73.89679256 37.99330634 -70.125 34.3125 C-68.38069285 33.25290991 -66.61320105 32.39896978 -64.76953125 31.52734375 C-62.49810154 29.84939924 -61.86352014 28.01275449 -60.75 25.4375 C-58.20036725 19.77815125 -54.81257253 16.78826687 -49.125 14.3125 C-47.08203125 14.08203125 -47.08203125 14.08203125 -45.125 14.0625 C-42.01755144 13.92069183 -41.21445474 13.39833246 -38.90625 11.18359375 C-37.3803015 9.38851392 -35.86729049 7.58235873 -34.3671875 5.765625 C-26.4562701 -2.88952504 -10.61802368 -4.50902375 0 0 Z " fill="#7FDBE7" transform="translate(78.125,3.6875)"/>
<path d="M0 0 C0.94875 0.886875 1.8975 1.77375 2.875 2.6875 C6.83507274 5.61795383 9.58063137 5.46614092 14.37890625 5.70703125 C19.29297124 6.25629336 21.99040243 8.96311601 25.3125 12.375 C27.20093284 15.3125622 27.6790093 17.54935001 28 21 C28.845625 21.185625 29.69125 21.37125 30.5625 21.5625 C36.33797465 23.97769849 39.80838597 27.9627244 42.9375 33.3125 C44.28049675 37.97348873 44.26145295 42.187329 44 47 C42 45 42 45 40.375 41.8125 C37.65337481 36.93199167 33.20024772 31.98896544 27.75 30.3046875 C27.1725 30.20414063 26.595 30.10359375 26 30 C25.731875 30.61875 25.46375 31.2375 25.1875 31.875 C24 34 24 34 21 36 C20.98582031 35.13117187 20.97164063 34.26234375 20.95703125 33.3671875 C20.89298213 25.91024609 20.89298213 25.91024609 17.8125 19.375 C12.18255669 14.62082565 8.19911069 13.42864201 1 14 C-1.88214887 14.88214887 -1.88214887 14.88214887 -4 16 C-2.79618552 13.50638429 -1.54571278 11.31856917 0 9 C-1.60875 8.0409375 -1.60875 8.0409375 -3.25 7.0625 C-3.85328125 6.70285156 -4.4565625 6.34320313 -5.078125 5.97265625 C-10.88920171 3.0316845 -17.66696743 3.3448587 -24 4 C-28.9042208 5.6523655 -32.84358283 8.00127608 -36.75 11.375 C-39 13 -39 13 -42.3125 12.75 C-43.199375 12.5025 -44.08625 12.255 -45 12 C-41.02570328 5.21057644 -35.2229227 -1.12429677 -27.52734375 -3.5625 C-18.27246307 -5.16458135 -8.02543422 -5.44333799 0 0 Z " fill="#4FB6CE" transform="translate(82,6)"/>
<path d="M0 0 C2.475 0.495 2.475 0.495 5 1 C6.32553662 4.64522571 6.02880894 5.93431562 4.4375 9.5625 C1.65161621 14.0025023 -2.06112202 16.35370734 -7 18 C-9.99873618 18.1094295 -12.97354252 18.16405699 -15.97265625 18.16796875 C-16.85150986 18.17129715 -17.73036346 18.17462555 -18.635849 18.17805481 C-20.49266028 18.18311548 -22.34948065 18.1854634 -24.20629883 18.18530273 C-27.05500107 18.18749423 -29.90331916 18.20567259 -32.75195312 18.22460938 C-34.55468617 18.22754241 -36.35742106 18.22952781 -38.16015625 18.23046875 C-39.01537369 18.23765427 -39.87059113 18.24483978 -40.75172424 18.25224304 C-46.77116998 18.22883002 -46.77116998 18.22883002 -49 16 C-48.44444444 11.44444444 -48.44444444 11.44444444 -47 10 C-44.24858856 9.87680817 -41.51841361 9.81386517 -38.765625 9.7890625 C-37.05988641 9.76098322 -35.35415738 9.73231869 -33.6484375 9.703125 C-30.95150119 9.66192044 -28.25474116 9.62504643 -25.55761719 9.59863281 C-22.95990787 9.57096716 -20.36301743 9.52508287 -17.765625 9.4765625 C-16.96336487 9.47330963 -16.16110474 9.47005676 -15.33453369 9.46670532 C-10.74899687 9.36637803 -7.7198261 8.96182707 -4 6 C-1.70417137 2.93282876 -1.70417137 2.93282876 0 0 Z " fill="#4DB4CC" transform="translate(112,50)"/>
<path d="M0 0 C2.55333137 1.4362489 4.03988674 2.60487967 6 4.6875 C5.16597656 4.70167969 4.33195312 4.71585938 3.47265625 4.73046875 C-5.21435607 5.09864682 -11.41100716 6.32597879 -17.8125 12.41015625 C-22.24937974 17.60429191 -23.28833701 23.01259197 -24 29.6875 C-25.5 28.375 -25.5 28.375 -27 26.6875 C-27 25.6975 -27 24.7075 -27 23.6875 C-33.04461061 26.74048861 -36.39291471 30.08492975 -39.87109375 35.89453125 C-40.24363281 36.48621094 -40.61617187 37.07789063 -41 37.6875 C-41.33 37.6875 -41.66 37.6875 -42 37.6875 C-42.78584103 30.71679901 -41.9752593 26.25403679 -37.78125 20.56640625 C-36.04050904 18.73022993 -34.70123046 17.81732905 -32.4375 16.75 C-28.9838497 15.11722851 -28.12555698 13.28286029 -26.625 9.8125 C-21.66761366 -1.06799728 -10.96467733 -4.3025949 0 0 Z " fill="#B7F6F8" transform="translate(44,19.3125)"/>
<path d="M0 0 C4.58633208 1.52877736 5.59449731 4.92381653 7.75390625 9.0703125 C9.51348523 13.20725367 9.77715757 15.57020183 9 20 C7.5 22.5 7.5 22.5 5 24 C0.97901723 24.791013 -1.96411027 24.62153384 -5.5 22.5 C-7.68239669 18.86267218 -8.00226208 16.03491316 -7 12 C-4.93506475 7.81889041 -2.54912718 3.90172527 0 0 Z " fill="#55B7E6" transform="translate(97,84)"/>
<path d="M0 0 C4.58633208 1.52877736 5.59449731 4.92381653 7.75390625 9.0703125 C9.51348523 13.20725367 9.77715757 15.57020183 9 20 C7.5 22.5 7.5 22.5 5 24 C0.97901723 24.791013 -1.96411027 24.62153384 -5.5 22.5 C-7.68239669 18.86267218 -8.00226208 16.03491316 -7 12 C-4.93506475 7.81889041 -2.54912718 3.90172527 0 0 Z " fill="#55B7E6" transform="translate(63,84)"/>
<path d="M0 0 C4.58633208 1.52877736 5.59449731 4.92381653 7.75390625 9.0703125 C9.51348523 13.20725367 9.77715757 15.57020183 9 20 C7.5 22.5 7.5 22.5 5 24 C0.97901723 24.791013 -1.96411027 24.62153384 -5.5 22.5 C-7.68239669 18.86267218 -8.00226208 16.03491316 -7 12 C-4.93506475 7.81889041 -2.54912718 3.90172527 0 0 Z " fill="#55B7E6" transform="translate(29,84)"/>
<path d="M0 0 C4.96628337 2.74969362 8.79843238 6.75208208 10.76171875 12.1484375 C10.3828125 14.39453125 10.3828125 14.39453125 9.76171875 16.1484375 C9.12234375 15.4059375 8.48296875 14.6634375 7.82421875 13.8984375 C3.52664968 9.62521727 -1.76317809 7.55345438 -7.67578125 6.5859375 C-14.36776425 7.64256639 -20.90238862 10.82711472 -25.23828125 16.1484375 C-24.69006188 10.39213408 -22.9400067 6.52570632 -18.546875 2.66015625 C-12.75552762 -1.49323429 -6.75657224 -2.57056326 0 0 Z " fill="#B7F6F7" transform="translate(71.23828125,30.8515625)"/>
<path d="M0 0 C4.21041054 1.40347018 4.9753367 3.77382613 6.98046875 7.578125 C8.38311463 10.91008073 8.56910756 13.44307774 8 17 C7 18.9375 7 18.9375 5 20 C1.41957756 20.52960415 -1.75978228 20.65886567 -5 18.9375 C-6.69310273 15.65711347 -6.52497748 13.67484234 -6 10 C-4.23951697 6.49944535 -2.19314901 3.24403291 0 0 Z " fill="#3A99D3" transform="translate(80,106)"/>
<path d="M0 0 C4.21041054 1.40347018 4.9753367 3.77382613 6.98046875 7.578125 C8.38311463 10.91008073 8.56910756 13.44307774 8 17 C7 18.9375 7 18.9375 5 20 C1.41957756 20.52960415 -1.75978228 20.65886567 -5 18.9375 C-6.69310273 15.65711347 -6.52497748 13.67484234 -6 10 C-4.23951697 6.49944535 -2.19314901 3.24403291 0 0 Z " fill="#3A99D3" transform="translate(46,106)"/>
<path d="M0 0 C0.53625 0.825 1.0725 1.65 1.625 2.5 C3.7891359 5.25306773 3.7891359 5.25306773 7 5.625 C10.2108641 5.25306773 10.2108641 5.25306773 12.375 2.5 C12.91125 1.675 13.4475 0.85 14 0 C15 1 15 1 15.3125 4.8125 C15.25377389 7.78617685 15.07349312 8.87751147 13.5 11.5 C9.96411027 13.62153384 7.02098277 13.791013 3 13 C0.5 11.5 0.5 11.5 -1 9 C-1.37556739 6.19685211 -1.23425233 3.85787838 -1 1 C-0.67 0.67 -0.34 0.34 0 0 Z " fill="#2E98CE" transform="translate(91,95)"/>
<path d="M0 0 C0.53625 0.825 1.0725 1.65 1.625 2.5 C3.7891359 5.25306773 3.7891359 5.25306773 7 5.625 C10.2108641 5.25306773 10.2108641 5.25306773 12.375 2.5 C12.91125 1.675 13.4475 0.85 14 0 C15 1 15 1 15.3125 4.8125 C15.25377389 7.78617685 15.07349312 8.87751147 13.5 11.5 C9.96411027 13.62153384 7.02098277 13.791013 3 13 C0.5 11.5 0.5 11.5 -1 9 C-1.37556739 6.19685211 -1.23425233 3.85787838 -1 1 C-0.67 0.67 -0.34 0.34 0 0 Z " fill="#2E98CE" transform="translate(57,95)"/>
<path d="M0 0 C0.53625 0.825 1.0725 1.65 1.625 2.5 C3.7891359 5.25306773 3.7891359 5.25306773 7 5.625 C10.2108641 5.25306773 10.2108641 5.25306773 12.375 2.5 C12.91125 1.675 13.4475 0.85 14 0 C15 1 15 1 15.3125 4.8125 C15.25377389 7.78617685 15.07349312 8.87751147 13.5 11.5 C9.96411027 13.62153384 7.02098277 13.791013 3 13 C0.5 11.5 0.5 11.5 -1 9 C-1.37556739 6.19685211 -1.23425233 3.85787838 -1 1 C-0.67 0.67 -0.34 0.34 0 0 Z " fill="#2E98CE" transform="translate(23,95)"/>
<path d="M0 0 C1.26714844 -0.01417969 2.53429688 -0.02835938 3.83984375 -0.04296875 C7.0625 0.1875 7.0625 0.1875 9.0625 2.1875 C8.50694444 6.74305556 8.50694444 6.74305556 7.0625 8.1875 C4.75256618 8.31307162 2.43831464 8.36325729 0.125 8.375 C-1.14214844 8.38917969 -2.40929688 8.40335938 -3.71484375 8.41796875 C-6.9375 8.1875 -6.9375 8.1875 -8.9375 6.1875 C-8.12558059 -0.47023912 -6.40766736 0.03252623 0 0 Z " fill="#4DB5CC" transform="translate(48.9375,59.8125)"/>
<path d="M0 0 C0.309375 0.639375 0.61875 1.27875 0.9375 1.9375 C1.8345163 3.93610821 1.8345163 3.93610821 3 5 C4.99958364 5.04080783 7.00045254 5.04254356 9 5 C9.66 3.35 10.32 1.7 11 0 C13 2 13 2 13.3125 5.4375 C13 9 13 9 12 10.9375 C8.75978228 12.65886567 5.58042244 12.52960415 2 12 C0 10.9375 0 10.9375 -1 9 C-1.43076923 2.86153846 -1.43076923 2.86153846 0 0 Z " fill="#0A6DA4" transform="translate(75,114)"/>
<path d="M0 0 C0.309375 0.639375 0.61875 1.27875 0.9375 1.9375 C1.8345163 3.93610821 1.8345163 3.93610821 3 5 C4.99958364 5.04080783 7.00045254 5.04254356 9 5 C9.66 3.35 10.32 1.7 11 0 C13 2 13 2 13.3125 5.4375 C13 9 13 9 12 10.9375 C8.75978228 12.65886567 5.58042244 12.52960415 2 12 C0 10.9375 0 10.9375 -1 9 C-1.43076923 2.86153846 -1.43076923 2.86153846 0 0 Z " fill="#0A6DA4" transform="translate(41,114)"/>
<path d="M0 0 C0.66 0.33 1.32 0.66 2 1 C-0.64 3.64 -3.28 6.28 -6 9 C-6 6 -6 6 -3.5625 3.375 C-2.716875 2.59125 -1.87125 1.8075 -1 1 C-0.67 0.67 -0.34 0.34 0 0 Z " fill="#ACF0F3" transform="translate(11,36)"/>
<path d="M0 0 C0.66 0.33 1.32 0.66 2 1 C-0.64 3.64 -3.28 6.28 -6 9 C-6 6 -6 6 -3.5625 3.375 C-2.716875 2.59125 -1.87125 1.8075 -1 1 C-0.67 0.67 -0.34 0.34 0 0 Z " fill="#AEF0F6" transform="translate(25,20)"/>
</svg>
