<?xml version="1.0" encoding="UTF-8"?>
<svg version="1.1" xmlns="http://www.w3.org/2000/svg" width="128" height="128">
<path d="M0 0 C3.95478251 2.91900614 7.41112181 6.50974362 9.625 10.9375 C10.55441406 10.89109375 11.48382813 10.8446875 12.44140625 10.796875 C25.04843344 10.42878661 25.04843344 10.42878661 30.625 14.9375 C34.27227228 18.42790036 36.69751333 21.92907199 37.625 26.9375 C37.32324583 28.89751789 37.00953422 30.8557119 36.6875 32.8125 C36.22441648 35.94127906 36.22441648 35.94127906 36.625 38.9375 C38.64265779 41.45201143 40.81610806 43.14317077 43.38671875 45.078125 C47.30426174 48.33248881 48.23469105 52.04129442 48.89453125 56.9375 C49.24260635 63.53803519 47.06346193 68.7374994 43.5 74.1875 C39.51098026 78.0030841 34.90310373 80.29136382 29.46484375 81.36328125 C27.25439136 81.8388701 27.25439136 81.8388701 25.75 84.8125 C23.22466947 88.52622137 21.88163431 89.54441968 17.625 90.9375 C11.79236497 91.47787648 7.01137991 91.38231258 1.625 88.9375 C-1.82205987 94.40202514 -0.24272722 100.84468153 0.625 106.9375 C2.36365438 114.45244215 4.76165736 120.17665039 8.625 126.9375 C-3.255 126.9375 -15.135 126.9375 -27.375 126.9375 C-25.395 122.6475 -23.415 118.3575 -21.375 113.9375 C-18.47573844 105.2224578 -17.86074815 97.80068998 -20.375 88.9375 C-21.08785156 89.26105469 -21.80070312 89.58460937 -22.53515625 89.91796875 C-28.17632181 91.9432015 -34.16123534 91.6620048 -39.8125 89.8125 C-42.375 87.9375 -42.375 87.9375 -44.0625 85 C-47.10643074 80.96884848 -50.05937884 80.38366314 -54.75 78.85546875 C-61.04864819 76.65281648 -63.52742078 72.63265844 -66.375 66.9375 C-68.47443855 61.51395042 -67.93541521 55.69395733 -65.875 50.375 C-64.17060968 46.7307036 -62.30181972 44.96230249 -59.0625 42.625 C-56.88210414 41.03864569 -56.88210414 41.03864569 -55.375 38.9375 C-55.16514827 35.78098018 -55.56396452 32.99037256 -56.0390625 29.8671875 C-56.53417538 25.54934261 -55.79229915 22.53641822 -53.375 18.9375 C-50.08453044 15.42128097 -46.98142092 12.47297364 -42.375 10.9375 C-40.06159086 11.01901745 -37.74903729 11.12629758 -35.4375 11.25 C-31.71486325 11.35241362 -31.71486325 11.35241362 -28.375 10.9375 C-25.71456959 8.36353659 -25.71456959 8.36353659 -24.375 4.9375 C-17.67673566 -1.92413664 -9.0025771 -2.83414464 0 0 Z " fill="#129A12" transform="translate(73.375,1.0625)"/>
<path d="M0 0 C4.77525364 2.38762682 7.64565649 5.19713925 10 10 C9.89283706 16.39150366 7.55777373 19.50430695 3.4375 24 C2.88884277 24.61593018 2.34018555 25.23186035 1.77490234 25.86645508 C-2.21184274 30.28256898 -6.32328928 34.31507448 -11 38 C-12.13059643 38.91749071 -13.26076484 39.83550899 -14.390625 40.75390625 C-15.6343745 41.75390175 -16.87917393 42.75259275 -18.125 43.75 C-18.7113623 44.22268311 -19.29772461 44.69536621 -19.90185547 45.18237305 C-24.66054178 48.93361392 -28.73043824 52 -35 52 C-39.48097199 51.23453645 -41.82527208 49.17472792 -45 46 C-46.84467846 42.31064308 -46.35009552 38.03564658 -46 34 C-44.28803009 29.76512706 -42.07677509 27.9861212 -38 26 C-37.34 26 -36.68 26 -36 26 C-36.33 25.01 -36.66 24.02 -37 23 C-37.50171564 16.87906919 -37.08833623 13.8832905 -33 9 C-30.44872229 6.49553472 -29.32636999 6.01500994 -25.6875 5.84765625 C-23.22901408 5.99089431 -20.77067803 6.13672813 -18.3125 6.28515625 C-14.93857 6.31327544 -14.93857 6.31327544 -12.75 4.12109375 C-11.88375 3.07115234 -11.88375 3.07115234 -11 2 C-7.28514731 -0.47656846 -4.30640826 -0.65372421 0 0 Z " fill="#27A427" transform="translate(64,15)"/>
<path d="M0 0 C2.5 0.125 2.5 0.125 3.5 1.125 C3.43541607 3.0654536 3.29803668 5.00369816 3.125 6.9375 C3.03476563 7.99582031 2.94453125 9.05414063 2.8515625 10.14453125 C2.56561783 12.56870663 2.16872284 14.78447007 1.5 17.125 C2.03109375 16.60808594 2.5621875 16.09117188 3.109375 15.55859375 C3.81578125 14.89988281 4.5221875 14.24117187 5.25 13.5625 C5.94609375 12.90121094 6.6421875 12.23992187 7.359375 11.55859375 C9.5 10.125 9.5 10.125 11.765625 10.41015625 C12.33796875 10.64605469 12.9103125 10.88195312 13.5 11.125 C12.90426801 15.17744846 11.58179722 18.1376841 9.5625 21.6875 C8.53991318 23.49901129 7.51894599 25.31143831 6.5 27.125 C6.10425781 27.764375 5.70851563 28.40375 5.30078125 29.0625 C1.97528584 37.62767841 6.21514128 50.02234849 9.5 58.125 C10.82 60.435 12.14 62.745 13.5 65.125 C1.62 65.125 -10.26 65.125 -22.5 65.125 C-20.52 60.835 -18.54 56.545 -16.5 52.125 C-12.74955484 40.65042373 -13.29456872 33.47122507 -18.4375 22.8125 C-19.8810815 19.98810141 -21.25419028 17.43871606 -23.2109375 14.94140625 C-24.5 13.125 -24.5 13.125 -24.1875 10.375 C-23.960625 9.6325 -23.73375 8.89 -23.5 8.125 C-21.33203125 7.75 -21.33203125 7.75 -18.5 8.125 C-16.4877866 10.09902541 -14.87415489 11.90611179 -13.1875 14.125 C-12.73310547 14.69734375 -12.27871094 15.2696875 -11.81054688 15.859375 C-10.69337205 17.27054319 -9.59482029 18.69641896 -8.5 20.125 C-6.10492111 16.53238167 -5.62969995 13.16784941 -4.9375 9 C-3.44058321 0.17202916 -3.44058321 0.17202916 0 0 Z " fill="#BC6101" transform="translate(68.5,62.875)"/>
<path d="M0 0 C6.38934286 -0.52157901 10.91920186 -0.10518354 16 4 C19.66339802 7.45933606 22.07589423 11.00982884 23 16 C22.69824583 17.96001789 22.38453422 19.9182119 22.0625 21.875 C21.59941648 25.00377906 21.59941648 25.00377906 22 28 C24.01765779 30.51451143 26.19110806 32.20567077 28.76171875 34.140625 C32.67926174 37.39498881 33.60969105 41.10379442 34.26953125 46 C34.61760635 52.60053519 32.43846193 57.7999994 28.875 63.25 C24.88598026 67.0655841 20.27810373 69.35386382 14.83984375 70.42578125 C12.62939136 70.9013701 12.62939136 70.9013701 11.125 73.875 C8.63616898 77.53504561 7.16873392 78.58420358 3 80 C-0.0197303 80.2224024 -2.97921921 80.18124685 -6 80 C-4 78 -4 78 -1.625 76.75 C1.22826527 75.1304373 1.22826527 75.1304373 2.75 71.9375 C5.23539526 68.69267841 5.55016741 68.61750636 9.3125 68 C14.53917106 67.13032327 17.57063166 64.99628288 21 61 C24.86665285 54.88819388 25.05895783 48.07110548 24 41 C22.05202391 36.45472245 19.85762034 32.86438403 15.296875 30.7421875 C14.53890625 30.16726562 13.7809375 29.59234375 13 29 C12.72766931 26.22161501 12.71887548 23.99073667 12.9375 21.25 C13.28364108 12.87234763 13.28364108 12.87234763 9 6 C6.10843817 4.0689742 3.15260331 2.46178401 0 1 C0 0.67 0 0.34 0 0 Z " fill="#097E09" transform="translate(88,12)"/>
<path d="M0 0 C0.99 0.33 1.98 0.66 3 1 C2.85833643 2.91697937 2.71150416 4.83357723 2.5625 6.75 C2.48128906 7.81734375 2.40007812 8.8846875 2.31640625 9.984375 C2.05909227 12.43679962 1.68187782 14.63921291 1 17 C1.53109375 16.48308594 2.0621875 15.96617188 2.609375 15.43359375 C3.66898438 14.44552734 3.66898438 14.44552734 4.75 13.4375 C5.44609375 12.77621094 6.1421875 12.11492187 6.859375 11.43359375 C9 10 9 10 11.265625 10.28515625 C11.83796875 10.52105469 12.4103125 10.75695312 13 11 C12.40426801 15.05244846 11.08179722 18.0126841 9.0625 21.5625 C8.03991318 23.37401129 7.01894599 25.18643831 6 27 C5.60425781 27.639375 5.20851563 28.27875 4.80078125 28.9375 C1.44805067 37.57282558 5.79997303 49.81595889 9 58 C10.20593364 60.47727386 11.49381092 62.68692391 13 65 C9.79050129 65.55336185 8.0620065 65.84564439 5 65 C-2.45760976 57.96420075 -4.54352544 44.29381589 -5.2578125 34.4453125 C-5.10776161 27.73919206 -3.65359152 21.09327879 -2.5 14.5 C-2.25850917 13.09124948 -2.01761856 11.68239593 -1.77734375 10.2734375 C-1.19181634 6.84774197 -0.59816062 3.42351504 0 0 Z " fill="#9A4F01" transform="translate(69,63)"/>
<path d="M0 0 C5.7575987 -0.34545592 10.08040341 -0.38905543 15 3 C18.44285166 6.34586993 21.10057627 9.18543766 22 14 C17.6305794 13.74297526 15.48177009 13.39976667 12.0625 10.5625 C10 8 10 8 10 6 C9.46375 5.731875 8.9275 5.46375 8.375 5.1875 C5.58333333 3.79166667 2.79166667 2.39583333 0 1 C0 0.67 0 0.34 0 0 Z " fill="#097F09" transform="translate(61,0)"/>
<path d="M0 0 C2 2 2 2 2 5 C-1.06246747 6.78409802 -3.22079273 7.22880021 -6.75 7.125 C-7.54921875 7.10695313 -8.3484375 7.08890625 -9.171875 7.0703125 C-9.77515625 7.04710938 -10.3784375 7.02390625 -11 7 C-8.62463329 5.41642219 -6.23494336 3.88406307 -3.8125 2.375 C-2.73935547 1.70597656 -2.73935547 1.70597656 -1.64453125 1.0234375 C-1.10183594 0.68570313 -0.55914062 0.34796875 0 0 Z " fill="#069002" transform="translate(50,85)"/>
</svg>
