<?xml version="1.0" encoding="UTF-8"?>
<svg version="1.1" xmlns="http://www.w3.org/2000/svg" width="512" height="512">
<path d="M0 0 C1.63461182 0.01353516 1.63461182 0.01353516 3.30224609 0.02734375 C25.26531154 0.49540375 43.59883327 9.52602606 58.84375 25.28515625 C66.27443302 33.67512826 73.3145741 44.1543848 74.75 55.4375 C75.63300781 55.09976563 76.51601563 54.76203125 77.42578125 54.4140625 C97.68618523 46.8844172 118.790947 45.42094163 138.984375 54.203125 C158.89567388 63.45888611 173.39404978 77.56199023 181.625 98.1875 C188.49263518 117.47679747 187.77291031 136.38964276 180.7734375 155.42578125 C179.58912569 158.38076913 179.58912569 158.38076913 179.75 161.4375 C180.43964844 161.78941406 181.12929688 162.14132813 181.83984375 162.50390625 C188.37302929 165.93629317 194.1011655 169.70140357 199.75 174.4375 C200.47832031 175.00855469 201.20664062 175.57960937 201.95703125 176.16796875 C218.91000209 190.09256301 228.32628715 211.98764124 230.75 233.4375 C232.37627118 260.13545188 222.94174427 282.51465563 206.01171875 302.48828125 C193.15143585 316.36972806 172.59199023 326.18248519 153.7421875 327.67578125 C151.74323517 327.68518071 149.74389444 327.57992103 147.75 327.4375 C147.64945312 328.00855469 147.54890625 328.57960938 147.4453125 329.16796875 C144.63367349 341.28112586 135.92099789 350.52941074 125.96484375 357.5 C117.88180638 362.37142957 109.12461585 366.07809243 99.75 367.4375 C99.01394531 367.54707031 98.27789062 367.65664063 97.51953125 367.76953125 C95.26352049 368.06075467 93.01838593 368.27006202 90.75 368.4375 C90.08871094 368.49164063 89.42742187 368.54578125 88.74609375 368.6015625 C73.88228743 369.22206295 57.42451982 364.57408073 45.75 355.4375 C44.76 355.1075 43.77 354.7775 42.75 354.4375 C42.3478125 355.48164062 42.3478125 355.48164062 41.9375 356.546875 C40.65903938 359.65891729 39.21339572 362.65827087 37.75 365.6875 C24.45235431 394.65042097 36.2916748 438.77749364 46.75 467.4375 C52.589415 482.53119258 60.08524672 496.44895569 70.0625 509.20703125 C71.75 511.4375 71.75 511.4375 71.75 512.4375 C24.89 512.4375 -21.97 512.4375 -70.25 512.4375 C-68.25661936 509.11519894 -66.32571296 506.10183819 -64.0625 503 C-42.28973952 471.94855256 -28.39943786 424.17300901 -32.25 386.4375 C-34.139335 375.68956117 -39.70852117 366.66145728 -45.25 357.4375 C-48.58340534 358.71324772 -51.6786641 360.17286578 -54.8125 361.875 C-72.22189222 370.67050516 -92.72254538 370.11034368 -110.9296875 364.25390625 C-124.59801548 358.88094436 -135.78313304 350.19966187 -143.25 337.4375 C-144.59027547 334.1449905 -145.57844453 330.92650083 -146.25 327.4375 C-147.405 327.52 -148.56 327.6025 -149.75 327.6875 C-168.91767564 327.56770203 -187.11833915 317.6660432 -201.25 305.4375 C-201.92289063 304.86515625 -202.59578125 304.2928125 -203.2890625 303.703125 C-219.99387805 288.29503029 -227.93952841 265.3358798 -229.47265625 243.2265625 C-230.00398946 224.5143929 -224.35461259 205.51783808 -213.25 190.4375 C-212.58226562 189.52484375 -211.91453125 188.6121875 -211.2265625 187.671875 C-203.24866884 177.36109546 -193.60259177 169.75323996 -182.25 163.4375 C-180.58044776 162.4423251 -178.91303256 161.44353204 -177.25 160.4375 C-177.58773437 159.60347656 -177.92546875 158.76945313 -178.2734375 157.91015625 C-186.81999493 136.34615442 -187.21074472 114.92427249 -178.25 93.4375 C-169.14783324 74.73379573 -153.92422152 59.96076504 -134.31054688 52.72167969 C-113.52351842 45.83848766 -93.48184046 47.30347435 -73.25 55.4375 C-73.13785156 54.56480469 -73.02570313 53.69210938 -72.91015625 52.79296875 C-69.95965262 37.79603018 -57.288209 22.84518549 -45.109375 14.2109375 C-30.84344989 5.1848664 -17.01847509 -0.17053114 0 0 Z " fill="#129A12" transform="translate(255.25,-0.4375)"/>
<path d="M0 0 C11.69320789 8.40646837 20.41167134 20.60285391 23.5234375 34.796875 C25.53389362 47.28736836 21.85012056 54.81871069 14.84375 65.07421875 C2.64835154 81.83176444 -11.89377003 96.91576296 -26.484375 111.578125 C-27.12600586 112.22442871 -27.76763672 112.87073242 -28.42871094 113.53662109 C-32.22728285 117.32244612 -36.1445485 120.91203704 -40.203125 124.41699219 C-43.00741314 126.86068795 -45.70930204 129.40875039 -48.421875 131.953125 C-53.19561004 136.39475611 -58.0943612 140.59946343 -63.18359375 144.6796875 C-65.97998634 146.97205739 -68.69534347 149.3329233 -71.40600586 151.72485352 C-78.99326523 158.40889105 -86.84025493 164.59025908 -95.01171875 170.54248047 C-97.1709955 172.12323591 -99.3125216 173.72610174 -101.453125 175.33203125 C-134.23884787 199.72518488 -134.23884787 199.72518488 -149.859375 199.515625 C-150.65214844 199.50805176 -151.44492188 199.50047852 -152.26171875 199.49267578 C-164.29070442 199.15662948 -175.61684498 193.64497881 -184.61328125 185.66796875 C-195.87186905 173.70388198 -201.71235012 159.59330717 -201.35546875 143.21875 C-200.00679805 126.00714295 -191.78080601 113.53057491 -179.16015625 102.3515625 C-172.09135367 96.97993163 -164.85445074 94.6333679 -156.109375 94.078125 C-156.45871094 93.18609375 -156.80804688 92.2940625 -157.16796875 91.375 C-157.62300781 90.20453125 -158.07804687 89.0340625 -158.546875 87.828125 C-159.22556641 86.08789062 -159.22556641 86.08789062 -159.91796875 84.3125 C-162.10256686 78.38185332 -162.32427862 73.23537787 -162.359375 66.953125 C-162.38 66.05335938 -162.400625 65.15359375 -162.421875 64.2265625 C-162.49907073 50.79450552 -157.09696633 38.64151246 -147.94140625 28.84765625 C-136.12665927 17.435971 -122.33542815 12.69156811 -106.14916992 12.70483398 C-96.04570886 12.9828671 -87.58921374 16.85317386 -79.109375 22.078125 C-78.56410156 21.2325 -78.01882812 20.386875 -77.45703125 19.515625 C-68.51432358 5.93008973 -57.503561 -3.81539998 -41.19165039 -7.56445312 C-26.81583776 -10.03205656 -12.37091794 -7.70753526 0 0 Z " fill="#27A427" transform="translate(271.109375,68.921875)"/>
<path d="M0 0 C1.97419922 -0.05607422 1.97419922 -0.05607422 3.98828125 -0.11328125 C8.18972832 0.37030664 9.75126487 1.34321157 12.6875 4.3125 C15.63345609 10.20441218 13.3043839 19.22633545 12.375 25.53515625 C12.1752356 26.95253334 12.1752356 26.95253334 11.97143555 28.39854431 C11.54932126 31.3915652 11.11932703 34.38336609 10.6875 37.375 C10.25591979 40.37023423 9.82631268 43.36567305 9.40356445 46.36216736 C9.14169003 48.21834887 8.87489142 50.07384485 8.60229492 51.92848206 C7.87087306 57.1116864 7.46696592 62.0759332 7.6875 67.3125 C8.71814197 68.52885391 8.71814197 68.52885391 10.86791992 68.74194336 C15.04874848 68.10517157 17.05958389 65.42521642 19.80078125 62.44140625 C20.97828269 61.21527106 22.15602467 59.98936682 23.33398438 58.76367188 C25.16966876 56.82250248 26.99916561 54.87589316 28.82299805 52.92358398 C30.59205721 51.03937472 32.38244801 49.17748342 34.17578125 47.31640625 C34.70939774 46.73097549 35.24301422 46.14554474 35.7928009 45.54237366 C38.6719209 42.57164391 40.75819964 40.97522314 44.91479492 40.35913086 C49.00908039 40.30852525 50.56442432 40.74055533 53.6875 43.3125 C56.1948881 47.07358216 56.47035466 49.96257561 55.6875 54.3125 C54.2072496 57.69603606 52.23114606 60.68157938 50.1875 63.75 C49.61161133 64.6481543 49.03572266 65.54630859 48.44238281 66.47167969 C46.54130441 69.43015066 44.61566545 72.37162278 42.6875 75.3125 C16.15467406 116.1210019 11.30861545 140.91186067 21.3125 189.1796875 C26.71991379 213.95336755 36.31896395 237.03043616 52 257.08203125 C53.6875 259.3125 53.6875 259.3125 53.6875 260.3125 C6.8275 260.3125 -40.0325 260.3125 -88.3125 260.3125 C-86.31911936 256.99019894 -84.38821296 253.97683819 -82.125 250.875 C-60.35223952 219.82355256 -46.46193786 172.04800901 -50.3125 134.3125 C-52.06854433 124.32281736 -56.97093129 116.0437482 -62.07446289 107.44921875 C-63.43974164 105.09289463 -64.73049723 102.70355545 -66.01953125 100.3046875 C-70.01631343 92.93625436 -74.3303146 85.7595957 -78.625 78.5625 C-79.43702662 77.19802238 -80.2488763 75.83343945 -81.06054688 74.46875 C-84.32615747 68.98145553 -87.59808683 63.49804531 -90.88818359 58.02539062 C-91.30239059 57.33628601 -91.7165976 56.6471814 -92.14335632 55.93719482 C-92.9339772 54.62266831 -93.7252958 53.30856111 -94.51741028 51.99493408 C-98.92969332 44.66150874 -98.92969332 44.66150874 -98.3125 39.3125 C-95.07216408 34.30470812 -92.14866092 32.06334828 -86.3125 30.3125 C-81.5504165 29.56452877 -78.41843208 29.63539872 -74.25 32.1875 C-71.09924006 35.278327 -68.40428552 38.78537505 -65.6953125 42.26171875 C-62.88532637 45.8594223 -60.00911634 49.39916601 -57.125 52.9375 C-56.00639905 54.3124094 -54.88791125 55.68741086 -53.76953125 57.0625 C-53.20314941 57.75859375 -52.63676758 58.4546875 -52.05322266 59.171875 C-50.2880009 61.34262737 -48.52458481 63.51483426 -46.76171875 65.6875 C-46.18381592 66.3995459 -45.60591309 67.1115918 -45.01049805 67.84521484 C-43.91143405 69.19948924 -42.81262185 70.55396803 -41.71411133 71.90869141 C-38.60840562 75.73407848 -35.47493467 79.53385563 -32.3125 83.3125 C-30.6625 82.9825 -29.0125 82.6525 -27.3125 82.3125 C-25.65269456 76.87131613 -24.50824859 71.44465565 -23.5078125 65.84765625 C-23.34382965 64.94483414 -23.1798468 64.04201202 -23.01089478 63.11183167 C-22.66261834 61.19027349 -22.31605146 59.26840479 -21.97106934 57.34625244 C-21.43436083 54.35751912 -20.89191129 51.36986959 -20.34863281 48.38232422 C-18.83536422 40.02809802 -17.33805645 31.67568679 -16.0390625 23.28515625 C-15.86745605 22.18228271 -15.69584961 21.07940918 -15.51904297 19.94311523 C-15.22557411 18.01108573 -14.94486897 16.07705082 -14.68017578 14.14086914 C-13.88393689 8.86591326 -12.71714573 5.4693349 -9.3125 1.3125 C-6.32544343 -0.18102829 -3.2743749 0.04682138 0 0 Z " fill="#BE6101" transform="translate(273.3125,251.6875)"/>
<path d="M0 0 C16.46471705 12.6936067 26.78298896 31.72180993 29.46875 52.2265625 C30.84212148 66.05391625 28.83472723 78.19822017 24.0859375 91.11328125 C22.90162569 94.06826913 22.90162569 94.06826913 23.0625 97.125 C24.09697266 97.65287109 24.09697266 97.65287109 25.15234375 98.19140625 C31.68552929 101.62379317 37.4136655 105.38890357 43.0625 110.125 C43.79082031 110.69605469 44.51914062 111.26710938 45.26953125 111.85546875 C62.22250209 125.78006301 71.63878715 147.67514124 74.0625 169.125 C75.68877118 195.82295188 66.25424427 218.20215563 49.32421875 238.17578125 C36.46393585 252.05722806 15.90449023 261.86998519 -2.9453125 263.36328125 C-4.94426483 263.37268071 -6.94360556 263.26742103 -8.9375 263.125 C-9.03804688 263.69605469 -9.13859375 264.26710938 -9.2421875 264.85546875 C-12.05382651 276.96862586 -20.76650211 286.21691074 -30.72265625 293.1875 C-38.80569362 298.05892957 -47.56288415 301.76559243 -56.9375 303.125 C-58.04158203 303.28935547 -58.04158203 303.28935547 -59.16796875 303.45703125 C-68.13430266 304.61447539 -76.12785591 304.18487503 -84.9375 302.125 C-81.78287505 300.0219167 -79.10229598 299.14855814 -75.5 298 C-61.94626252 293.35285324 -50.54728039 284.69229844 -44 271.75 C-42.96649278 269.47554326 -41.99467765 267.31810295 -41.28515625 264.921875 C-39.9375 263.125 -39.9375 263.125 -36.5859375 262.2890625 C-35.16298843 262.09763513 -33.73831411 261.91876791 -32.3125 261.75 C-10.3731971 258.50795726 9.84596325 247.36815622 23.796875 229.9609375 C38.78247075 209.60439815 43.75053791 185.66173366 40.6015625 160.80859375 C39.08010195 152.22576632 36.12901837 144.80513067 32.0625 137.125 C31.55976563 136.12855469 31.05703125 135.13210937 30.5390625 134.10546875 C21.54626971 117.37010071 6.85758325 105.56697306 -9.9375 97.125 C-8.26724691 91.45087779 -6.5349816 85.81563276 -4.5859375 80.23046875 C0.84350248 62.60114255 -3.31330658 42.35715374 -10.9375 26.125 C-21.50050051 6.41413781 -38.54717207 -5.77164622 -59.375 -12.8125 C-60.550625 -13.163125 -61.72625 -13.51375 -62.9375 -13.875 C-62.9375 -14.205 -62.9375 -14.535 -62.9375 -14.875 C-40.09834589 -19.29896213 -18.84281272 -12.94624406 0 0 Z " fill="#097C09" transform="translate(411.9375,63.875)"/>
<path d="M0 0 C3.27280788 0.52104404 4.74866052 0.78262532 7.3125 3 C10.98658022 9.53169816 8.73834295 18.08935015 7.6875 25.22265625 C7.55432373 26.16757431 7.42114746 27.11249237 7.28393555 28.08604431 C6.86182126 31.0790652 6.43182703 34.07086609 6 37.0625 C5.56841979 40.05773423 5.13881268 43.05317305 4.71606445 46.04966736 C4.45419003 47.90584887 4.18739142 49.76134485 3.91479492 51.61598206 C3.18337306 56.7991864 2.77946592 61.7634332 3 67 C4.03064197 68.21635391 4.03064197 68.21635391 6.18041992 68.42944336 C10.36124848 67.79267157 12.37208389 65.11271642 15.11328125 62.12890625 C16.29078269 60.90277106 17.46852467 59.67686682 18.64648438 58.45117188 C20.48216876 56.51000248 22.31166561 54.56339316 24.13549805 52.61108398 C25.90455721 50.72687472 27.69494801 48.86498342 29.48828125 47.00390625 C30.02189774 46.41847549 30.55551422 45.83304474 31.1053009 45.22987366 C33.9844209 42.25914391 36.07069964 40.66272314 40.22729492 40.04663086 C44.32158039 39.99602525 45.87692432 40.42805533 49 43 C51.5073881 46.76108216 51.78285466 49.65007561 51 54 C49.5197496 57.38353606 47.54364606 60.36907938 45.5 63.4375 C44.92411133 64.3356543 44.34822266 65.23380859 43.75488281 66.15917969 C41.85380441 69.11765066 39.92816545 72.05912278 38 75 C11.46717406 115.8085019 6.62111545 140.59936067 16.625 188.8671875 C22.03241379 213.64086755 31.63146395 236.71793616 47.3125 256.76953125 C49 259 49 259 49 260 C44.89350031 260.27453458 40.79062436 260.47263127 36.67700195 260.60424805 C35.28250042 260.65915222 33.88862017 260.7339223 32.49633789 260.82983398 C21.0212483 261.59978079 21.0212483 261.59978079 16.19702148 257.78149414 C13.85528629 254.96699033 11.90109257 252.12627019 10 249 C9.50814209 248.28175049 9.01628418 247.56350098 8.50952148 246.82348633 C7.23584144 244.94118754 6.07366135 243.03044521 4.9375 241.0625 C4.52540283 240.35359619 4.11330566 239.64469238 3.6887207 238.91430664 C-1.14446755 230.32931992 -4.67767734 221.25531797 -8 212 C-8.24588867 211.32678711 -8.49177734 210.65357422 -8.74511719 209.95996094 C-14.7846594 193.15090694 -17.67261694 175.23421479 -19.8125 157.5625 C-19.93641113 156.57072754 -20.06032227 155.57895508 -20.18798828 154.55712891 C-20.54103191 151.37245696 -20.79271544 148.19751372 -21 145 C-21.08169434 143.78489746 -21.16338867 142.56979492 -21.24755859 141.31787109 C-21.88887966 126.5876575 -18.88750129 112.13568185 -16.37824631 97.68915939 C-15.7386539 93.98741873 -15.11591904 90.28285054 -14.49243164 86.57836914 C-13.73339146 82.07276107 -12.97351225 77.56731376 -12.20680237 73.06300354 C-9.67147585 58.15924393 -7.29644531 43.23130199 -4.94262695 28.29785156 C-4.48288417 25.3845095 -4.020837 22.47153992 -3.55859375 19.55859375 C-3.42883652 18.72923813 -3.29907928 17.89988251 -3.16539001 17.0453949 C-2.2579882 11.33158364 -1.17107936 5.66545417 0 0 Z " fill="#9A4D01" transform="translate(278,252)"/>
<path d="M0 0 C24.37341946 0.0423456 42.94740215 6.15592497 60.87255859 23.19335938 C69.24891552 31.85225215 78.18341065 43.9696046 78.74755859 56.38085938 C67.00651748 57.11851641 57.99044443 54.98923365 48.86474609 47.35742188 C43.66329802 42.50145743 39.27165139 37.06682727 34.93505859 31.44335938 C22.93378729 16.41851196 8.01342869 7.53675746 -10.25244141 2.38085938 C-7.20428579 -0.66729624 -4.17121367 0.05946872 0 0 Z " fill="#097C09" transform="translate(251.25244140625,-0.380859375)"/>
<path d="M0 0 C2.99876322 2.80319171 5.16322727 5.59434917 7.25 9.125 C8.03117187 10.42824219 8.03117187 10.42824219 8.828125 11.7578125 C10 14 10 14 10 16 C-2.17330098 25.9970684 -20.67877823 29.05663598 -36 28 C-37.19302734 27.91878906 -37.19302734 27.91878906 -38.41015625 27.8359375 C-40.625 27.625 -40.625 27.625 -44 27 C-44.33 26.34 -44.66 25.68 -45 25 C-44.175 24.8040625 -43.35 24.608125 -42.5 24.40625 C-26.93249718 20.37537873 -9.90627907 13.15535683 0 0 Z " fill="#019000" transform="translate(200,340)"/>
</svg>
