<svg width="268" height="155" viewBox="0 0 268 155" fill="none" xmlns="http://www.w3.org/2000/svg">
<ellipse cx="32.3225" cy="108.436" rx="5.73459" ry="1.56398" fill="#262626" fill-opacity="0.25"/>
<path d="M29.1943 89.6682H35.4503V108.957L32.3223 109.479L29.1943 108.957V89.6682Z" fill="#795915"/>
<path d="M14.8578 38.3175L35.9715 0L50.308 38.3175H41.9668L57.0853 65.9478H41.9668L64.1232 89.9289H0L24.763 65.9478H8.34123L24.763 38.3175H14.8578Z" fill="#369D79"/>
<ellipse cx="75.3225" cy="116.436" rx="5.73459" ry="1.56398" fill="#262626" fill-opacity="0.25"/>
<path d="M72.1943 97.6682H78.4503V116.957L75.3223 117.479L72.1943 116.957V97.6682Z" fill="#795915"/>
<path d="M57.8578 46.3175L78.9715 8L93.308 46.3175H84.9668L100.085 73.9478H84.9668L107.123 97.9289H43L67.763 73.9478H51.3412L67.763 46.3175H57.8578Z" fill="#369D79"/>
<ellipse cx="126.322" cy="127.436" rx="5.73459" ry="1.56398" fill="#262626" fill-opacity="0.25"/>
<path d="M123.194 108.668H129.45V127.957L126.322 128.479L123.194 127.957V108.668Z" fill="#795915"/>
<path d="M108.858 57.3175L129.972 19L144.308 57.3175H135.967L151.085 84.9478H135.967L158.123 108.929H94L118.763 84.9478H102.341L118.763 57.3175H108.858Z" fill="#369D79"/>
<ellipse cx="190.322" cy="143.436" rx="5.73459" ry="1.56398" fill="#262626" fill-opacity="0.25"/>
<path d="M187.194 124.668H193.45V143.957L190.322 144.479L187.194 143.957V124.668Z" fill="#795915"/>
<path d="M172.858 73.3175L193.972 35L208.308 73.3175H199.967L215.085 100.948H199.967L222.123 124.929H158L182.763 100.948H166.341L182.763 73.3175H172.858Z" fill="#369D79"/>
<ellipse cx="235.322" cy="153.436" rx="5.73459" ry="1.56398" fill="#262626" fill-opacity="0.25"/>
<path d="M232.194 134.668H238.45V153.957L235.322 154.479L232.194 153.957V134.668Z" fill="#795915"/>
<path d="M217.858 83.3175L238.972 45L253.308 83.3175H244.967L260.085 110.948H244.967L267.123 134.929H203L227.763 110.948H211.341L227.763 83.3175H217.858Z" fill="#369D79"/>
</svg>
