<svg width="934" height="471" viewBox="0 0 934 471" fill="none" xmlns="http://www.w3.org/2000/svg">
<g opacity="0.8">
<path d="M8.5 233C8.66596 237.624 12.3761 241.334 17 241.5C12.3761 241.666 8.66596 245.376 8.5 250C8.33404 245.376 4.62393 241.666 0 241.5C4.62393 241.334 8.33404 237.624 8.5 233Z" fill="white"/>
</g>
<g opacity="0.8">
<path d="M837.5 421C837.666 425.624 841.376 429.334 846 429.5C841.376 429.666 837.666 433.376 837.5 438C837.334 433.376 833.624 429.666 829 429.5C833.624 429.334 837.334 425.624 837.5 421Z" fill="white"/>
</g>
<g opacity="0.8">
<path d="M105.014 135.99C105.198 134.874 106.803 134.874 106.987 135.99L107.556 139.444L111.01 140.013C112.127 140.197 112.127 141.803 111.01 141.987L107.556 142.556L106.987 146.01C106.803 147.126 105.198 147.126 105.014 146.01L104.445 142.556L100.991 141.987C99.8742 141.803 99.8742 140.197 100.991 140.013L104.445 139.444L105.014 135.99Z" fill="white"/>
</g>
<g opacity="0.8">
<path d="M62.0137 454.99C62.1977 453.874 63.8032 453.874 63.9872 454.99L64.5561 458.444L68.0101 459.013C69.1267 459.197 69.1267 460.803 68.0101 460.987L64.5561 461.556L63.9872 465.01C63.8032 466.126 62.1977 466.126 62.0137 465.01L61.4448 461.556L57.9908 460.987C56.8742 460.803 56.8742 459.197 57.9908 459.013L61.4448 458.444L62.0137 454.99Z" fill="white"/>
</g>
<g opacity="0.8">
<path d="M743 123L743.254 129.705C743.409 133.808 746.769 137.098 750.956 137.248L758 137.5L750.956 137.752C746.769 137.902 743.409 141.192 743.254 145.295L743 152L742.746 145.295C742.591 141.192 739.231 137.902 735.044 137.752L728 137.5L735.044 137.248C739.231 137.098 742.591 133.808 742.746 129.705L743 123Z" fill="white"/>
</g>
<g opacity="0.8">
<path d="M301 15L301.254 21.7054C301.409 25.8078 304.769 29.0978 308.956 29.2478L316 29.5L308.956 29.7522C304.769 29.9022 301.409 33.1922 301.254 37.2946L301 44L300.746 37.2946C300.591 33.1922 297.231 29.9022 293.044 29.7522L286 29.5L293.044 29.2478C297.231 29.0978 300.591 25.8078 300.746 21.7054L301 15Z" fill="white"/>
</g>
<g opacity="0.8">
<path d="M919 265L919.254 271.705C919.409 275.808 922.769 279.098 926.956 279.248L934 279.5L926.956 279.752C922.769 279.902 919.409 283.192 919.254 287.295L919 294L918.746 287.295C918.591 283.192 915.231 279.902 911.044 279.752L904 279.5L911.044 279.248C915.231 279.098 918.591 275.808 918.746 271.705L919 265Z" fill="white"/>
</g>
<g opacity="0.8">
<path d="M17 0L17.2537 6.70544C17.4088 10.8078 20.7686 14.0978 24.956 14.2478L32 14.5L24.956 14.7522C20.7686 14.9022 17.4088 18.1922 17.2537 22.2946L17 29L16.7463 22.2946C16.5912 18.1922 13.2314 14.9022 9.04403 14.7522L2 14.5L9.04403 14.2478C13.2314 14.0978 16.5912 10.8078 16.7463 6.70544L17 0Z" fill="white"/>
</g>
<g opacity="0.8">
<path d="M579.5 31L579.678 35.6244C579.786 38.4537 582.138 40.7226 585.069 40.826L590 41L585.069 41.174C582.138 41.2774 579.786 43.5463 579.678 46.3756L579.5 51L579.322 46.3756C579.214 43.5463 576.862 41.2774 573.931 41.174L569 41L573.931 40.826C576.862 40.7226 579.214 38.4537 579.322 35.6244L579.5 31Z" fill="white"/>
</g>
</svg>
