<?xml version="1.0" encoding="UTF-8"?>
<svg version="1.1" xmlns="http://www.w3.org/2000/svg" width="1439" height="216">
<path d="M0 0 C2.75374697 -0.00692788 5.50743938 -0.01857291 8.26116562 -0.03116226 C28.34668357 -0.11039075 48.31616066 0.32856879 68.35482407 1.76635361 C69.23652645 1.82886936 70.11822884 1.89138512 71.02664948 1.95579529 C73.54515403 2.13842774 76.0625994 2.33132175 78.57992172 2.5295372 C79.30124409 2.58366146 80.02256645 2.63778572 80.76574707 2.69355011 C87.10922035 3.22238175 93.09066873 4.3095673 99.44076157 5.36791611 C99.44076157 74.99791611 99.44076157 144.62791611 99.44076157 216.36791611 C-375.42923843 216.36791611 -850.29923843 216.36791611 -1339.55923843 216.36791611 C-1339.55923843 182.04791611 -1339.55923843 147.72791611 -1339.55923843 112.36791611 C-1264.43186522 62.28300063 -1152.34677925 56.49389886 -954.33947921 45.20065904 C-952.24487102 45.19993179 -950.15026881 45.19776709 -948.05566216 45.19516182 C-940.64059045 45.18597949 -933.22553634 45.18181637 -925.81045914 45.18261337 C-919.81629092 45.18314163 -913.82218869 45.17617935 -907.82803726 45.16210556 C-869.69043879 45.0746802 -831.66375149 45.55346113 -793.55923843 47.36791611 C-791.91468136 47.44448386 -790.27011985 47.52095645 -788.62555313 47.59731674 C-779.20366999 48.03948142 -769.78732144 48.55628098 -760.37173843 49.11791611 C-758.95670271 49.20117399 -757.54166355 49.28437348 -756.12662125 49.36751938 C-680.18220256 53.85224716 -604.53034395 61.3109964 -472.56900406 77.692379 C-468.23759197 78.30508894 -463.90445452 78.86168008 -459.55923843 79.36791611 C-458.640298 79.47692245 -457.72135757 79.5859288 -456.77457047 79.69823837 C-449.42897293 80.1511942 -442.75261379 77.4170849 -435.94507217 74.9847374 C-431.94414802 73.56135609 -427.92087034 72.20364736 -423.89908218 70.84057236 C-422.62726845 70.40833862 -422.62726845 70.40833862 -421.32976151 69.96737289 C-325.92907961 37.70556715 -224.6261558 18.19580463 -91.4162941 3.61791611 C-88.66465648 3.37714047 -85.91419691 3.12558374 -83.16373062 2.87182236 C-55.47573329 0.3638117 -27.78130249 0.05853421 0 0 Z " fill="#78C58D" transform="translate(1339.559238433838,-0.3679161071777344)"/>
</svg>
