<svg width="267" height="279" viewBox="0 0 267 279" fill="none" xmlns="http://www.w3.org/2000/svg">
<path d="M45.8628 21.9648C42.1642 33.9875 56.745 39.3052 65.221 40.4612C42.1045 63.9671 7.4298 118.377 53.6628 147.972C38.2518 158.761 11.1284 187.739 25.923 217.333C16.6764 218.489 -1.35446 224.501 0.494855 239.298C1.2654 253.17 12.9778 276.753 53.6628 260.106C86.4111 274.364 164.853 294.325 216.634 260.106C231.66 266.272 262.636 271.667 266.334 243.922C266.72 235.059 263.329 217.333 246.685 217.333C258.706 179.736 226.266 155.426 208.543 147.972C265.872 125.776 229.348 67.0498 203.92 40.4612C212.242 40.4612 221.01 32.9682 224.863 29.5C228.561 17.4773 215.863 5.00945 208.543 0C189.125 0.924822 188.124 15.0285 190.05 21.9648C153.988 -13.1784 103.363 7.3218 82.5584 21.9648C83.7142 15.0287 78.6419 11.6241 72.8628 7C67.0837 2.37589 50.4861 6.93644 45.8628 21.9648Z" fill="#CAAF82"/>
<path d="M45.8628 21.9648C42.1642 33.9875 56.745 39.3052 65.221 40.4612C42.1045 63.9671 7.4298 118.377 53.6628 147.972C38.2518 158.761 11.1284 187.739 25.923 217.333C16.6764 218.489 -1.35446 224.501 0.494855 239.298C1.2654 253.17 12.9778 276.753 53.6628 260.106C86.4111 274.364 164.853 294.325 216.634 260.106C231.66 266.272 262.636 271.667 266.334 243.922C266.72 235.059 263.329 217.333 246.685 217.333C258.706 179.736 226.266 155.426 208.543 147.972C265.872 125.776 229.348 67.0498 203.92 40.4612C212.242 40.4612 221.01 32.9682 224.863 29.5C228.561 17.4773 215.863 5.00945 208.543 0C189.125 0.924822 188.124 15.0285 190.05 21.9648C153.988 -13.1784 103.363 7.3218 82.5584 21.9648C83.7142 15.0287 78.6419 11.6241 72.8628 7C67.0837 2.37589 50.4861 6.93644 45.8628 21.9648Z" fill="#CAAF82"/>
<path d="M82.3628 21.5L65.3628 41.5C56.1628 41.5 48.8628 35.5 46.3628 32.5C40.3628 11.7 58.8628 5.16667 68.8628 4.5C78.8628 4.9 82.0295 16 82.3628 21.5Z" fill="#936C2C"/>
<path d="M207.863 0C189.463 0.4 188.53 14.1667 190.363 21L203.363 41C213.763 43 222.03 34.1667 224.863 29.5C230.863 18.3 216.03 5.16667 207.863 0Z" fill="#936C2C"/>
<path d="M114.62 74.035C82.2032 115.26 104.979 133.932 120.42 138.114C140.5 142.098 155.426 132.754 160.379 127.584C176.011 109.877 155.7 83.305 143.591 72.2321C128.038 65.7899 117.797 70.7498 114.62 74.035Z" fill="#936C2C"/>
<path d="M129.868 119.438C128.953 112.781 129.487 101.003 129.868 95.9457C131.011 92.4219 131.869 94.4774 132.155 95.9457C133.013 100.35 131.011 127.758 129.868 119.438Z" fill="#272727"/>
<path d="M53.8629 261C58.2629 235.8 36.6961 220.667 25.3628 217.5C-9.43721 221.1 -1.13716 245.833 7.86284 258C17.0628 269.6 42.6962 265.833 53.8629 261Z" fill="#936C2C"/>
<path d="M265.863 246.5C269.063 223.3 254.529 217.667 246.863 217.5C231.663 222.7 220.863 248.333 217.363 260.5C228.39 263.667 236.578 265.566 243.363 265C259.712 263.636 265.509 252.86 265.863 246.5Z" fill="#936C2C"/>
<path d="M59.479 144.999C43.348 131.493 29.6212 117.389 18.5099 130.866C14.4601 139.663 12.3786 161.6 36.4509 178.968" stroke="#936C2C" stroke-width="6"/>
<path d="M18.5099 130.866C29.6212 117.389 43.348 131.493 59.479 144.999L36.4509 178.968C12.3786 161.6 14.4601 139.663 18.5099 130.866Z" fill="#CAAF82"/>
<path d="M46.3626 134L17.8627 157C12.2627 139 17.3626 129.333 20.8626 127.5C28.4626 120.3 41.6959 128.834 46.3626 134Z" fill="#936C2C"/>
<path d="M167.533 178.405C179.586 195.648 189.162 212.843 203.402 202.728C209.605 195.29 217.333 174.655 198.62 151.612" stroke="#936C2C" stroke-width="6"/>
<path d="M203.402 202.728C189.162 212.843 179.586 195.648 167.533 178.405L198.62 151.612C217.333 174.655 209.605 195.29 203.402 202.728Z" fill="#CAAF82"/>
<path d="M177.329 192.442L210.839 177.666C211.553 196.504 204.11 204.507 200.253 205.365C191.039 210.335 180.488 198.647 177.329 192.442Z" fill="#936C2C"/>
<path d="M184.363 59C185.848 60.4808 188.363 59.3718 188.363 58.4464C171.278 37.7159 154.007 49.8087 147.508 58.4464C146.765 60.6675 149.625 60.617 150.863 60C157.365 54.1365 164.2 53.9068 169.863 54C177.786 54.1304 181.114 55.5818 184.363 59Z" fill="#60410E"/>
<path d="M116.339 58C117.825 59.4808 120.339 58.3718 120.339 57.4464C103.254 36.7159 85.9838 48.8087 79.4841 57.4464C78.7413 59.6675 81.6011 59.617 82.8391 59C89.3412 53.1365 96.1761 52.9068 101.839 53C109.762 53.1304 113.09 54.5818 116.339 58Z" fill="#60410E"/>
<path d="M119.564 84.1779C122.373 84.5288 127.869 87.4991 129.095 91.7097C129.095 91.7621 129.114 91.7928 129.141 91.809C129.572 91.6517 129.264 91.8831 129.141 91.809C129.037 91.8469 128.89 91.9073 128.688 92C125.367 90.9474 118.066 88.2807 118.372 86.0351C118.755 83.228 119.181 84.1242 119.564 84.1779Z" fill="#272727"/>
<path d="M142.162 84.1779C139.352 84.5288 133.856 87.4991 132.63 91.7097C132.63 91.7621 132.612 91.7928 132.585 91.809C132.154 91.6517 132.461 91.8831 132.585 91.809C132.689 91.8469 132.835 91.9073 133.038 92C136.358 90.9474 143.66 88.2807 143.353 86.0351C142.97 83.228 142.545 84.1242 142.162 84.1779Z" fill="#272727"/>
<path d="M200.363 78.9999C188.363 74.1999 182.029 84.3332 180.363 89.9999C178.363 91.4998 183.363 113 200.363 99.5C213.963 88.7 206.029 81.3333 200.363 78.9999Z" fill="#C58181" fill-opacity="0.39"/>
<path d="M78.7778 85.2538C66.7778 80.4538 60.4445 90.5871 58.7778 96.2538C56.7778 97.7537 61.7778 119.254 78.7778 105.754C92.3778 94.9539 84.4445 87.5872 78.7778 85.2538Z" fill="#C58181" fill-opacity="0.39"/>
</svg>
