<svg width="70" height="40" viewBox="0 0 70 40" fill="none" xmlns="http://www.w3.org/2000/svg">
<g filter="url(#filter0_d_182_311)">
<path d="M35.6328 1.41183C30.1993 -0.879823 27.8976 6.95 27.4259 11.1514C19.2757 4.96394 9.50288 8.57328 5.63524 11.1514C0.880873 15.7347 7.61622 19.1722 11.5782 20.3179C4.55991 27.6512 10.1632 31.7762 13.8422 32.9221C23.3508 33.6096 30.8219 29.5801 33.3688 27.4794C43.7831 34.8127 52.2352 30.5349 55.1595 27.4794C58.1026 24.2711 53.9332 20.0315 51.4805 18.3127C64.1587 19.4586 66.385 14.0159 65.9133 11.1514C67.2717 4.96394 52.3295 6.47256 44.6887 8.00029C43.5567 2.95865 38.1798 1.5073 35.6328 1.41183Z" fill="#FFF8E1"/>
</g>
<ellipse cx="34.8571" cy="17.4286" rx="6.85714" ry="6.42857" fill="#F2B1B1"/>
<defs>
<filter id="filter0_d_182_311" x="0" y="0" width="70" height="40" filterUnits="userSpaceOnUse" color-interpolation-filters="sRGB">
<feFlood flood-opacity="0" result="BackgroundImageFix"/>
<feColorMatrix in="SourceAlpha" type="matrix" values="0 0 0 0 0 0 0 0 0 0 0 0 0 0 0 0 0 0 127 0" result="hardAlpha"/>
<feOffset dy="3"/>
<feGaussianBlur stdDeviation="2"/>
<feComposite in2="hardAlpha" operator="out"/>
<feColorMatrix type="matrix" values="0 0 0 0 0.232604 0 0 0 0 0.403047 0 0 0 0 0.641667 0 0 0 0.32 0"/>
<feBlend mode="normal" in2="BackgroundImageFix" result="effect1_dropShadow_182_311"/>
<feBlend mode="normal" in="SourceGraphic" in2="effect1_dropShadow_182_311" result="shape"/>
</filter>
</defs>
</svg>
