<?xml version="1.0" encoding="UTF-8"?>
<svg version="1.1" xmlns="http://www.w3.org/2000/svg" width="1440" height="1024">
<path d="M0 0 C475.2 0 950.4 0 1440 0 C1440 337.92 1440 675.84 1440 1024 C964.8 1024 489.6 1024 0 1024 C0 686.08 0 348.16 0 0 Z " fill="#A1DEF5" transform="translate(0,0)"/>
<path d="M0 0 C6.15446232 4.4538872 10.00347692 9.1277544 12.421875 16.37109375 C12.525 17.60859375 12.628125 18.84609375 12.734375 20.12109375 C13.67089047 24.5482578 15.81921678 25.39293232 19.41015625 27.875 C22.60465374 30.25071367 24.40435732 32.57620075 25.421875 36.37109375 C26.18805124 44.34108801 26.21773576 51.25385483 22.421875 58.37109375 C22.421875 62.90132372 22.76416649 63.18364274 25.734375 66.24609375 C29.69423146 70.34707717 32.20320891 74.05687767 32.75 79.84375 C32.72421875 81.02839844 32.6984375 82.21304688 32.671875 83.43359375 C32.65640625 84.62082031 32.6409375 85.80804687 32.625 87.03125 C32.44933252 89.9196287 32.08087373 92.55972015 31.421875 95.37109375 C32.00195312 95.61085938 32.58203125 95.850625 33.1796875 96.09765625 C41.90913445 101.05549546 47.37001915 113.21552619 50.421875 122.37109375 C50.99076537 130.26991775 50.64625547 137.11297416 47.421875 144.37109375 C46.92880859 145.56992187 46.92880859 145.56992187 46.42578125 146.79296875 C41.8062316 157.08705171 34.24318403 164.91099537 24.421875 170.37109375 C23.72578125 170.76039063 23.0296875 171.1496875 22.3125 171.55078125 C11.42409584 176.99498333 -0.7170357 176.59279635 -12.578125 176.37109375 C-12.578125 184.62109375 -12.578125 192.87109375 -12.578125 201.37109375 C-10.40855225 201.50306152 -8.23897949 201.6350293 -6.00366211 201.77099609 C1.76903458 202.27424247 9.49300644 203.07760092 17.23046875 203.97265625 C18.62563407 204.13167751 20.02082738 204.29045338 21.41604614 204.44900513 C25.12938187 204.87214671 28.84213665 205.30018092 32.55473709 205.72972107 C34.8776819 205.99820968 37.2007673 206.26544977 39.52389526 206.53234863 C78.87175018 211.05540161 118.21921572 215.70980664 157.421875 221.37109375 C157.60435791 220.52184326 157.78684082 219.67259277 157.97485352 218.79760742 C162.73486062 197.31135852 174.06155521 179.83469271 188.421875 163.37109375 C187.08382812 162.71753906 187.08382812 162.71753906 185.71875 162.05078125 C184.54828125 161.45523438 183.3778125 160.8596875 182.171875 160.24609375 C181.01171875 159.66601562 179.8515625 159.0859375 178.65625 158.48828125 C174.43861184 155.72746014 171.98659997 152.85588362 170.85546875 147.87890625 C170.86588904 141.52252983 172.02683338 137.08944878 176.421875 132.37109375 C182.91169002 127.1542372 188.26771927 124.88355527 196.625 124.9609375 C201.16197292 125.62627571 203.62254407 127.86196096 206.421875 131.37109375 C208.78590226 135.18404094 209.421875 136.8446397 209.421875 141.37109375 C210.25847656 140.86320313 211.09507812 140.3553125 211.95703125 139.83203125 C234.13471069 126.62013942 260.31299119 118.47478625 286.234375 124.62109375 C287.97815385 125.15917408 289.71004275 125.73869712 291.421875 126.37109375 C292.19015625 126.64953125 292.9584375 126.92796875 293.75 127.21484375 C301.5832882 130.39198162 308.73706754 135.24451647 315.421875 140.37109375 C315.339375 139.38109375 315.256875 138.39109375 315.171875 137.37109375 C315.19067481 132.73694171 316.75430525 129.12363835 319.421875 125.37109375 C323.32276886 122.26630068 326.61591299 120.73965743 331.484375 119.74609375 C339.18172664 120.9678956 344.41846859 127.82681732 348.984375 133.80859375 C352.48096583 138.7117452 353.12370797 142.35974182 352.421875 148.37109375 C349.9083098 153.71241979 345.57997468 157.57290896 340.421875 160.37109375 C337.77061861 161.16722889 335.12835529 161.77091193 332.421875 162.37109375 C333.11152344 163.14710938 333.80117188 163.923125 334.51171875 164.72265625 C351.79232094 184.46219503 366.85586089 208.30094951 365.61425781 235.37792969 C364.98622189 241.88463686 362.33502452 247.26960541 358.421875 252.37109375 C367.14827269 254.16540552 375.90929747 255.74981766 384.67606735 257.3317318 C387.45095801 257.8326131 390.2255883 258.33491482 393.00015259 258.83760071 C400.8856337 260.26611315 408.77140023 261.69303919 416.65771484 263.11694336 C440.5304325 267.42833224 464.37752599 271.83729486 488.17749023 276.53457642 C492.39849345 277.36740893 496.62102178 278.1923237 500.84375 279.01635742 C571.48943399 292.81507776 642.09508684 307.4844571 711.92428589 324.99584961 C715.60032702 325.9176471 719.27738988 326.83527895 722.95458984 327.75244141 C727.64404805 328.92230926 732.32838666 330.11021291 737.01025391 331.31005859 C739.14211255 331.84528472 741.27410471 332.37997941 743.40625 332.9140625 C744.35928009 333.1634407 745.31231018 333.41281891 746.29421997 333.66975403 C756.10457704 336.0962776 764.97856361 335.82272541 774.78515625 333.609375 C776.53556818 333.23719993 778.2863974 332.86698306 780.03759766 332.49853516 C780.92707092 332.30954651 781.81654419 332.12055786 782.73297119 331.92584229 C787.08737778 331.02748338 791.46186594 330.25035627 795.83984375 329.4765625 C797.6099579 329.16136991 799.38005866 328.84610214 801.15014648 328.53076172 C802.04128143 328.37234802 802.93241638 328.21393433 803.85055542 328.05072021 C841.44104633 321.36549817 841.44104633 321.36549817 878.38671875 311.84375 C891.99350842 307.79394897 905.86899513 304.59861483 919.77539062 301.7668457 C925.22186063 300.65147817 930.59292917 299.33230223 935.97412109 297.93212891 C940.92608631 296.67519336 945.90481673 295.67353757 950.92285156 294.71704102 C965.37757494 291.9596184 979.48936717 288.27405878 993.67626953 284.38525391 C1000.71549107 282.47931424 1007.78402079 280.68494391 1014.85302734 278.89306641 C1020.70932887 277.39181038 1026.51380486 275.76264536 1032.3046875 274.02734375 C1042.78513628 270.89876007 1053.38253965 268.23997794 1063.984375 265.55859375 C1065.97858932 265.05172215 1067.97273041 264.54456232 1069.96679688 264.03710938 C1074.78432148 262.81179174 1079.6028096 261.59033681 1084.421875 260.37109375 C1083.62724391 258.43657676 1082.82983788 256.50319945 1082.03125 254.5703125 C1081.58749023 253.49354248 1081.14373047 252.41677246 1080.68652344 251.30737305 C1079.438575 248.28155202 1079.438575 248.28155202 1077.671875 245.18359375 C1073.50421173 235.80635139 1073.91251065 221.58469309 1077.25390625 212.0625 C1081.62864114 201.98158917 1087.10537596 190.02830925 1095.99682617 183.15332031 C1098.68781549 180.9461798 1100.24583282 179.4468234 1100.82128906 175.93041992 C1100.83264874 173.01743823 1100.68592853 170.15197999 1100.484375 167.24609375 C1100.15004956 157.98455234 1100.52198827 151.45309083 1105.421875 143.37109375 C1106.081875 142.23671875 1106.741875 141.10234375 1107.421875 139.93359375 C1109.58265292 137.16509704 1111.80381206 134.71357112 1114.421875 132.37109375 C1115.081875 132.37109375 1115.741875 132.37109375 1116.421875 132.37109375 C1115.55438801 130.05779511 1114.68355645 127.82036769 1113.43798828 125.68188477 C1110.27309288 120.15666724 1109.86682732 115.59604814 1110.046875 109.30859375 C1110.04816406 108.44943359 1110.04945312 107.59027344 1110.05078125 106.70507812 C1110.15864466 98.86101151 1111.4127497 92.66461015 1116.421875 86.37109375 C1123.93047921 79.11679165 1123.93047921 79.11679165 1127.421875 77.37109375 C1128.07657628 74.87132522 1128.63988333 72.39671075 1129.171875 69.87109375 C1132.30260357 56.62716321 1139.2303241 49.67394322 1150.421875 42.37109375 C1161.88495097 36.56733707 1179.04001402 36.56571758 1191.484375 39.37109375 C1201.34429852 42.65257536 1210.69033372 50.77378183 1216.421875 59.37109375 C1217.41077203 62.89403942 1218.32142812 66.22312939 1218.640625 69.87109375 C1219.08702586 73.9383016 1219.42457364 76.48116607 1222.5625 79.28125 C1224.31516687 80.43307748 1226.08671515 81.55663165 1227.875 82.65234375 C1233.05543131 86.14834034 1236.60861332 91.41904197 1238.421875 97.37109375 C1238.78331469 100.58214491 1238.84978456 103.76651393 1238.859375 106.99609375 C1238.86517578 108.33317383 1238.86517578 108.33317383 1238.87109375 109.69726562 C1238.76110809 115.98936213 1237.73457832 120.76935695 1234.515625 126.27734375 C1233.1131963 128.56828983 1233.1131963 128.56828983 1233.421875 132.37109375 C1234.81419219 133.49173929 1236.21088376 134.60737601 1237.62890625 135.6953125 C1244.236858 141.87137198 1248.12868463 150.3620108 1248.65234375 159.30859375 C1248.64842222 160.66283048 1248.63401709 162.01707555 1248.609375 163.37109375 C1248.60873047 164.04398438 1248.60808594 164.716875 1248.60742188 165.41015625 C1248.57814277 168.78050661 1248.32941042 171.85790729 1247.69921875 175.17578125 C1247.06660547 178.31209965 1247.06660547 178.31209965 1248.7578125 180.12890625 C1249.43070313 180.58007812 1250.10359375 181.03125 1250.796875 181.49609375 C1260.01663484 188.70456218 1266.61944494 200.7779522 1271.421875 211.37109375 C1271.421875 212.36109375 1271.421875 213.35109375 1271.421875 214.37109375 C1272.32204346 213.95335693 1273.22221191 213.53562012 1274.1496582 213.10522461 C1318.90944535 192.37109375 1318.90944535 192.37109375 1325.421875 192.37109375 C1325.421875 300.94109375 1325.421875 409.51109375 1325.421875 521.37109375 C850.221875 521.37109375 375.021875 521.37109375 -114.578125 521.37109375 C-114.578125 412.80109375 -114.578125 304.23109375 -114.578125 192.37109375 C-92.69781966 193.52268877 -92.69781966 193.52268877 -83.890625 194.2734375 C-82.89716064 194.35606339 -81.90369629 194.43868927 -80.88012695 194.52381897 C-78.81352197 194.69636425 -76.74703287 194.8703033 -74.68066406 195.0456543 C-71.58168332 195.30829218 -68.48229355 195.56560667 -65.3828125 195.82226562 C-55.85689529 196.61776254 -46.33702366 197.45768235 -36.828125 198.4375 C-36.04783936 198.51653061 -35.26755371 198.59556122 -34.46362305 198.67698669 C-31.06194219 199.03776598 -27.90638297 199.53902926 -24.578125 200.37109375 C-24.578125 192.78109375 -24.578125 185.19109375 -24.578125 177.37109375 C-27.548125 177.37109375 -30.518125 177.37109375 -33.578125 177.37109375 C-48.10101599 176.26200793 -62.33172665 174.24773846 -73.578125 164.37109375 C-74.45210937 163.65373047 -74.45210937 163.65373047 -75.34375 162.921875 C-83.07585355 156.00825989 -89.72064744 144.81326488 -90.578125 134.37109375 C-90.68060547 133.15679688 -90.68060547 133.15679688 -90.78515625 131.91796875 C-91.35270648 118.21268173 -84.07973447 107.7620372 -75.46875 97.75390625 C-72.54608321 94.07037992 -72.52875158 91.40015619 -72.69506836 86.82397461 C-72.9712985 78.44435639 -72.4785542 72.70583198 -66.75390625 66.34375 C-65.07533882 64.62432495 -63.36473715 62.97703726 -61.578125 61.37109375 C-62.8957414 57.92799946 -62.8957414 57.92799946 -64.6171875 54.6796875 C-67.14898199 48.5972056 -66.85379644 39.5496062 -64.41015625 33.4609375 C-61.77099548 29.39703699 -58.68917578 25.99759842 -54.578125 23.37109375 C-53.918125 23.37109375 -53.258125 23.37109375 -52.578125 23.37109375 C-52.7328125 21.94796875 -52.7328125 21.94796875 -52.890625 20.49609375 C-52.85293365 14.28958524 -49.78230689 8.7925256 -45.67578125 4.28125 C-33.67266602 -6.61601201 -13.91507742 -8.79179892 0 0 Z " fill="#77C48D" transform="translate(114.578125,502.62890625)"/>
<path d="M0 0 C6.15446232 4.4538872 10.00347692 9.1277544 12.421875 16.37109375 C12.525 17.60859375 12.628125 18.84609375 12.734375 20.12109375 C13.67089047 24.5482578 15.81921678 25.39293232 19.41015625 27.875 C22.60465374 30.25071367 24.40435732 32.57620075 25.421875 36.37109375 C26.18805124 44.34108801 26.21773576 51.25385483 22.421875 58.37109375 C22.421875 62.90132372 22.76416649 63.18364274 25.734375 66.24609375 C29.69423146 70.34707717 32.20320891 74.05687767 32.75 79.84375 C32.72421875 81.02839844 32.6984375 82.21304688 32.671875 83.43359375 C32.65640625 84.62082031 32.6409375 85.80804687 32.625 87.03125 C32.44933252 89.9196287 32.08087373 92.55972015 31.421875 95.37109375 C32.00195312 95.61085938 32.58203125 95.850625 33.1796875 96.09765625 C41.90913445 101.05549546 47.37001915 113.21552619 50.421875 122.37109375 C50.99076537 130.26991775 50.64625547 137.11297416 47.421875 144.37109375 C46.92880859 145.56992187 46.92880859 145.56992187 46.42578125 146.79296875 C41.8062316 157.08705171 34.24318403 164.91099537 24.421875 170.37109375 C23.72578125 170.76039063 23.0296875 171.1496875 22.3125 171.55078125 C11.42409584 176.99498333 -0.7170357 176.59279635 -12.578125 176.37109375 C-12.578125 184.62109375 -12.578125 192.87109375 -12.578125 201.37109375 C-10.40855225 201.50306152 -8.23897949 201.6350293 -6.00366211 201.77099609 C1.76903458 202.27424247 9.49300644 203.07760092 17.23046875 203.97265625 C18.62563407 204.13167751 20.02082738 204.29045338 21.41604614 204.44900513 C25.12938187 204.87214671 28.84213665 205.30018092 32.55473709 205.72972107 C34.8776819 205.99820968 37.2007673 206.26544977 39.52389526 206.53234863 C78.87175018 211.05540161 118.21921572 215.70980664 157.421875 221.37109375 C157.60435791 220.52184326 157.78684082 219.67259277 157.97485352 218.79760742 C162.73486062 197.31135852 174.06155521 179.83469271 188.421875 163.37109375 C187.08382812 162.71753906 187.08382812 162.71753906 185.71875 162.05078125 C184.54828125 161.45523438 183.3778125 160.8596875 182.171875 160.24609375 C181.01171875 159.66601562 179.8515625 159.0859375 178.65625 158.48828125 C174.43861184 155.72746014 171.98659997 152.85588362 170.85546875 147.87890625 C170.86588904 141.52252983 172.02683338 137.08944878 176.421875 132.37109375 C182.91169002 127.1542372 188.26771927 124.88355527 196.625 124.9609375 C201.16197292 125.62627571 203.62254407 127.86196096 206.421875 131.37109375 C208.78590226 135.18404094 209.421875 136.8446397 209.421875 141.37109375 C210.25847656 140.86320313 211.09507812 140.3553125 211.95703125 139.83203125 C234.13471069 126.62013942 260.31299119 118.47478625 286.234375 124.62109375 C287.97815385 125.15917408 289.71004275 125.73869712 291.421875 126.37109375 C292.19015625 126.64953125 292.9584375 126.92796875 293.75 127.21484375 C301.5832882 130.39198162 308.73706754 135.24451647 315.421875 140.37109375 C315.339375 139.38109375 315.256875 138.39109375 315.171875 137.37109375 C315.19067481 132.73694171 316.75430525 129.12363835 319.421875 125.37109375 C323.32276886 122.26630068 326.61591299 120.73965743 331.484375 119.74609375 C339.18172664 120.9678956 344.41846859 127.82681732 348.984375 133.80859375 C352.48096583 138.7117452 353.12370797 142.35974182 352.421875 148.37109375 C349.9083098 153.71241979 345.57997468 157.57290896 340.421875 160.37109375 C337.77061861 161.16722889 335.12835529 161.77091193 332.421875 162.37109375 C333.11152344 163.14710938 333.80117188 163.923125 334.51171875 164.72265625 C351.80151571 184.47269817 366.86250657 208.30995367 365.59667969 235.39990234 C364.83503609 243.98860398 360.40462146 251.35428991 354.421875 257.37109375 C342.14561041 267.37109375 342.14561041 267.37109375 335.421875 267.37109375 C335.421875 268.03109375 335.421875 268.69109375 335.421875 269.37109375 C336.12957031 269.46390625 336.83726562 269.55671875 337.56640625 269.65234375 C350.65414508 272.94665831 362.65977716 286.24518877 369.421875 297.37109375 C375.91594556 308.46597919 377.55586311 321.83514131 374.421875 334.37109375 C374.091875 335.36109375 373.761875 336.35109375 373.421875 337.37109375 C374.411875 337.70109375 375.401875 338.03109375 376.421875 338.37109375 C375.53435547 338.62632812 375.53435547 338.62632812 374.62890625 338.88671875 C373.83871094 339.1290625 373.04851562 339.37140625 372.234375 339.62109375 C371.45707031 339.853125 370.67976563 340.08515625 369.87890625 340.32421875 C364.18079358 342.75203146 360.88582771 347.01482661 357.546875 352.05859375 C356.90214233 353.02587402 356.90214233 353.02587402 356.24438477 354.01269531 C350.9958482 362.18903353 347.48586011 371.17913842 344.421875 380.37109375 C341.85895041 381.96249111 339.35049076 383.37722754 336.671875 384.74609375 C335.90053223 385.1445752 335.12918945 385.54305664 334.33447266 385.95361328 C322.99395672 391.71898223 312.00713411 395.35946392 299.421875 397.37109375 C298.16246094 397.57734375 296.90304687 397.78359375 295.60546875 397.99609375 C261.26472984 403.08266394 210.17806147 400.2085514 180.421875 380.37109375 C180.15625 377.60546875 180.15625 377.60546875 180.171875 374.12109375 C179.66642584 364.28505313 175.85861747 355.72004985 169.171875 348.37109375 C165.50654615 345.08062808 161.24332772 342.85968347 156.875 340.6328125 C153.17802737 338.73134409 151.1286025 337.54558598 149.734375 333.62109375 C147.75166693 327.31153837 148.21613903 320.90588953 148.421875 314.37109375 C147.16963135 314.54850098 147.16963135 314.54850098 145.89208984 314.72949219 C138.38444773 315.76440295 130.8744977 316.66991832 123.3359375 317.44921875 C0.17823466 329.04993871 0.17823466 329.04993871 -112.578125 375.37109375 C-113.238125 375.37109375 -113.898125 375.37109375 -114.578125 375.37109375 C-114.578125 314.98109375 -114.578125 254.59109375 -114.578125 192.37109375 C-92.69781966 193.52268877 -92.69781966 193.52268877 -83.890625 194.2734375 C-82.89716064 194.35606339 -81.90369629 194.43868927 -80.88012695 194.52381897 C-78.81352197 194.69636425 -76.74703287 194.8703033 -74.68066406 195.0456543 C-71.58168332 195.30829218 -68.48229355 195.56560667 -65.3828125 195.82226562 C-55.85689529 196.61776254 -46.33702366 197.45768235 -36.828125 198.4375 C-36.04783936 198.51653061 -35.26755371 198.59556122 -34.46362305 198.67698669 C-31.06194219 199.03776598 -27.90638297 199.53902926 -24.578125 200.37109375 C-24.578125 192.78109375 -24.578125 185.19109375 -24.578125 177.37109375 C-27.548125 177.37109375 -30.518125 177.37109375 -33.578125 177.37109375 C-48.10101599 176.26200793 -62.33172665 174.24773846 -73.578125 164.37109375 C-74.45210937 163.65373047 -74.45210937 163.65373047 -75.34375 162.921875 C-83.07585355 156.00825989 -89.72064744 144.81326488 -90.578125 134.37109375 C-90.68060547 133.15679688 -90.68060547 133.15679688 -90.78515625 131.91796875 C-91.35270648 118.21268173 -84.07973447 107.7620372 -75.46875 97.75390625 C-72.54608321 94.07037992 -72.52875158 91.40015619 -72.69506836 86.82397461 C-72.9712985 78.44435639 -72.4785542 72.70583198 -66.75390625 66.34375 C-65.07533882 64.62432495 -63.36473715 62.97703726 -61.578125 61.37109375 C-62.8957414 57.92799946 -62.8957414 57.92799946 -64.6171875 54.6796875 C-67.14898199 48.5972056 -66.85379644 39.5496062 -64.41015625 33.4609375 C-61.77099548 29.39703699 -58.68917578 25.99759842 -54.578125 23.37109375 C-53.918125 23.37109375 -53.258125 23.37109375 -52.578125 23.37109375 C-52.7328125 21.94796875 -52.7328125 21.94796875 -52.890625 20.49609375 C-52.85293365 14.28958524 -49.78230689 8.7925256 -45.67578125 4.28125 C-33.67266602 -6.61601201 -13.91507742 -8.79179892 0 0 Z " fill="#6CB991" transform="translate(114.578125,502.62890625)"/>
<path d="M0 0 C2.09512692 0.00532495 4.19003613 0.0000459 6.28515625 -0.00634766 C7.66015671 -0.00568608 9.03515703 -0.00440327 10.41015625 -0.00244141 C11.62541992 -0.00131348 12.84068359 -0.00018555 14.09277344 0.00097656 C19.8592592 0.17569858 25.61114216 0.68789886 31.36328125 1.13037109 C31.36328125 76.04037109 31.36328125 150.95037109 31.36328125 228.13037109 C18.38844093 234.61779125 3.56280215 232.47336854 -10.44921875 230.75537109 C-11.49319824 230.62936523 -12.53717773 230.50335938 -13.61279297 230.37353516 C-21.77307219 229.30153779 -21.77307219 229.30153779 -25.63671875 227.13037109 C-22.78064556 220.5265726 -16.1980865 218.27184636 -9.88171387 215.7668457 C-9.20660767 215.50266846 -8.53150146 215.23849121 -7.8359375 214.96630859 C-7.14222046 214.69197998 -6.44850342 214.41765137 -5.73376465 214.13500977 C-4.03584143 213.46402676 -2.33642899 212.79681432 -0.63671875 212.13037109 C-1.47623077 212.12228424 -2.3157428 212.11419739 -3.18069458 212.10586548 C-14.04115714 211.99956301 -24.90147262 211.88186845 -35.76171875 211.75537109 C-36.63507118 211.74520588 -37.50842361 211.73504066 -38.40824127 211.72456741 C-63.78563162 211.42566094 -89.1471527 210.9352436 -114.51171875 210.06787109 C-115.186334 210.04481148 -115.86094925 210.02175186 -116.55600739 209.99799347 C-124.58341896 209.72239891 -132.6103217 209.43406138 -140.63671875 209.13037109 C-139.97671875 210.12037109 -139.31671875 211.11037109 -138.63671875 212.13037109 C-138.57421875 215.06787109 -138.57421875 215.06787109 -139.63671875 218.13037109 C-158.29186761 233.23215826 -197.75084158 229.57727556 -220.3046875 229.45849609 C-222.93239736 229.45542188 -225.56010888 229.45355844 -228.18782043 229.45281982 C-233.63886343 229.44917865 -239.08977663 229.43448003 -244.54077148 229.41162109 C-251.44488488 229.38271921 -258.34889486 229.37238101 -265.25306225 229.367939 C-271.95778519 229.36346989 -278.66248038 229.34826259 -285.3671875 229.33349609 C-286.60068624 229.33161537 -287.83418499 229.32973465 -289.10506248 229.32779694 C-306.30196204 229.29389138 -323.45662249 228.89494757 -340.63671875 228.13037109 C-341.38902079 228.09690456 -342.14132282 228.06343803 -342.91642189 228.02895737 C-346.74750634 227.85456944 -350.5769674 227.65673143 -354.40625 227.44677734 C-355.52855011 227.38716324 -356.65085022 227.32754913 -357.80715942 227.26612854 C-361.35463323 227.07722043 -364.90193112 226.88524086 -368.44921875 226.69287109 C-372.25818578 226.48805977 -376.06717855 226.2837324 -379.87617493 226.07946777 C-382.38146952 225.9450638 -384.8867493 225.81038346 -387.39201355 225.67541504 C-393.98584199 225.32121044 -400.57993057 224.97973995 -407.17578125 224.66552734 C-428.51377424 223.63789965 -449.8251386 222.23055173 -471.13911819 220.79805756 C-473.60173035 220.63272018 -476.06439469 220.46817924 -478.52706909 220.30377197 C-494.64567442 219.22570567 -510.74906692 218.10075751 -526.83251953 216.57275391 C-533.92581606 215.90471687 -541.03205226 215.42044208 -548.13912964 214.92572021 C-563.90049525 213.82311795 -579.65092919 212.59504568 -595.39529419 211.27215576 C-597.51030715 211.09465767 -599.62544029 210.91858572 -601.74069214 210.74395752 C-604.69469772 210.49946595 -607.6481767 210.24941307 -610.6015625 209.99755859 C-611.4891626 209.9247467 -612.3767627 209.85193481 -613.29125977 209.7769165 C-619.40726838 209.24509628 -619.40726838 209.24509628 -621.63671875 208.13037109 C-621.63671875 207.47037109 -621.63671875 206.81037109 -621.63671875 206.13037109 C-615.59260587 203.06947074 -609.56629604 201.61288324 -602.92382812 200.62036133 C-602.09234505 200.49311645 -601.26086197 200.36587156 -600.40418243 200.23477077 C-591.58176033 198.91862836 -582.73237961 197.96249405 -573.85546875 197.10302734 C-573.00377609 197.01913317 -572.15208344 196.93523899 -571.27458191 196.84880257 C-553.08940553 195.06533873 -534.88398262 193.79439865 -516.64493942 192.71660995 C-514.07893307 192.56444437 -511.51310259 192.4095567 -508.94729614 192.25405884 C-484.25437876 190.76135597 -459.55425157 189.46663276 -434.83859253 188.41466141 C-432.62361071 188.31998235 -430.40872575 188.22326178 -428.19384766 188.12619019 C-407.9969559 187.24856402 -387.84990405 186.9726322 -367.63671875 187.13037109 C-367.66507813 186.20224609 -367.6934375 185.27412109 -367.72265625 184.31787109 C-367.60503338 179.95513201 -366.51460454 178.41938343 -363.63671875 175.13037109 C-351.27696147 165.2523941 -334.59488576 163.97910311 -319.3671875 163.96240234 C-317.75376213 163.95740974 -317.75376213 163.95740974 -316.10774231 163.95231628 C-313.8342837 163.94726998 -311.56081772 163.94490725 -309.28735352 163.94506836 C-305.8730789 163.94290209 -302.45913859 163.92477761 -299.04492188 163.90576172 C-267.55203957 163.82526415 -267.55203957 163.82526415 -257.63671875 167.13037109 C-258.13171875 166.28474609 -258.62671875 165.43912109 -259.13671875 164.56787109 C-260.86527973 160.60658551 -261.23711598 158.40820139 -260.63671875 154.13037109 C-252.59920786 139.12701744 -231.84854107 133.48937237 -216.67514038 128.73858643 C-210.56840607 126.91648575 -204.35259578 125.52275255 -198.13671875 124.13037109 C-197.00937317 123.87507629 -197.00937317 123.87507629 -195.85925293 123.61462402 C-170.04801356 117.79432303 -143.87973064 114.33963476 -117.63671875 111.13037109 C-117.66290283 110.19990967 -117.68908691 109.26944824 -117.71606445 108.31079102 C-118.38928655 80.7359547 -117.25831087 56.60477531 -98.21484375 34.74365234 C-72.86268738 9.04578475 -35.1156097 -0.10586803 0 0 Z " fill="#E6F6FC" transform="translate(1408.63671875,113.86962890625)"/>
<path d="M0 0 C0.76183594 0.37350586 1.52367187 0.74701172 2.30859375 1.13183594 C17.13243312 8.44030518 31.83284967 16.88740568 44.17578125 27.98828125 C46.76432974 29.42390022 48.17670646 28.7240478 51 28 C52.46532414 27.41783514 53.91153824 26.78552403 55.3359375 26.109375 C56.14482422 25.73200195 56.95371094 25.35462891 57.78710938 24.96582031 C59.06811523 24.36398926 59.06811523 24.36398926 60.375 23.75 C68.78058135 19.89921201 77.09197058 16.53252712 86 14 C86.75748535 13.78359863 87.5149707 13.56719727 88.29541016 13.34423828 C116.77736664 5.36837959 149.88424843 1.69397764 177 16 C190.66486625 24.13116008 200.15957986 34.66680357 207 49 C207 49.99 207 50.98 207 52 C207.99257813 51.60167969 208.98515625 51.20335937 210.0078125 50.79296875 C228.79783777 43.38709017 251.93640449 37.95539859 271.6875 45.125 C274.546875 46.52734375 274.546875 46.52734375 277 48 C278.15242187 48.65162109 278.15242187 48.65162109 279.328125 49.31640625 C286.16990363 53.76356236 290.37566128 60.79425667 292.375 68.625 C292.58125 69.73875 292.7875 70.8525 293 72 C293.8780127 71.93071289 294.75602539 71.86142578 295.66064453 71.79003906 C308.06399719 70.9053222 320.44303869 70.75697442 332.875 70.75 C333.95894043 70.74932526 335.04288086 70.74865051 336.15966797 70.74795532 C394.31679206 70.80541222 394.31679206 70.80541222 410.6953125 85.5234375 C412 87 412 87 412 89 C369.86711657 92.0653355 327.72988925 95.07063218 285.5625 97.625 C284.72698483 97.67563976 283.89146965 97.72627953 283.03063583 97.77845383 C250.47615683 99.7453348 217.90433511 101.30850468 185.32250977 102.74462891 C183.55448807 102.82308588 181.78646741 102.90156639 180.01844788 102.98007202 C176.75892331 103.12474469 173.499274 103.26583639 170.23948669 103.40444946 C163.31736661 103.7054355 156.4275356 104.09487751 149.53018188 104.77410889 C145.03672816 105.17527817 140.53453811 105.33151683 136.02734375 105.5 C134.48941162 105.56043236 134.48941162 105.56043236 132.92041016 105.62208557 C129.59289298 105.75142751 126.26522031 105.87600243 122.9375 106 C121.795159 106.04357635 120.65281799 106.08715271 119.4758606 106.13204956 C101.27259869 106.82491057 83.06941782 107.36483321 64.85594177 107.69665527 C63.98437943 107.7155481 63.11281708 107.73444092 62.21484375 107.75390625 C61.53627005 107.76810482 60.85769634 107.78230339 60.1585598 107.79693222 C55.72639198 107.90051381 51.31179376 108.08526465 46.88776112 108.36880779 C33.09688388 109.22895738 19.30063006 109.16410452 5.48828125 109.16796875 C4.13093739 109.16939792 2.7735937 109.1709951 1.41625023 109.17275429 C-5.70110109 109.18195289 -12.81843395 109.1860967 -19.93579102 109.18530273 C-26.46630966 109.18470555 -32.99674476 109.19520072 -39.52724236 109.2110464 C-45.21640506 109.22433553 -50.90554123 109.22947781 -56.59471923 109.22884732 C-59.95569085 109.2285982 -63.31653048 109.23210616 -66.67749596 109.24202538 C-151.94346212 109.47002119 -151.94346212 109.47002119 -166 97 C-166.375 94.4375 -166.375 94.4375 -166 92 C-165.34 91.34 -164.68 90.68 -164 90 C-165.29546249 90.00444122 -166.59092499 90.00888245 -167.92564392 90.01345825 C-180.1519466 90.05405417 -192.37823555 90.08400836 -204.60459042 90.10362434 C-210.88982395 90.11404821 -217.17500293 90.128182 -223.46020508 90.15087891 C-229.52914018 90.17265694 -235.59802292 90.18457913 -241.66699409 90.18975449 C-243.97895697 90.19344132 -246.29091709 90.20064076 -248.60285759 90.21146011 C-251.8485006 90.22604081 -255.09392896 90.22797517 -258.33959961 90.22705078 C-259.28906967 90.23424133 -260.23853973 90.24143188 -261.21678162 90.24884033 C-262.56056885 90.24471634 -262.56056885 90.24471634 -263.9315033 90.24050903 C-264.69751327 90.24235262 -265.46352324 90.24419621 -266.25274563 90.24609566 C-270.22353118 89.89039759 -274.10824948 88.86483345 -278 88 C-278 55.33 -278 22.66 -278 -11 C-243.90243902 -11 -243.90243902 -11 -232 -8 C-231.33742187 -7.8443457 -230.67484375 -7.68869141 -229.9921875 -7.52832031 C-212.19702016 -3.29097296 -195.48813402 4.87182285 -181 16 C-177.4957114 14.43617027 -174.75139426 12.31430244 -171.75 9.9375 C-154.3273304 -3.43370321 -134.03477092 -11.35563757 -112.75 -16.1875 C-112.01749023 -16.35459473 -111.28498047 -16.52168945 -110.53027344 -16.69384766 C-73.5985039 -24.75969296 -33.35962738 -16.69494964 0 0 Z " fill="#E6F6FC" transform="translate(278,133)"/>
<path d="M0 0 C6.86883078 4.80383418 13.22281005 11.4456201 17 19 C17.55008321 23.50887877 17.44871217 27.04648664 15.5 31.1875 C9.94183305 37.44043782 5.09692908 40.20444669 -3 42 C-2.31035156 42.77601563 -1.62070312 43.55203125 -0.91015625 44.3515625 C16.37964071 64.10160442 31.44063157 87.93885992 30.17480469 115.02880859 C29.41316109 123.61751023 24.98274646 130.98319616 19 137 C6.72373541 147 6.72373541 147 0 147 C0 147.66 0 148.32 0 149 C0.70769531 149.0928125 1.41539062 149.185625 2.14453125 149.28125 C15.23227008 152.57556456 27.23790216 165.87409502 34 177 C40.49407056 188.09488544 42.13398811 201.46404756 39 214 C38.67 214.99 38.34 215.98 38 217 C38.99 217.33 39.98 217.66 41 218 C40.40832031 218.17015625 39.81664062 218.3403125 39.20703125 218.515625 C38.41683594 218.75796875 37.62664062 219.0003125 36.8125 219.25 C36.03519531 219.48203125 35.25789062 219.7140625 34.45703125 219.953125 C28.75891858 222.38093771 25.46395271 226.64373286 22.125 231.6875 C21.69517822 232.33235352 21.26535645 232.97720703 20.82250977 233.64160156 C15.5739732 241.81793978 12.06398511 250.80804467 9 260 C6.43707541 261.59139736 3.92861576 263.00613379 1.25 264.375 C0.47865723 264.77348145 -0.29268555 265.17196289 -1.08740234 265.58251953 C-12.42791828 271.34788848 -23.41474089 274.98837017 -36 277 C-37.88912109 277.309375 -37.88912109 277.309375 -39.81640625 277.625 C-74.15714516 282.71157019 -125.24381353 279.83745765 -155 260 C-155.265625 257.234375 -155.265625 257.234375 -155.25 253.75 C-155.75544916 243.91395938 -159.56325753 235.3489561 -166.25 228 C-169.91532885 224.70953433 -174.17854728 222.48858972 -178.546875 220.26171875 C-182.39932392 218.28028403 -183.80876902 217.41079248 -185.6875 213.375 C-188.8805011 202.81092188 -187.6902134 192.01166438 -183.77734375 181.8671875 C-182.85578269 178.4680628 -183.05316168 176.3769012 -184 173 C-185.18452829 171.26379156 -185.18452829 171.26379156 -186.75 169.875 C-194.29260771 161.71444371 -196.36817235 150.58356148 -196.20703125 139.81640625 C-195.83462387 134.7502605 -194.93037768 130.28964241 -191.59375 126.33203125 C-187.31059287 122.72569376 -183.40280173 122.53934715 -177.94140625 122.82421875 C-177.30074219 122.88222656 -176.66007812 122.94023438 -176 123 C-176.32355469 122.16597656 -176.64710938 121.33195313 -176.98046875 120.47265625 C-181.72583352 104.30932569 -175.68710896 86.25539151 -168 72 C-161.91364141 61.68376517 -154.87054221 52.0232984 -147 43 C-147.89203125 42.56429687 -148.7840625 42.12859375 -149.703125 41.6796875 C-150.87359375 41.08414063 -152.0440625 40.48859375 -153.25 39.875 C-154.41015625 39.29492188 -155.5703125 38.71484375 -156.765625 38.1171875 C-160.98326316 35.35636639 -163.43527503 32.48478987 -164.56640625 27.5078125 C-164.55598596 21.15143608 -163.39504162 16.71835503 -159 12 C-152.51018498 6.78314345 -147.15415573 4.51246152 -138.796875 4.58984375 C-134.25990208 5.25518196 -131.79933093 7.49086721 -129 11 C-126.63597274 14.81294719 -126 16.47354595 -126 21 C-125.16339844 20.49210938 -124.32679688 19.98421875 -123.46484375 19.4609375 C-101.28716431 6.24904567 -75.10888381 -1.8963075 -49.1875 4.25 C-47.44372115 4.78808033 -45.71183225 5.36760337 -44 6 C-43.23171875 6.2784375 -42.4634375 6.556875 -41.671875 6.84375 C-33.8385868 10.02088787 -26.68480746 14.87342272 -20 20 C-20.0825 19.01 -20.165 18.02 -20.25 17 C-20.23120019 12.36584796 -18.66756975 8.7525446 -16 5 C-10.92112393 0.95762925 -6.50834277 -1.03307028 0 0 Z " fill="#C9AE81" transform="translate(450,623)"/>
<path d="M0 0 C6.61157172 5.99433342 10.41976888 11.36878724 11.21875 20.5 C11.66515086 24.56720785 12.00269864 27.11007232 15.140625 29.91015625 C16.89329187 31.06198373 18.66484015 32.1855379 20.453125 33.28125 C25.63355631 36.77724659 29.18673832 42.04794822 31 48 C31.36143969 51.21105116 31.42790956 54.39542018 31.4375 57.625 C31.44136719 58.51638672 31.44523437 59.40777344 31.44921875 60.32617188 C31.33923309 66.61826838 30.31270332 71.3982632 27.09375 76.90625 C25.6913213 79.19719608 25.6913213 79.19719608 26 83 C27.39231719 84.12064554 28.78900876 85.23628226 30.20703125 86.32421875 C36.814983 92.50027823 40.70680963 100.99091705 41.23046875 109.9375 C41.22654722 111.29173673 41.21214209 112.6459818 41.1875 114 C41.1865332 115.00933594 41.1865332 115.00933594 41.18554688 116.0390625 C41.15626777 119.40941286 40.90753542 122.48681354 40.27734375 125.8046875 C39.64473047 128.9410059 39.64473047 128.9410059 41.3359375 130.7578125 C42.00882813 131.20898438 42.68171875 131.66015625 43.375 132.125 C52.59475984 139.33346843 59.19756994 151.40685845 64 162 C64 162.99 64 163.98 64 165 C64.90016846 164.58226318 65.80033691 164.16452637 66.7277832 163.73413086 C111.48757035 143 111.48757035 143 118 143 C118 250.58 118 358.16 118 469 C117.67 469 117.34 469 117 469 C117 386.5 117 304 117 219 C111.72 218.67 106.44 218.34 101 218 C96.811559 217.67488147 92.62447854 217.34232322 88.4375 217 C76.30140115 216.03277284 64.16601421 215.43012927 52 215 C52 215.66 52 216.32 52 217 C50.625 218.625 50.625 218.625 49 220 C48.34 220 47.68 220 47 220 C46.79632812 220.556875 46.59265625 221.11375 46.3828125 221.6875 C44.47761488 224.8735932 41.80359382 226.81293191 38.875 229 C38.28388428 229.44424316 37.69276855 229.88848633 37.08374023 230.34619141 C32.90506401 233.43485282 28.90344533 236.19346751 24 238 C23.11441406 238.33386719 22.22882813 238.66773438 21.31640625 239.01171875 C7.29983509 243.62672198 -8.31179165 245 -23 245 C-22.67 269.75 -22.34 294.5 -22 320 C-26.47347505 321.78939002 -28.57340218 322.27292719 -33.1875 322.25 C-34.23292969 322.25515625 -35.27835938 322.2603125 -36.35546875 322.265625 C-39 322 -39 322 -41 320 C-41.24291992 317.62548828 -41.24291992 317.62548828 -41.23046875 314.5703125 C-41.22917969 313.40250244 -41.22789063 312.23469238 -41.2265625 311.03149414 C-41.21367188 309.74235107 -41.20078125 308.45320801 -41.1875 307.125 C-41.18057337 305.77791549 -41.17407371 304.43082872 -41.16796875 303.08374023 C-41.04707119 283.71970337 -40.50094887 264.35714384 -40 245 C-40.72340576 245.01450195 -41.44681152 245.02900391 -42.19213867 245.04394531 C-64.74130989 245.29761216 -90.45403228 243.31016823 -107.8046875 227.43359375 C-110 225 -110 225 -111 222 C-112.3310887 221.32886284 -113.66472306 220.6627652 -115 220 C-116.703125 218.125 -116.703125 218.125 -118.25 216 C-118.77078125 215.29875 -119.2915625 214.5975 -119.828125 213.875 C-121 212 -121 212 -121 210 C-121.66 210 -122.32 210 -123 210 C-124.32975894 207.36168556 -125.63853721 204.71593681 -126.9375 202.0625 C-127.31068359 201.32708984 -127.68386719 200.59167969 -128.06835938 199.83398438 C-130.64421695 194.51982775 -131.72939961 189.88471069 -132 184 C-132.06703125 182.81535156 -132.1340625 181.63070312 -132.203125 180.41015625 C-132.4483891 162.8942121 -124.72208345 147.81406461 -113 135 C-112.48026611 134.59813477 -111.96053223 134.19626953 -111.42504883 133.78222656 C-108.73405951 131.57508605 -107.17604218 130.07572965 -106.60058594 126.55932617 C-106.58922626 123.64634448 -106.73594647 120.78088624 -106.9375 117.875 C-107.27182544 108.61345859 -106.89988673 102.08199708 -102 94 C-101.34 92.865625 -100.68 91.73125 -100 90.5625 C-97.83922208 87.79400329 -95.61806294 85.34247737 -93 83 C-92.34 83 -91.68 83 -91 83 C-91.86748699 80.68670136 -92.73831855 78.44927394 -93.98388672 76.31079102 C-97.14878212 70.78557349 -97.55504768 66.22495439 -97.375 59.9375 C-97.37371094 59.07833984 -97.37242188 58.21917969 -97.37109375 57.33398438 C-97.26323034 49.48991776 -96.0091253 43.2935164 -91 37 C-83.49139579 29.7456979 -83.49139579 29.7456979 -80 28 C-79.34529872 25.50023147 -78.78199167 23.025617 -78.25 20.5 C-75.11927143 7.25606946 -68.1915509 0.30284947 -57 -7 C-39.10726131 -16.05909565 -14.87895508 -12.57214034 0 0 Z " fill="#6C9C5B" transform="translate(1322,552)"/>
<path d="M0 0 C6.15446232 4.4538872 10.00347692 9.1277544 12.421875 16.37109375 C12.525 17.60859375 12.628125 18.84609375 12.734375 20.12109375 C13.67089047 24.5482578 15.81921678 25.39293232 19.41015625 27.875 C22.60465374 30.25071367 24.40435732 32.57620075 25.421875 36.37109375 C26.18805124 44.34108801 26.21773576 51.25385483 22.421875 58.37109375 C22.421875 62.90132372 22.76416649 63.18364274 25.734375 66.24609375 C29.69423146 70.34707717 32.20320891 74.05687767 32.75 79.84375 C32.72421875 81.02839844 32.6984375 82.21304688 32.671875 83.43359375 C32.65640625 84.62082031 32.6409375 85.80804687 32.625 87.03125 C32.44933252 89.9196287 32.08087373 92.55972015 31.421875 95.37109375 C32.00195312 95.61085938 32.58203125 95.850625 33.1796875 96.09765625 C41.90913445 101.05549546 47.37001915 113.21552619 50.421875 122.37109375 C50.99076537 130.26991775 50.64625547 137.11297416 47.421875 144.37109375 C46.92880859 145.56992187 46.92880859 145.56992187 46.42578125 146.79296875 C41.8062316 157.08705171 34.24318403 164.91099537 24.421875 170.37109375 C23.72578125 170.76039063 23.0296875 171.1496875 22.3125 171.55078125 C11.33483969 177.03961141 -0.50807258 176.37109375 -12.578125 176.37109375 C-12.578125 194.52109375 -12.578125 212.67109375 -12.578125 231.37109375 C-16.50108933 232.67874853 -19.43814933 232.56823545 -23.578125 232.37109375 C-25.578125 230.37109375 -25.578125 230.37109375 -25.82104492 227.75512695 C-25.81693604 226.65515381 -25.81282715 225.55518066 -25.80859375 224.421875 C-25.80730469 223.19098145 -25.80601563 221.96008789 -25.8046875 220.69189453 C-25.79218785 219.35578929 -25.7791563 218.01968894 -25.765625 216.68359375 C-25.75876702 215.32926604 -25.75225883 213.97493651 -25.74609375 212.62060547 C-25.66998754 200.85721035 -25.22424538 189.11663927 -24.578125 177.37109375 C-26.48464844 177.40976562 -26.48464844 177.40976562 -28.4296875 177.44921875 C-44.26700672 177.43683133 -61.3743534 175.08850856 -73.578125 164.37109375 C-74.16078125 163.89285156 -74.7434375 163.41460938 -75.34375 162.921875 C-83.07585355 156.00825989 -89.72064744 144.81326488 -90.578125 134.37109375 C-90.64644531 133.5615625 -90.71476562 132.75203125 -90.78515625 131.91796875 C-91.35270648 118.21268173 -84.07973447 107.7620372 -75.46875 97.75390625 C-72.54608321 94.07037992 -72.52875158 91.40015619 -72.69506836 86.82397461 C-72.9712985 78.44435639 -72.4785542 72.70583198 -66.75390625 66.34375 C-65.07533882 64.62432495 -63.36473715 62.97703726 -61.578125 61.37109375 C-62.8957414 57.92799946 -62.8957414 57.92799946 -64.6171875 54.6796875 C-67.14898199 48.5972056 -66.85379644 39.5496062 -64.41015625 33.4609375 C-61.77099548 29.39703699 -58.68917578 25.99759842 -54.578125 23.37109375 C-53.918125 23.37109375 -53.258125 23.37109375 -52.578125 23.37109375 C-52.7328125 21.94796875 -52.7328125 21.94796875 -52.890625 20.49609375 C-52.85293365 14.28958524 -49.78230689 8.7925256 -45.67578125 4.28125 C-33.67266602 -6.61601201 -13.91507742 -8.79179892 0 0 Z " fill="#6C9C5B" transform="translate(114.578125,502.62890625)"/>
<path d="M0 0 C0.70223505 0.1019527 1.4044701 0.20390539 2.127985 0.30894756 C4.37239171 0.64292181 6.61055486 1.00522465 8.84912109 1.3762207 C9.55695488 1.49172398 10.26478867 1.60722725 10.99407196 1.72623062 C16.19254681 2.58354415 21.37645708 3.51580741 26.56005859 4.45825195 C28.223625 4.75762501 29.88725156 5.05666399 31.55093384 5.35539246 C35.0188043 5.97896583 38.48616256 6.60528484 41.953125 7.23388672 C46.31325401 8.02438969 50.6742622 8.80990066 55.03561878 9.59359932 C73.45284799 12.90382337 91.85317152 16.2814003 110.2192688 19.86605835 C113.74545759 20.5501001 117.27482844 21.21682279 120.80435181 21.88340759 C142.95677455 26.07054868 165.03551541 30.6215882 187.09912109 35.2512207 C187.74862354 35.38745598 188.39812599 35.52369125 189.06731033 35.66405487 C243.23871544 47.02896547 297.4209133 58.47377112 351.11474609 71.94262695 C353.5502638 72.55065395 355.98581054 73.15856467 358.42138672 73.76635742 C363.09610506 74.93330224 367.76577097 76.1181136 372.43310547 77.31420898 C374.56642752 77.84976639 376.69988449 78.38478675 378.83349609 78.91918945 C379.78661682 79.1685878 380.73973755 79.41798615 381.72174072 79.67494202 C391.49282994 82.09177739 400.35302094 81.84040854 410.12255859 79.63793945 C411.86928655 79.26702017 413.61637199 78.89778127 415.36376953 78.5300293 C416.26204468 78.33874451 417.16031982 78.14745972 418.08581543 77.95037842 C422.73555139 76.98425954 427.40457742 76.12651293 432.07568359 75.27075195 C433.01224792 75.0989743 433.94881226 74.92719666 434.91375732 74.75021362 C436.81148955 74.40309727 438.70937823 74.05683523 440.60742188 73.71142578 C443.50776939 73.18258538 446.40694697 72.64761096 449.30615234 72.11254883 C451.18759472 71.76907697 453.06910279 71.42596469 454.95068359 71.08325195 C455.79877594 70.92597122 456.64686829 70.76869049 457.5206604 70.60664368 C463.27808247 69.56768872 469.02090677 68.87915643 474.84912109 68.3762207 C472.46777708 70.75756472 470.99447421 71.04488951 467.75927734 71.8996582 C466.68170166 72.19300049 465.60412598 72.48634277 464.49389648 72.78857422 C463.31174561 73.10624756 462.12959473 73.4239209 460.91162109 73.7512207 C452.38050838 76.08410898 443.98422531 78.60653327 435.66162109 81.60668945 C434.89152206 81.88204529 434.12142303 82.15740112 433.32798767 82.44110107 C429.54578611 83.79685689 425.77662335 85.17912304 422.01928711 86.60229492 C420.61005764 87.11255964 419.2004855 87.62187922 417.79052734 88.13012695 C416.57051025 88.58718018 415.35049316 89.0442334 414.09350586 89.51513672 C408.3982542 91.05625259 402.62268833 90.06124966 396.84912109 89.3762207 C395.77553848 89.24893082 394.70195587 89.12164093 393.59584045 88.99049377 C390.17138892 88.56007518 386.75263226 88.0969528 383.33349609 87.6262207 C381.34908941 87.35908368 379.36467948 87.09196996 377.38016129 86.82566261 C375.97824036 86.63745515 374.57637292 86.44884888 373.17455673 86.2598629 C293.55322891 75.52724915 213.57050087 67.1618942 9.84912109 55.3762207 C9.39384033 54.43375488 8.93855957 53.49128906 8.46948242 52.52026367 C7.8528405 51.26116418 7.23588007 50.00222063 6.61865234 48.7434082 C6.32091919 48.1248999 6.02318604 47.5063916 5.71643066 46.86914062 C-1.0924446 33.05152984 -12.72170785 23.49737746 -26.15087891 16.3762207 C-27.14087891 16.0462207 -28.13087891 15.7162207 -29.15087891 15.3762207 C-29.15087891 14.7162207 -29.15087891 14.0562207 -29.15087891 13.3762207 C-28.23306641 12.95211914 -27.31525391 12.52801758 -26.36962891 12.09106445 C-25.12870454 11.50143059 -23.8892165 10.90876808 -22.65087891 10.3137207 C-22.00231934 10.00442627 -21.35375977 9.69513184 -20.68554688 9.37646484 C-16.82104698 7.45486624 -14.15515346 5.5968754 -11.27587891 2.3137207 C-7.54497842 -1.21651382 -4.93257417 -0.74102365 0 0 Z " fill="#6CB991" transform="translate(479.15087890625,756.623779296875)"/>
<path d="M0 0 C8.84093699 6.1594516 15.85938541 14.97224494 17.99609375 25.81445312 C18.51530975 29.80931652 18.64437373 33.78824445 18.6015625 37.8125 C59.50880945 55.3700352 114.82433552 65.26303376 157.53125 48.67675781 C164.06865027 45.94770157 170.43930699 42.84571675 176.77075195 39.67285156 C178.6015625 38.8125 178.6015625 38.8125 181.6015625 37.8125 C181.8284375 36.636875 182.0553125 35.46125 182.2890625 34.25 C184.79512003 21.34996615 193.90653123 5.12013938 204.6640625 -2.4375 C208.84626088 -4.65747409 211.9211817 -4.86691012 216.6015625 -4.1875 C221.6540265 -1.661268 225.34748057 2.24406576 228.6015625 6.8125 C230.91520277 13.75342082 231.12008689 24.79283544 227.9765625 31.5625 C224.80924571 36.55410173 220.32231694 40.15649214 214.6015625 41.8125 C213.2815625 41.8125 211.9615625 41.8125 210.6015625 41.8125 C210.5396875 42.534375 210.4778125 43.25625 210.4140625 44 C209.10805864 48.52078258 206.41627659 50.75391678 202.3984375 53.09765625 C199.83093496 54.4177401 197.23520798 55.63028581 194.6015625 56.8125 C193.88613281 57.15152344 193.17070312 57.49054687 192.43359375 57.83984375 C155.0708372 74.30590814 107.56261345 72.85401053 67.6015625 69.8125 C66.28929687 69.72484375 64.97703125 69.6371875 63.625 69.546875 C43.27399989 67.89899082 21.87809026 63.61879758 2.4765625 57.25 C1.29066528 56.86581909 1.29066528 56.86581909 0.08081055 56.47387695 C-6.19750371 54.25594579 -13.46482023 51.06097701 -16.9609375 45.1875 C-18.60284276 42.47478697 -19.38663744 42.21572315 -22.2109375 41 C-28.75746666 37.98499299 -31.87186231 32.38143635 -34.7734375 26 C-36.96653631 20.01044441 -37.63528206 13.91727787 -35.7734375 7.73828125 C-32.8664503 1.75559777 -27.33689385 -0.8460308 -21.5234375 -3.5 C-13.15916356 -5.34014027 -7.37908821 -4.48981142 0 0 Z " fill="#67A177" transform="translate(277.3984375,845.1875)"/>
<path d="M0 0 C3.97416377 1.54945076 4.96814754 4.71394504 6.625 8.3984375 C6.9653125 9.11708984 7.305625 9.83574219 7.65625 10.57617188 C8.6646543 12.71712116 9.64733279 14.8683101 10.625 17.0234375 C11.429375 18.75980469 11.429375 18.75980469 12.25 20.53125 C13.39402308 23.02080023 14.52016421 25.51631013 15.625 28.0234375 C15.66367188 26.34314453 15.66367188 26.34314453 15.703125 24.62890625 C15.75940635 23.15621104 15.81675368 21.6835563 15.875 20.2109375 C15.88917969 19.47294922 15.90335938 18.73496094 15.91796875 17.97460938 C16.16396882 12.53800778 16.16396882 12.53800778 18.44140625 9.99609375 C21.71256284 8.53899538 24.20898739 9.25000068 27.625 10.0234375 C28.625 11.0234375 28.625 11.0234375 28.74525452 13.34559631 C28.74303391 14.37373947 28.74081329 15.40188263 28.73852539 16.46118164 C28.73844986 17.62230972 28.73837433 18.78343781 28.73829651 19.97975159 C28.73313522 21.2432695 28.72797394 22.50678741 28.72265625 23.80859375 C28.7212413 25.09454941 28.71982635 26.38050507 28.71836853 27.70542908 C28.71454418 31.12987193 28.70471462 34.55427259 28.69366455 37.97869873 C28.68344864 41.47081939 28.67887053 44.96294684 28.67382812 48.45507812 C28.66309227 55.31121528 28.64601684 62.16732437 28.625 69.0234375 C29.285 69.0234375 29.945 69.0234375 30.625 69.0234375 C30.686875 68.4871875 30.74875 67.9509375 30.8125 67.3984375 C32.02535264 63.85317593 34.07110926 61.7641983 36.625 59.0234375 C37.285 59.0234375 37.945 59.0234375 38.625 59.0234375 C38.66109375 58.36214844 38.6971875 57.70085938 38.734375 57.01953125 C40.06125279 52.55586781 42.89411442 49.59842521 45.875 46.0859375 C46.44863281 45.39564453 47.02226563 44.70535156 47.61328125 43.99414062 C49.27554752 41.99677056 50.94935877 40.00958904 52.625 38.0234375 C53.59988336 36.85624074 54.57394212 35.68835435 55.546875 34.51953125 C56.23265625 33.69582031 56.9184375 32.87210938 57.625 32.0234375 C62.5 32.8984375 62.5 32.8984375 63.625 34.0234375 C63.30735166 39.52934202 62.06456498 41.86410078 58.625 46.0234375 C56.82372745 48.59370283 55.10082569 51.21458889 53.375 53.8359375 C52.91609375 54.52880859 52.4571875 55.22167969 51.984375 55.93554688 C50.86245975 57.63010637 49.74343328 59.32657784 48.625 61.0234375 C49.59179688 60.806875 50.55859375 60.5903125 51.5546875 60.3671875 C70.22343147 56.32265323 70.22343147 56.32265323 75.625 59.0234375 C75.66741723 61.35638525 75.66592937 63.69046317 75.625 66.0234375 C73.78739807 67.86103943 70.84014618 67.61067919 68.359375 67.92578125 C67.07675781 68.09400391 65.79414062 68.26222656 64.47265625 68.43554688 C62.42785079 68.69880027 60.38280724 68.9599506 58.33740234 69.21850586 C56.36483228 69.4694428 54.39333596 69.72877463 52.421875 69.98828125 C51.23948242 70.139021 50.05708984 70.28976074 48.83886719 70.44506836 C43.40323415 71.36914336 43.40323415 71.36914336 39.24707031 74.70336914 C38.90256836 75.35684326 38.55806641 76.01031738 38.203125 76.68359375 C37.81769531 77.39451172 37.43226562 78.10542969 37.03515625 78.83789062 C36.65230469 79.57974609 36.26945312 80.32160156 35.875 81.0859375 C35.08950989 82.55650716 34.30309971 84.02658587 33.515625 85.49609375 C33.00563965 86.47461304 33.00563965 86.47461304 32.48535156 87.47290039 C31.625 89.0234375 31.625 89.0234375 30.625 90.0234375 C30.52288935 91.82341462 30.49415872 93.62754989 30.4921875 95.43041992 C30.49017334 96.63451004 30.48815918 97.83860016 30.48608398 99.07917786 C30.49022374 100.44992225 30.4948839 101.82066515 30.5 103.19140625 C30.50121857 103.89989401 30.50243713 104.60838177 30.50369263 105.33833885 C30.5483965 128.13756575 31.0904079 150.93383355 31.55212402 173.72747803 C31.74540446 183.29777351 31.93324467 192.8681768 32.12063599 202.4385891 C32.18587761 205.74206993 32.2528365 209.04551239 32.32006836 212.34895325 C32.70534432 231.5717418 32.70534432 231.5717418 32.625 241.0234375 C28.68944152 242.69899289 25.73668686 243.29479992 21.4375 243.2734375 C20.39207031 243.27859375 19.34664062 243.28375 18.26953125 243.2890625 C15.625 243.0234375 15.625 243.0234375 13.625 241.0234375 C13.38208008 238.14111328 13.38208008 238.14111328 13.39453125 234.46875 C13.39498947 233.81196259 13.39544769 233.15517517 13.3959198 232.47848511 C13.39894553 231.08134161 13.40684142 229.68420158 13.41918945 228.28710938 C13.43713321 226.19127851 13.4397011 224.09589869 13.43945312 222 C13.45507899 216.12099935 13.53811982 210.27914421 14.1015625 204.421875 C15.49104674 189.61818759 15.2207041 174.6024536 15.46549988 159.74536133 C15.55237158 154.57362858 15.66398796 149.4048786 15.83398438 144.23521423 C16.71909499 123.36747545 16.71909499 123.36747545 7.25390625 105.37109375 C1.17790635 99.94512653 -5.83149123 96.00940972 -13.375 93.0234375 C-14.365 92.3634375 -15.355 91.7034375 -16.375 91.0234375 C-16.375 90.3634375 -16.375 89.7034375 -16.375 89.0234375 C-17.695 89.0234375 -19.015 89.0234375 -20.375 89.0234375 C-20.5 86.1484375 -20.5 86.1484375 -20.375 83.0234375 C-19.385 82.0334375 -19.385 82.0334375 -18.375 81.0234375 C-13.11432705 81.0234375 -9.75064562 83.5234251 -5.62109375 86.453125 C-3.26856288 88.09785093 -0.84977148 89.57075969 1.625 91.0234375 C0.79511718 89.36367186 -0.0348583 87.70395251 -0.86523438 86.04443359 C-1.58554452 84.60282927 -2.30427184 83.16043308 -3.02148438 81.71728516 C-4.80029312 78.14319722 -6.59649186 74.58290567 -8.46484375 71.0546875 C-8.78702881 70.4373877 -9.10921387 69.82008789 -9.44116211 69.18408203 C-10.32795271 67.4883993 -11.22616462 65.79870399 -12.125 64.109375 C-13.46123203 60.81055218 -13.70567725 58.5472169 -13.375 55.0234375 C-12.375 54.0234375 -12.375 54.0234375 -9.984375 53.7421875 C-7.375 54.0234375 -7.375 54.0234375 -5.890625 55.4296875 C-5.47296875 56.120625 -5.0553125 56.8115625 -4.625 57.5234375 C-4.12484375 58.33941406 -3.6246875 59.15539062 -3.109375 59.99609375 C-0.22893448 65.02388971 2.62821919 70.0631375 5.44140625 75.12890625 C7.67938854 79.14597242 10.02858011 83.08853101 12.43359375 87.0078125 C13.59600316 88.97438056 14.6138448 90.97605494 15.625 93.0234375 C17.3348703 62.00905716 17.3348703 62.00905716 6.88476562 33.27832031 C5.21328707 30.28650327 3.85889902 27.19230032 2.51074219 24.04443359 C1.64946894 21.99461156 1.64946894 21.99461156 0.51269531 20.01416016 C-0.375 18.0234375 -0.375 18.0234375 -0.375 14.0234375 C-1.035 14.0234375 -1.695 14.0234375 -2.375 14.0234375 C-5.44017632 7.04453322 -5.44017632 7.04453322 -5.1875 3.0859375 C-4.04051969 0.17437209 -3.05750889 0.03017279 0 0 Z " fill="#744529" transform="translate(1267.375,630.9765625)"/>
<path d="M0 0 C0 107.58 0 215.16 0 326 C-0.33 326 -0.66 326 -1 326 C-1 243.5 -1 161 -1 76 C-6.28 75.67 -11.56 75.34 -17 75 C-21.20929372 74.67503643 -25.4172091 74.34271901 -29.625 74 C-41.40841115 73.06309801 -53.18883992 72.44972353 -65 72 C-57 56 -57 56 -55.94824219 53.9465332 C-52.67756277 47.23254583 -52.75097281 40.89441509 -52.875 33.5625 C-52.88853516 32.03592773 -52.88853516 32.03592773 -52.90234375 30.47851562 C-52.92575302 27.98542844 -52.958543 25.49284141 -53 23 C-53.66 23 -54.32 23 -55 23 C-55.33 21.02 -55.66 19.04 -56 17 C-54 19 -54 19 -54 22 C-53.09983154 21.58226318 -52.19966309 21.16452637 -51.2722168 20.73413086 C-6.51242965 0 -6.51242965 0 0 0 Z " fill="#5BB574" transform="translate(1440,695)"/>
<path d="M0 0 C10.66499387 5.73631709 20.1074919 21.7922287 23.62109375 33.03125 C24.97913744 40.16097936 24.74971303 47.73958609 21.01171875 54.08203125 C15.65174581 61.64715823 6.52091098 66.06734387 -2.4453125 67.71875 C-15.28557865 69.03533738 -24.62424338 68.44597311 -35.14453125 60.44140625 C-40.25230098 55.80978454 -43.35541659 50.3620232 -44.3671875 43.51953125 C-45.05418062 28.27271624 -36.83268145 13.29591454 -26.98828125 2.08203125 C-19.46419755 -3.88593514 -8.59044687 -3.37757247 0 0 Z " fill="#936C2C" transform="translate(382.98828125,693.91796875)"/>
<path d="M0 0 C1.90625 0.15625 1.90625 0.15625 4 1 C5.34375 2.96875 5.34375 2.96875 6.5 5.5 C6.91636719 6.39460937 7.33273438 7.28921875 7.76171875 8.2109375 C8.17035156 9.13132812 8.57898438 10.05171875 9 11 C9.39832031 11.87914062 9.79664062 12.75828125 10.20703125 13.6640625 C11.15299603 15.76992048 12.08383377 17.88104571 13 20 C13.03738281 19.24074219 13.07476562 18.48148438 13.11328125 17.69921875 C13.17902344 16.70535156 13.24476562 15.71148438 13.3125 14.6875 C13.37050781 13.70136719 13.42851563 12.71523438 13.48828125 11.69921875 C14.04897865 8.74164695 14.54960546 7.70641933 17 6 C21.42105263 6.42105263 21.42105263 6.42105263 23 8 C23.16023562 10.88252645 23.25954029 13.74378527 23.31640625 16.62890625 C23.33718735 17.49313705 23.35796844 18.35736786 23.37937927 19.24778748 C23.44497114 22.01927445 23.50380418 24.79085921 23.5625 27.5625 C23.60567608 29.43685923 23.64929006 31.31120843 23.69335938 33.18554688 C23.80066227 37.79026336 23.90190215 42.39507858 24 47 C24.67546875 46.12174561 25.3509375 45.24349121 26.046875 44.33862305 C26.94791503 43.16715369 27.84895679 41.99568566 28.75 40.82421875 C29.1934375 40.24764526 29.636875 39.67107178 30.09375 39.07702637 C40.65976742 25.34023258 40.65976742 25.34023258 43 23 C45.625 23.375 45.625 23.375 48 24 C47.47320171 28.51894158 45.73721825 31.10467683 43 34.6875 C40.26374092 38.19686161 40.26374092 38.19686161 38 42 C39.13179687 41.90460937 40.26359375 41.80921875 41.4296875 41.7109375 C42.91141612 41.59840115 44.39318945 41.48645242 45.875 41.375 C46.62136719 41.31054688 47.36773437 41.24609375 48.13671875 41.1796875 C50.0870047 41.03912635 52.04469467 41.01240151 54 41 C54.66 41.66 55.32 42.32 56 43 C55.46428571 46.53571429 55.46428571 46.53571429 54 48 C52.63727537 48.28333695 51.26337581 48.51353404 49.88671875 48.71875 C49.05076172 48.84636719 48.21480469 48.97398437 47.35351562 49.10546875 C46.47373047 49.23566406 45.59394531 49.36585938 44.6875 49.5 C42.96199069 49.75876235 41.23672027 50.01912391 39.51171875 50.28125 C38.35869263 50.45237305 38.35869263 50.45237305 37.18237305 50.62695312 C32.61634678 51.29422587 32.61634678 51.29422587 29.078125 54.0546875 C25.0901316 60.20710467 23.51312843 64.81033877 23.765625 72.14453125 C23.77936157 72.95242599 23.79309814 73.76032074 23.80725098 74.59269714 C23.83971423 76.40129646 23.87976267 78.20977058 23.92614746 80.01806641 C24.00514899 83.20790016 24.05813672 86.39744829 24.10644531 89.58789062 C24.20108291 95.7065906 24.31219687 101.82486553 24.42752075 107.94320679 C24.82751928 129.29706531 25.18647025 150.64198476 25 172 C21.07703567 173.30765478 18.13997567 173.1971417 14 173 C12 171 12 171 11.75708008 168.25708008 C11.76324341 166.53074341 11.76324341 166.53074341 11.76953125 164.76953125 C11.77146484 163.49013672 11.77339844 162.21074219 11.77539062 160.89257812 C11.78159424 160.2204126 11.78779785 159.54824707 11.79418945 158.85571289 C11.81202534 156.86546559 11.8134634 154.8750926 11.81445312 152.88476562 C11.84304978 146.49500201 12.0178695 140.15297945 12.48828125 133.77734375 C13.09991196 125.31488109 13.29153792 116.86606131 13.35009766 108.3828125 C13.36676822 106.62030943 13.39420132 104.85787691 13.43212891 103.09570312 C13.92035166 88.28687084 13.92035166 88.28687084 8 75 C5.30855497 72.48219857 5.30855497 72.48219857 2.1875 71.125 C1.14464844 70.58359375 0.10179688 70.0421875 -0.97265625 69.484375 C-1.97167969 68.99453125 -2.97070312 68.5046875 -4 68 C-9.86364262 64.88466011 -9.86364262 64.88466011 -12 63 C-12.5 60.1875 -12.5 60.1875 -12 58 C-5.83543922 58.38528505 -2.01372252 60.47086025 3 64 C1.73167312 61.43623236 0.46043635 58.87397788 -0.8125 56.3125 C-1.34713867 55.2306543 -1.34713867 55.2306543 -1.89257812 54.12695312 C-3.42799206 51.0420389 -4.96453308 48.05724486 -6.78125 45.125 C-8 43 -8 43 -7.6875 40.6875 C-7.460625 40.130625 -7.23375 39.57375 -7 39 C-5.02 38.505 -5.02 38.505 -3 38 C2.54911063 46.88448032 7.85636613 55.87552183 13 65 C13.83735544 49.04239779 13.64982173 36.20327071 6 22 C-1.71448774 6.89452388 -1.71448774 6.89452388 -1 1 C-0.67 0.67 -0.34 0.34 0 0 Z " fill="#74462A" transform="translate(77,562)"/>
<path d="M0 0 C8.44270253 5.88200296 14.73111109 13.75461908 17.6015625 23.8125 C18.3087255 28.82322166 18.04543466 33.78194883 17.6015625 38.8125 C15.89578908 39.46506456 14.18680161 40.10923041 12.4765625 40.75 C11.52523437 41.10964844 10.57390625 41.46929688 9.59375 41.83984375 C-0.62293549 45.16093342 -13.6309298 45.73890672 -23.3984375 40.8125 C-29.70414928 36.94308595 -33.53086941 29.90502639 -35.890625 23.015625 C-37.19497079 17.35677095 -37.5043794 11.25362148 -34.8984375 5.9375 C-26.91186039 -5.8724385 -11.26186281 -6.85228836 0 0 Z " fill="#926C2D" transform="translate(277.3984375,845.1875)"/>
<path d="M0 0 C5.052464 2.526232 8.74591807 6.43156576 12 11 C14.31364027 17.94092082 14.51852439 28.98033544 11.375 35.75 C7.82265097 41.28275267 2.9843696 44.66752465 -3.265625 46.4921875 C-14.48380595 48.57556396 -24.43779422 46.64550708 -35 43 C-33.50168831 28.66430169 -25.14241778 13.60318481 -14.640625 3.796875 C-9.72295381 0.16797281 -6.04835428 -0.99153349 0 0 Z " fill="#936C2D" transform="translate(494,841)"/>
<path d="M0 0 C3.18391981 1.26817145 5.74025831 2.7462382 7.90625 5.421875 C10.7033112 4.3200024 13.3591393 3.18637256 16.03125 1.796875 C20.82568889 -0.24286435 25.80038888 -0.41862829 30.90625 0.421875 C34.15625 2.609375 34.15625 2.609375 35.90625 5.421875 C36.03125 8.046875 36.03125 8.046875 34.90625 10.421875 C33.27016285 11.47115886 31.60479085 12.47702752 29.90625 13.421875 C30.83308594 13.69902344 31.75992188 13.97617187 32.71484375 14.26171875 C34.51115234 14.80505859 34.51115234 14.80505859 36.34375 15.359375 C37.53871094 15.71902344 38.73367188 16.07867188 39.96484375 16.44921875 C42.90625 17.421875 42.90625 17.421875 43.90625 18.421875 C44.28125 21.234375 44.28125 21.234375 43.90625 24.421875 C41.90234375 26.6328125 41.90234375 26.6328125 38.90625 28.421875 C36.02088513 28.52810236 33.44488373 28.4687233 30.59375 28.234375 C24.65895006 27.90274025 24.65895006 27.90274025 19.2265625 29.96484375 C17.93676906 31.22201596 16.67896613 32.5133531 15.46484375 33.84375 C13.90625 35.421875 13.90625 35.421875 10.78125 36.171875 C6.70573099 35.10869613 4.85363449 33.43943531 1.90625 30.421875 C1.90625 29.431875 1.90625 28.441875 1.90625 27.421875 C0.60429688 27.44507813 -0.69765625 27.46828125 -2.0390625 27.4921875 C-3.76561924 27.51095442 -5.49218221 27.52915363 -7.21875 27.546875 C-8.0746875 27.56363281 -8.930625 27.58039062 -9.8125 27.59765625 C-14.65962293 27.63494181 -18.54082905 27.31768143 -23.09375 25.421875 C-24.42817623 18.9923668 -24.42817623 18.9923668 -23.03125 16.609375 C-20.50273037 15.05963716 -17.93382948 14.2423424 -15.09375 13.421875 C-15.58875 12.7 -16.08375 11.978125 -16.59375 11.234375 C-18.22720629 8.17164446 -18.87491491 6.80692296 -18.09375 3.421875 C-12.96430004 -1.57258944 -6.66752018 -1.84103169 0 0 Z " fill="#FCF6DF" transform="translate(578.09375,914.578125)"/>
<path d="M0 0 C3.18391981 1.26817145 5.74025831 2.7462382 7.90625 5.421875 C10.7033112 4.3200024 13.3591393 3.18637256 16.03125 1.796875 C20.82568889 -0.24286435 25.80038888 -0.41862829 30.90625 0.421875 C34.15625 2.609375 34.15625 2.609375 35.90625 5.421875 C36.03125 8.046875 36.03125 8.046875 34.90625 10.421875 C33.27016285 11.47115886 31.60479085 12.47702752 29.90625 13.421875 C30.83308594 13.69902344 31.75992187 13.97617187 32.71484375 14.26171875 C34.51115234 14.80505859 34.51115234 14.80505859 36.34375 15.359375 C37.53871094 15.71902344 38.73367188 16.07867188 39.96484375 16.44921875 C42.90625 17.421875 42.90625 17.421875 43.90625 18.421875 C44.28125 21.234375 44.28125 21.234375 43.90625 24.421875 C41.90234375 26.6328125 41.90234375 26.6328125 38.90625 28.421875 C36.02088513 28.52810236 33.44488373 28.4687233 30.59375 28.234375 C24.65895006 27.90274025 24.65895006 27.90274025 19.2265625 29.96484375 C17.93676906 31.22201596 16.67896613 32.5133531 15.46484375 33.84375 C13.90625 35.421875 13.90625 35.421875 10.78125 36.171875 C6.70573099 35.10869613 4.85363449 33.43943531 1.90625 30.421875 C1.90625 29.431875 1.90625 28.441875 1.90625 27.421875 C0.60429688 27.44507813 -0.69765625 27.46828125 -2.0390625 27.4921875 C-3.76561924 27.51095442 -5.49218221 27.52915363 -7.21875 27.546875 C-8.0746875 27.56363281 -8.930625 27.58039062 -9.8125 27.59765625 C-14.65962293 27.63494181 -18.54082905 27.31768143 -23.09375 25.421875 C-24.42817623 18.9923668 -24.42817623 18.9923668 -23.03125 16.609375 C-20.50273037 15.05963716 -17.93382948 14.2423424 -15.09375 13.421875 C-15.58875 12.7 -16.08375 11.978125 -16.59375 11.234375 C-18.22720629 8.17164446 -18.87491491 6.80692296 -18.09375 3.421875 C-12.96430004 -1.57258944 -6.66752018 -1.84103169 0 0 Z " fill="#FCF6DF" transform="translate(1132.09375,873.578125)"/>
<path d="M0 0 C0.85722656 0.18433594 1.71445312 0.36867188 2.59765625 0.55859375 C3.45230469 0.72488281 4.30695312 0.89117188 5.1875 1.0625 C7.66015625 1.99609375 7.66015625 1.99609375 9.44140625 4.078125 C12.80798848 6.98832196 15.93710727 6.35978255 20.22265625 6.12109375 C28.29842276 5.75493809 28.29842276 5.75493809 31.66015625 7.99609375 C32.16015625 10.37109375 32.16015625 10.37109375 31.66015625 12.99609375 C27.79692501 17.34222889 24.17687084 17.6220792 18.66015625 17.99609375 C19.17578125 18.55296875 19.69140625 19.10984375 20.22265625 19.68359375 C21.66015625 21.99609375 21.66015625 21.99609375 21.66015625 24.55859375 C20.66015625 26.99609375 20.66015625 26.99609375 18.78515625 28.80859375 C14.15052874 30.5697522 9.56438537 30.55887414 4.66015625 29.99609375 C3.99113281 29.63902344 3.32210937 29.28195312 2.6328125 28.9140625 C-1.24952505 27.10743018 -5.3561052 29.2826211 -9.21484375 30.55859375 C-13.40882701 31.8174119 -16.9323971 32.60103741 -21.33984375 31.99609375 C-24.27734375 29.99609375 -24.27734375 29.99609375 -26.33984375 27.99609375 C-26.17484375 27.06796875 -26.00984375 26.13984375 -25.83984375 25.18359375 C-25.26235987 22.03988022 -25.26235987 22.03988022 -25.33984375 18.99609375 C-27.77891435 16.79467043 -27.77891435 16.79467043 -30.33984375 14.99609375 C-30.21484375 12.68359375 -30.21484375 12.68359375 -29.33984375 9.99609375 C-24.28956033 6.14193009 -18.4199351 6.29350542 -12.33984375 6.99609375 C-8.65234375 8.49609375 -8.65234375 8.49609375 -6.33984375 9.99609375 C-6.23671875 8.90296875 -6.13359375 7.80984375 -6.02734375 6.68359375 C-5.2533691 2.53227518 -4.59485591 -0.00767088 0 0 Z " fill="#FCF6DF" transform="translate(875.33984375,934.00390625)"/>
<path d="M0 0 C6.85608633 4.86596239 13.20908982 11.41817964 17 19 C17.55008321 23.50887877 17.44871217 27.04648664 15.5 31.1875 C10.55076543 36.75538889 5.66241283 40.37052279 -1.75 41.64453125 C-4.65375702 41.59999102 -5.69580357 41.27722923 -7.8671875 39.29833984 C-9.75326852 36.84486279 -11.38559963 34.32736448 -13 31.6875 C-13.58394531 30.82576172 -14.16789062 29.96402344 -14.76953125 29.07617188 C-18.78872509 22.7461769 -20.1285031 17.47093717 -19 10 C-16.84230354 5.05527895 -13.90157116 2.78960144 -9.06640625 0.71484375 C-5.51986133 -0.51203285 -3.73711294 -0.83762876 0 0 Z " fill="#936D2E" transform="translate(450,623)"/>
<path d="M0 0 C4.18750226 2.27533309 7.39199674 5.47604824 9 10 C9.59137046 15.09092827 9.73702006 16.9441639 6.76953125 21.1953125 C5.80363002 22.19143922 4.81720023 23.16801981 3.8125 24.125 C2.83853213 25.10546965 1.86587065 26.08723879 0.89453125 27.0703125 C0.41105225 27.54597656 -0.07242676 28.02164063 -0.57055664 28.51171875 C-2.04042815 30.04209223 -3.32792197 31.64830516 -4.6328125 33.3203125 C-7 36 -7 36 -10.6875 36.75 C-16.12871722 36.3258747 -20.85036447 33.39783655 -25 30 C-28.08371805 25.78809242 -28.59215705 22.66836787 -28.40234375 17.55859375 C-27.55424133 12.16532106 -24.97923083 8.59101042 -20.76953125 5.20703125 C-14.02050864 0.571895 -8.23842985 -1.2294449 0 0 Z " fill="#936D2F" transform="translate(314,628)"/>
<path d="M0 0 C0.66 0 1.32 0 2 0 C3.27860355 2.1623889 4.54783702 4.3294751 5.8125 6.5 C6.16892578 7.10070312 6.52535156 7.70140625 6.89257812 8.3203125 C11.2085765 15.76441979 13.55268188 22.20663462 13.4375 30.875 C13.43137695 31.66293945 13.42525391 32.45087891 13.41894531 33.26269531 C13.25210187 39.49237273 12.12084861 44.54389571 9 50 C8.38125 51.134375 7.7625 52.26875 7.125 53.4375 C3.79712941 57.45052042 0.75309346 58.77274714 -4.375 59.4375 C-12.57082077 58.44834922 -17.64350123 53.97676268 -23 48 C-25.26414836 45.09854794 -27.36232569 42.1010551 -29.4375 39.0625 C-29.97826172 38.28326172 -30.51902344 37.50402344 -31.07617188 36.70117188 C-32.39060952 34.80512465 -33.69834647 32.90483535 -35 31 C-34.67 30.34 -34.34 29.68 -34 29 C-30.11002809 30.49746706 -28.53051948 32.70422078 -26.25 36.125 C-25.63640625 37.03507813 -25.0228125 37.94515625 -24.390625 38.8828125 C-23.93171875 39.58148437 -23.4728125 40.28015625 -23 41 C-19.47040428 40.24888675 -16.30817906 38.94248255 -12.9921875 37.53125 C-11.84105469 37.04269531 -10.68992187 36.55414062 -9.50390625 36.05078125 C-8.30636719 35.53902344 -7.10882813 35.02726563 -5.875 34.5 C-4.66972656 33.98824219 -3.46445312 33.47648438 -2.22265625 32.94921875 C3.44085539 30.58892074 3.44085539 30.58892074 9 28 C8.84789991 19.1781948 5.08327704 12.57245142 1 5 C0.32732256 3.66968903 -0.34259924 2.33792618 -1 1 C-0.67 0.67 -0.34 0.34 0 0 Z " fill="#946D2E" transform="translate(441,773)"/>
<path d="M0 0 C8.59578294 4.68234905 15.81663064 11.32659361 23.05078125 17.84375 C22.55578125 19.32875 22.55578125 19.32875 22.05078125 20.84375 C17.22658611 17.70802316 12.62793809 14.3288948 8.05078125 10.84375 C-0.66730399 17.78049571 -9.30898385 24.81047642 -17.94921875 31.84375 C-16.64624425 40.4797438 -10.38409713 47.271278 -3.94921875 52.84375 C-3.28921875 53.17375 -2.62921875 53.50375 -1.94921875 53.84375 C-2.27921875 54.83375 -2.60921875 55.82375 -2.94921875 56.84375 C-12.31891521 52.67944046 -18.54928641 43.7887054 -22.38671875 34.53125 C-25.62563317 25.42804558 -26.62479915 14.96467101 -23.03515625 5.79296875 C-18.2858392 -2.73188452 -8.43986431 -3.30887395 0 0 Z " fill="#936D2E" transform="translate(278.94921875,747.15625)"/>
<path d="M0 0 C3.6024118 3.40227781 6.28027138 6.8735152 9 11 C9.99 11.495 9.99 11.495 11 12 C10.67 12.66 10.34 13.32 10 14 C8.80661011 13.97063354 8.80661011 13.97063354 7.58911133 13.94067383 C-0.22575385 13.83204623 -7.60740378 14.43508361 -15.3125 15.6875 C-16.46057129 15.86611572 -17.60864258 16.04473145 -18.79150391 16.22875977 C-21.25211089 16.61258015 -23.71206159 17.0006282 -26.17138672 17.39257812 C-30.06148462 18.00975473 -33.95403324 18.60861999 -37.84765625 19.203125 C-48.66817965 20.86097434 -59.48274414 22.54027234 -70.265625 24.4296875 C-70.9317984 24.5462117 -71.5979718 24.6627359 -72.28433228 24.78279114 C-75.4540108 25.3387892 -78.62205762 25.90256395 -81.78857422 26.47631836 C-82.91279785 26.67620361 -84.03702148 26.87608887 -85.1953125 27.08203125 C-86.17516113 27.25968018 -87.15500977 27.4373291 -88.16455078 27.62036133 C-91.14212668 28.01902936 -93.99945273 28.0652776 -97 28 C-96 26 -96 26 -93.953125 25.30151367 C-93.06109375 25.09244385 -92.1690625 24.88337402 -91.25 24.66796875 C-90.25774414 24.42941162 -89.26548828 24.19085449 -88.24316406 23.94506836 C-87.17291992 23.6950708 -86.10267578 23.44507324 -85 23.1875 C-77.6965475 21.4272883 -70.43613397 19.63106959 -63.25 17.4375 C-55.48916887 15.08230726 -47.65163852 13.11999561 -39.77734375 11.18359375 C-34.46284024 9.8752623 -29.17840315 8.47025499 -23.89453125 7.04296875 C-20.8967506 6.23474745 -17.89296155 5.45192636 -14.88671875 4.67578125 C-14.014104 4.44955078 -13.14148926 4.22332031 -12.24243164 3.99023438 C-10.52226186 3.54482897 -8.8014119 3.10204065 -7.07983398 2.66210938 C-3.23045452 1.94251912 -3.23045452 1.94251912 0 0 Z " fill="#5DB577" transform="translate(1200,762)"/>
<path d="M0 0 C4.42094636 1.60906516 7.35885457 3.03828185 10 7 C10.63812835 10.61606066 10.67608851 12.95566732 8.64453125 16.09375 C4.94269452 20.47384821 0.85280477 25.20050494 -4.9765625 26.41015625 C-8.74636023 26.68547856 -10.78278339 26.1511072 -13.875 24 C-16.43221037 20.38982065 -17.95058231 17.47230067 -18 13 C-16.49889698 7.62917035 -13.66218495 4.06722694 -9 1 C-5.87143524 -0.56428238 -3.47287869 -0.28007086 0 0 Z " fill="#C99D82" transform="translate(317,707)"/>
<path d="M0 0 C3.375 1.8125 3.375 1.8125 6 4 C6.61875 4.45375 7.2375 4.9075 7.875 5.375 C9.7341787 8.06048034 9.49095263 9.80880788 9 13 C6.20943422 18.98556138 0.99929196 23.40387204 -5 26 C-8.29273897 26.43727574 -10.89168678 26.17106791 -14 25 C-17.30027248 22.2772752 -17.91516356 20.32343894 -19 16.1875 C-19.37221552 11.38501201 -17.80299994 7.83926053 -15 4 C-10.42519711 -0.2556306 -6.01983914 -1.08961246 0 0 Z " fill="#C99D82" transform="translate(440,701)"/>
<path d="M0 0 C3.97416377 1.54945076 4.96814754 4.71394504 6.625 8.3984375 C6.9653125 9.11708984 7.305625 9.83574219 7.65625 10.57617188 C8.6646543 12.71712116 9.64733279 14.8683101 10.625 17.0234375 C11.16125 18.18101562 11.6975 19.33859375 12.25 20.53125 C13.39402308 23.02080023 14.52016421 25.51631013 15.625 28.0234375 C15.65078125 26.90324219 15.6765625 25.78304687 15.703125 24.62890625 C15.75940635 23.15621104 15.81675368 21.6835563 15.875 20.2109375 C15.89626953 19.10395508 15.89626953 19.10395508 15.91796875 17.97460938 C16.16396882 12.53800778 16.16396882 12.53800778 18.44140625 9.99609375 C21.71256284 8.53899538 24.20898739 9.25000068 27.625 10.0234375 C28.625 11.0234375 28.625 11.0234375 28.74525452 13.26966858 C28.74303391 14.26228195 28.74081329 15.25489532 28.73852539 16.27758789 C28.73844986 17.39867447 28.73837433 18.51976105 28.73829651 19.67481995 C28.73313522 20.8945903 28.72797394 22.11436066 28.72265625 23.37109375 C28.7212413 24.61265732 28.71982635 25.85422089 28.71836853 27.13340759 C28.71370591 30.43949241 28.70471497 33.74550896 28.69366455 37.05157471 C28.68344827 40.423049 28.67887045 43.79453033 28.67382812 47.16601562 C28.66277395 53.78517525 28.64601736 60.40430243 28.625 67.0234375 C28.295 67.0234375 27.965 67.0234375 27.625 67.0234375 C27.625 48.8734375 27.625 30.7234375 27.625 12.0234375 C25.645 12.0234375 23.665 12.0234375 21.625 12.0234375 C18.62429943 15.02413807 19.19824645 18.49077461 19.0625 22.5234375 C18.74366103 30.78611544 18.74366103 30.78611544 17.625 33.0234375 C16.14 32.5284375 16.14 32.5284375 14.625 32.0234375 C14.295 31.0334375 13.965 30.0434375 13.625 29.0234375 C12.965 28.6934375 12.305 28.3634375 11.625 28.0234375 C11.66625 28.7453125 11.7075 29.4671875 11.75 30.2109375 C11.61578695 33.23073119 10.87329381 35.29279479 9.625 38.0234375 C4.68477639 33.08321389 1.73839989 24.63343291 -0.375 18.0234375 C-0.375 16.7034375 -0.375 15.3834375 -0.375 14.0234375 C-1.035 14.0234375 -1.695 14.0234375 -2.375 14.0234375 C-5.44017632 7.04453322 -5.44017632 7.04453322 -5.1875 3.0859375 C-4.04051969 0.17437209 -3.05750889 0.03017279 0 0 Z " fill="#6C4C2A" transform="translate(1267.375,630.9765625)"/>
<path d="M0 0 C-2.41775831 2.41775831 -4.01209481 2.71597225 -7.30078125 3.59375 C-8.4098584 3.89740479 -9.51893555 4.20105957 -10.66162109 4.51391602 C-11.86641113 4.83932373 -13.07120117 5.16473145 -14.3125 5.5 C-22.32556859 7.70623215 -30.26042348 10.01119813 -38.09765625 12.78515625 C-39.08047325 13.13246292 -39.08047325 13.13246292 -40.08314514 13.48678589 C-43.2573505 14.61494097 -46.42103508 15.76518039 -49.5793457 16.9375 C-50.7262085 17.35128906 -51.87307129 17.76507812 -53.0546875 18.19140625 C-54.05999512 18.56467041 -55.06530273 18.93793457 -56.10107422 19.32250977 C-59.44564568 20.10414913 -61.67541907 19.76749672 -65 19 C-66.68029297 18.66162109 -66.68029297 18.66162109 -68.39453125 18.31640625 C-69.52246094 18.06761719 -70.65039062 17.81882812 -71.8125 17.5625 C-72.95332031 17.31628906 -74.09414063 17.07007813 -75.26953125 16.81640625 C-76.17058594 16.54699219 -77.07164062 16.27757812 -78 16 C-78.33 15.34 -78.66 14.68 -79 14 C-60.99504751 10.25585086 -42.91800503 6.94526031 -24.82128906 3.6796875 C-23.88079712 3.50995422 -22.94030518 3.34022095 -21.97131348 3.16534424 C-20.19301954 2.84471834 -18.4146234 2.52465863 -16.6361084 2.20526123 C-13.44955579 1.63168176 -10.26935685 1.05575714 -7.09863281 0.39941406 C-4.69763559 -0.05754632 -2.43823737 -0.06966392 0 0 Z " fill="#5EB679" transform="translate(954,825)"/>
<path d="M0 0 C2.90516609 2.10425558 5.66456253 4.26704126 8 7 C8 7.99 8 8.98 8 10 C5.0520187 9.52832299 3.698145 8.77360875 1.25 6.9375 C-4.66525781 3.43453822 -12.39998046 4.30632448 -19 5 C-22.07855105 6.01555752 -24.21749768 7.26749855 -27 9 C-30 9.75 -30 9.75 -32 10 C-31.26350004 5.68355085 -29.33525762 4.06426379 -26.0234375 1.39453125 C-17.93202386 -4.18198355 -8.62516622 -4.76042828 0 0 Z " fill="#654613" transform="translate(421,673)"/>
<path d="M0 0 C2.90516609 2.10425558 5.66456253 4.26704126 8 7 C8 7.99 8 8.98 8 10 C5.0520187 9.52832299 3.698145 8.77360875 1.25 6.9375 C-4.7127303 3.43455693 -12.37212074 4.20987843 -19 5 C-21.9243544 6.05774521 -24.35897925 7.25390302 -26.984375 8.90625 C-29 10 -29 10 -33 10 C-30.44070483 4.24779775 -25.83679166 0.52810757 -20.0625 -1.875 C-13.04986075 -4.14498727 -6.47022536 -3.57106669 0 0 Z " fill="#654613" transform="translate(353,672)"/>
<path d="M0 0 C0.33 0 0.66 0 1 0 C1.66 17.16 2.32 34.32 3 52 C5.31 52.99 7.62 53.98 10 55 C9 58 9 58 6.78515625 59.17089844 C3.85829301 60.04218416 1.48565414 60.25836749 -1.5625 60.265625 C-2.60664062 60.26820313 -3.65078125 60.27078125 -4.7265625 60.2734375 C-5.80679687 60.26570312 -6.88703125 60.25796875 -8 60.25 C-9.08023437 60.25773438 -10.16046875 60.26546875 -11.2734375 60.2734375 C-12.31757812 60.27085937 -13.36171875 60.26828125 -14.4375 60.265625 C-15.38496094 60.26336914 -16.33242187 60.26111328 -17.30859375 60.25878906 C-20.19408577 59.98133791 -22.37453014 59.19956812 -25 58 C-25 56.68 -25 55.36 -25 54 C-22.35261084 52.5393715 -21.10551666 52 -18 52 C-17.34 53.98 -16.68 55.96 -16 58 C-14.10424749 58.02721176 -12.20838021 58.04649136 -10.3125 58.0625 C-9.25675781 58.07410156 -8.20101563 58.08570313 -7.11328125 58.09765625 C-4.26762256 58.00839469 -1.77303823 57.59407565 1 57 C0.9285376 56.40348633 0.8570752 55.80697266 0.78344727 55.19238281 C-0.35179163 44.06803306 -0.10883791 32.91830991 -0.0625 21.75 C-0.05747533 19.63671981 -0.05291413 17.52343846 -0.04882812 15.41015625 C-0.03789833 10.27340858 -0.0206869 5.13671726 0 0 Z " fill="#688A60" transform="translate(1299,815)"/>
<path d="M0 0 C2.375 1.5625 2.375 1.5625 4 4 C3.9375 7.625 3.9375 7.625 3 11 C0 13 0 13 -3.5 12.875 C-7 12 -7 12 -9 10.25 C-10 8 -10 8 -9.9375 5.4375 C-8.13219506 0.74370715 -4.90840235 -0.85897041 0 0 Z " fill="#F2B3B3" transform="translate(591,925)"/>
<path d="M0 0 C2.375 1.5625 2.375 1.5625 4 4 C3.9375 7.625 3.9375 7.625 3 11 C0 13 0 13 -3.5 12.875 C-7 12 -7 12 -9 10.25 C-10 8 -10 8 -9.9375 5.4375 C-8.13219506 0.74370715 -4.90840235 -0.85897041 0 0 Z " fill="#F2B3B3" transform="translate(1145,884)"/>
<path d="M0 0 C4.84995136 1.32271401 4.84995136 1.32271401 6.4375 3.9375 C6.9375 6.375 6.9375 6.375 6.4375 8.9375 C4.3125 11.3125 4.3125 11.3125 1.4375 12.9375 C-1.80716697 12.87260666 -3.7362469 12.4883354 -6.4375 10.6875 C-8.02437301 8.21903087 -8.05458246 6.81969726 -7.5625 3.9375 C-5.24143877 0.40948693 -4.27159402 -0.07494025 0 0 Z " fill="#F2B3B2" transform="translate(876.5625,944.0625)"/>
<path d="M0 0 C0.66 0.33 1.32 0.66 2 1 C4.0374763 1.22858114 6.08040303 1.41024278 8.125 1.5625 C9.76855469 1.68818359 9.76855469 1.68818359 11.4453125 1.81640625 C12.70988281 1.90728516 12.70988281 1.90728516 14 2 C10.3046875 5.9453125 10.3046875 5.9453125 7.5625 6.4375 C5 6 5 6 2.75 4.4375 C-1.27196136 2.33511111 -4.67272102 2.92613481 -9 4 C-9.825 4.515625 -10.65 5.03125 -11.5 5.5625 C-15.22347559 7.70349847 -18.80013636 7.2470508 -23 7 C-23.33 6.01 -23.66 5.02 -24 4 C-22.96359375 3.80664062 -21.9271875 3.61328125 -20.859375 3.4140625 C-19.48952391 3.15135133 -18.11973548 2.88831329 -16.75 2.625 C-16.06808594 2.49867188 -15.38617187 2.37234375 -14.68359375 2.2421875 C-1.2591703 -0.36449667 -1.2591703 -0.36449667 0 0 Z " fill="#74B397" transform="translate(878,962)"/>
<path d="M0 0 C0.33 0 0.66 0 1 0 C1 6.27 1 12.54 1 19 C2.65 19.33 4.3 19.66 6 20 C6 20.99 6 21.98 6 23 C2.05696552 24.85036255 -1.09585935 25.27045532 -5.4375 25.25 C-7.07525391 25.25773438 -7.07525391 25.25773438 -8.74609375 25.265625 C-12.11701578 24.99044769 -14.84875625 24.19775781 -18 23 C-18 22.01 -18 21.02 -18 20 C-16.35 19.67 -14.7 19.34 -13 19 C-12.34 20.32 -11.68 21.64 -11 23 C-7.37 23 -3.74 23 0 23 C0 15.41 0 7.82 0 0 Z " fill="#5F8666" transform="translate(102,711)"/>
<path d="M0 0 C0.84046875 0.06574219 1.6809375 0.13148438 2.546875 0.19921875 C4.61618164 0.36382269 6.68339331 0.55439525 8.75 0.75 C7.45703125 2.7265625 7.45703125 2.7265625 5.75 4.75 C0.93868825 5.2946768 -2.76992202 4.49832312 -7.25 2.75 C-8.9 4.73 -10.55 6.71 -12.25 8.75 C-13.24 8.42 -14.23 8.09 -15.25 7.75 C-11.84296327 -0.19975236 -7.99450913 -0.78695949 0 0 Z " fill="#7BB69C" transform="translate(609.25,942.25)"/>
<path d="M0 0 C1.794375 0.4640625 1.794375 0.4640625 3.625 0.9375 C5.10148123 1.14508963 6.5809053 1.33276533 8.0625 1.5 C9.238125 1.644375 10.41375 1.78875 11.625 1.9375 C10.48828125 3.4453125 10.48828125 3.4453125 8.625 4.9375 C5.91796875 5.0546875 5.91796875 5.0546875 2.8125 4.8125 C-1.38748744 4.68013676 -3.87896582 4.65073684 -7.125 7.4375 C-7.8675 8.2625 -8.61 9.0875 -9.375 9.9375 C-9.375 5.32131201 -9.375 5.32131201 -6.8125 2.625 C-4.19989032 0.18982751 -3.7564578 -0.06956403 0 0 Z " fill="#73B496" transform="translate(1157.375,901.0625)"/>
<path d="M0 0 C0.66 0 1.32 0 2 0 C2.02913821 3.5624827 2.04684529 7.12493454 2.0625 10.6875 C2.07087891 11.69490234 2.07925781 12.70230469 2.08789062 13.74023438 C2.09111328 14.71669922 2.09433594 15.69316406 2.09765625 16.69921875 C2.10289307 17.59471436 2.10812988 18.49020996 2.11352539 19.4128418 C1.99840198 22.03641759 1.58234285 24.44293053 1 27 C-1.18475322 23.72287017 -1.2479325 22.76132616 -1.23046875 18.96484375 C-1.22853516 17.99095703 -1.22660156 17.01707031 -1.22460938 16.01367188 C-1.21236328 14.99853516 -1.20011719 13.98339844 -1.1875 12.9375 C-1.18685547 11.91849609 -1.18621094 10.89949219 -1.18554688 9.84960938 C-1.14040493 2.28080986 -1.14040493 2.28080986 0 0 Z " fill="#3C3427" transform="translate(371,717)"/>
<path d="M0 0 C3.14248678 1.57124339 3.70128824 4.2977685 5.125 7.4375 C5.66382813 8.61183594 6.20265625 9.78617188 6.7578125 10.99609375 C8 14 8 14 8 16 C4.37723685 14.6744419 1.36494652 13.05653045 -1.8125 10.875 C-2.60269531 10.33617187 -3.39289063 9.79734375 -4.20703125 9.2421875 C-4.79871094 8.83226562 -5.39039063 8.42234375 -6 8 C-3 8 -3 8 1 9 C0.67 6.03 0.34 3.06 0 0 Z " fill="#72854F" transform="translate(1261,706)"/>
<path d="M0 0 C0 2.56997871 -0.08801976 5.1023878 -0.21875 7.66796875 C-0.26386719 8.56064453 -0.30898437 9.45332031 -0.35546875 10.37304688 C-0.42701172 11.76620117 -0.42701172 11.76620117 -0.5 13.1875 C-0.54769531 14.12787109 -0.59539062 15.06824219 -0.64453125 16.03710938 C-0.76234844 18.35810798 -0.88086414 20.67906877 -1 23 C-4 22 -4 22 -5.1875 20.125 C-6 18 -6 18 -6 15 C-6.66 15 -7.32 15 -8 15 C-8.52992692 13.54494642 -9.0486789 12.08581873 -9.5625 10.625 C-9.85253906 9.81289063 -10.14257812 9.00078125 -10.44140625 8.1640625 C-11 6 -11 6 -10 4 C-7.60926851 6.93189994 -6.15892693 9.72143288 -4.8125 13.25 C-4.46832031 14.14203125 -4.12414063 15.0340625 -3.76953125 15.953125 C-3.51558594 16.62859375 -3.26164062 17.3040625 -3 18 C-2.95101563 16.86820313 -2.90203125 15.73640625 -2.8515625 14.5703125 C-2.77653486 13.08851661 -2.70098703 11.606747 -2.625 10.125 C-2.5940625 9.37863281 -2.563125 8.63226562 -2.53125 7.86328125 C-2.2265625 2.2265625 -2.2265625 2.2265625 0 0 Z " fill="#747143" transform="translate(1286,641)"/>
<path d="M0 0 C0 0.66 0 1.32 0 2 C-0.69561035 2.06469482 -1.3912207 2.12938965 -2.10791016 2.19604492 C-5.28290686 2.50413014 -8.45348747 2.84547414 -11.625 3.1875 C-12.71941406 3.28869141 -13.81382813 3.38988281 -14.94140625 3.49414062 C-21.58609899 4.23915163 -25.3807743 5.07282592 -30 10 C-30.928125 10.8971875 -30.928125 10.8971875 -31.875 11.8125 C-32.24625 12.204375 -32.6175 12.59625 -33 13 C-33 9.32281907 -32.17815142 7.92923811 -30 5 C-25.21806571 2.42731935 -19.74136708 2.08653864 -14.4375 1.375 C-13.49197266 1.2409375 -12.54644531 1.106875 -11.57226562 0.96875 C-7.65054315 0.42552908 -3.97006928 0 0 0 Z " fill="#727D4A" transform="translate(1338,698)"/>
<path d="M0 0 C0.2475 0.94875 0.495 1.8975 0.75 2.875 C1.6857077 6.08693191 1.6857077 6.08693191 4.125 7.375 C4.74375 7.58125 5.3625 7.7875 6 8 C1.07872966 8.16682272 -2.50343896 8.24828052 -7 6 C-7 4.68 -7 3.36 -7 2 C-4.35261084 0.5393715 -3.10551666 0 0 0 Z " fill="#60966D" transform="translate(1281,867)"/>
<path d="M0 0 C1.24546405 2.49092811 0.7767578 3.41080733 0 6 C0.99 6 1.98 6 3 6 C3 6.66 3 7.32 3 8 C3.66 8.33 4.32 8.66 5 9 C1.32589215 10.17571451 -2.16929183 10.07366746 -6 10 C-4.6302836 6.00499382 -2.74277578 3.19990508 0 0 Z " fill="#769359" transform="translate(1322,682)"/>
<path d="M0 0 C4.875 0.875 4.875 0.875 6 2 C5.71269945 4.33944736 5.38063221 6.6739143 5 9 C4 6 4 6 4 2 C0.37 4.97 -3.26 7.94 -7 11 C-7 7.22089522 -6.00296038 6.53893899 -3.5 3.8125 C-2.8503125 3.09707031 -2.200625 2.38164063 -1.53125 1.64453125 C-1.0259375 1.10183594 -0.520625 0.55914063 0 0 Z " fill="#695A30" transform="translate(1325,663)"/>
<path d="M0 0 C5.04424468 0.44508041 7.44443409 2.60980925 11 6 C11 6.66 11 7.32 11 8 C9.53932801 7.54917531 8.08151968 7.08906463 6.625 6.625 C5.81289063 6.36976563 5.00078125 6.11453125 4.1640625 5.8515625 C2 5 2 5 0 3 C0 2.01 0 1.02 0 0 Z " fill="#353027" transform="translate(359,707)"/>
<path d="M0 0 C1.32 0 2.64 0 4 0 C4.20367187 0.64453125 4.40734375 1.2890625 4.6171875 1.953125 C5.8667935 4.31153872 5.8667935 4.31153872 8.8203125 4.609375 C9.91085938 4.65578125 11.00140625 4.7021875 12.125 4.75 C13.76855469 4.83507812 13.76855469 4.83507812 15.4453125 4.921875 C16.28835937 4.94765625 17.13140625 4.9734375 18 5 C18 5.33 18 5.66 18 6 C15.95863605 6.05451714 13.91684144 6.09302485 11.875 6.125 C10.16957031 6.15980469 10.16957031 6.15980469 8.4296875 6.1953125 C4.94242233 5.99672109 2.2446138 5.2524801 -1 4 C-1 1 -1 1 0 0 Z " fill="#5B9072" transform="translate(85,730)"/>
<path d="M0 0 C0 1.32 0 2.64 0 4 C-2.97 5.32 -5.94 6.64 -9 8 C-9 7.01 -9 6.02 -9 5 C-3.76744186 0 -3.76744186 0 0 0 Z " fill="#302C27" transform="translate(384,707)"/>
<path d="M0 0 C0.66 0.33 1.32 0.66 2 1 C1.27515682 6.9799562 -1.32126552 11.5120308 -5.75 15.4375 C-6.4925 15.953125 -7.235 16.46875 -8 17 C-6.91094708 13.73284123 -5.49798519 11.2215079 -3.4375 8.5 C-1.35885913 5.70606212 -0.32186699 3.54053687 0 0 Z " fill="#758951" transform="translate(1331,665)"/>
<path d="M0 0 C1.49080078 0.16628906 1.49080078 0.16628906 3.01171875 0.3359375 C3.77097656 0.43132813 4.53023437 0.52671875 5.3125 0.625 C3.72431179 2.50601041 2.83701507 3.52665342 0.375 3.98828125 C-0.6459375 3.96314453 -0.6459375 3.96314453 -1.6875 3.9375 C-2.7084375 3.93169922 -2.7084375 3.93169922 -3.75 3.92578125 C-5.6875 3.625 -5.6875 3.625 -8.6875 1.625 C-5.1388865 -0.74074234 -4.1110475 -0.48365265 0 0 Z " fill="#6AB091" transform="translate(1163.6875,902.375)"/>
<path d="M0 0 C0.66 0.66 1.32 1.32 2 2 C1.625 4.125 1.625 4.125 1 6 C-0.65 6.33 -2.3 6.66 -4 7 C-3.01 6.67 -2.02 6.34 -1 6 C-1 4.35 -1 2.7 -1 1 C-1.928125 1.37125 -2.85625 1.7425 -3.8125 2.125 C-5.3903125 2.558125 -5.3903125 2.558125 -7 3 C-7.99 2.34 -8.98 1.68 -10 1 C-6.61401171 -0.04184255 -3.53318313 -0.23042499 0 0 Z " fill="#6A5E34" transform="translate(131,603)"/>
<path d="M0 0 C1.65 0.33 3.3 0.66 5 1 C4.67 2.65 4.34 4.3 4 6 C3.67 4.68 3.34 3.36 3 2 C2.21625 2.66 1.4325 3.32 0.625 4 C-2 6 -2 6 -4 6 C-4 6.66 -4 7.32 -4 8 C-4.66 7.67 -5.32 7.34 -6 7 C-4.02 4.69 -2.04 2.38 0 0 Z " fill="#6A5930" transform="translate(120,585)"/>
<path d="M0 0 C0.33 0 0.66 0 1 0 C1.0544207 2.68777802 1.09387266 5.37443212 1.125 8.0625 C1.14175781 8.81466797 1.15851563 9.56683594 1.17578125 10.34179688 C1.21865121 15.29327709 0.58399375 19.30414451 -1 24 C-1.33 24 -1.66 24 -2 24 C-2.125 16.375 -2.125 16.375 -1 13 C-0.77548542 10.77425665 -0.59217122 8.54418481 -0.4375 6.3125 C-0.35371094 5.13300781 -0.26992187 3.95351563 -0.18359375 2.73828125 C-0.12300781 1.83464844 -0.06242187 0.93101562 0 0 Z " fill="#6DA36F" transform="translate(1387,723)"/>
<path d="M0 0 C-1.67741664 3.96480297 -4.12126862 6.84041677 -7 10 C-7.99 10.33 -8.98 10.66 -10 11 C-8.73396788 6.69549079 -5.08358566 0 0 0 Z " fill="#75A67C" transform="translate(1238,584)"/>
<path d="M0 0 C3.0625 0.25 3.0625 0.25 6 1 C6.33 1.66 6.66 2.32 7 3 C4.69 2.67 2.38 2.34 0 2 C0.66 3.98 1.32 5.96 2 8 C0.68 8 -0.64 8 -2 8 C-2.125 5.125 -2.125 5.125 -2 2 C-1.34 1.34 -0.68 0.68 0 0 Z " fill="#6B572E" transform="translate(1249,712)"/>
<path d="M0 0 C0.66 0.33 1.32 0.66 2 1 C-1.63 4.63 -5.26 8.26 -9 12 C-9 7.8407692 -6.75316432 5.85455565 -4 3 C-1.6875 1.125 -1.6875 1.125 0 0 Z " fill="#74A578" transform="translate(75,502)"/>
<path d="M0 0 C1.2065625 0.0309375 1.2065625 0.0309375 2.4375 0.0625 C3.0975 1.3825 3.7575 2.7025 4.4375 4.0625 C2.7875 3.7325 1.1375 3.4025 -0.5625 3.0625 C-1.56266187 5.06282373 -2.05646008 6.89375748 -2.5625 9.0625 C-3.92873674 6.33002652 -3.690926 4.08051098 -3.5625 1.0625 C-2.5625 0.0625 -2.5625 0.0625 0 0 Z " fill="#695A31" transform="translate(1257.5625,684.9375)"/>
<path d="M0 0 C3.46101743 3.00336223 4.69352564 5.31280768 5.75 9.75 C5.99234375 10.73484375 6.2346875 11.7196875 6.484375 12.734375 C6.73960938 13.85585938 6.73960938 13.85585938 7 15 C6.34 14.67 5.68 14.34 5 14 C5 13.01 5 12.02 5 11 C4.34 11 3.68 11 3 11 C2.49632243 9.54293274 1.99717444 8.08429904 1.5 6.625 C1.2215625 5.81289063 0.943125 5.00078125 0.65625 4.1640625 C0 2 0 2 0 0 Z " fill="#70663A" transform="translate(1275,645)"/>
<path d="M0 0 C3.3 0 6.6 0 10 0 C7 3 7 3 3.8125 3.1875 C2.4203125 3.0946875 2.4203125 3.0946875 1 3 C0.67 2.01 0.34 1.02 0 0 Z " fill="#68AD92" transform="translate(854,966)"/>
<path d="M0 0 C-0.33 0.66 -0.66 1.32 -1 2 C-3.50390625 2.4140625 -3.50390625 2.4140625 -6.5625 2.625 C-7.57441406 2.69976563 -8.58632812 2.77453125 -9.62890625 2.8515625 C-10.41136719 2.90054688 -11.19382812 2.94953125 -12 3 C-11 1 -11 1 -9.2578125 0.33203125 C-8.55398438 0.16058594 -7.85015625 -0.01085937 -7.125 -0.1875 C-6.42632813 -0.36667969 -5.72765625 -0.54585937 -5.0078125 -0.73046875 C-3 -1 -3 -1 0 0 Z " fill="#65BB83" transform="translate(1115,787)"/>
<path d="M0 0 C2.64465038 3.1254959 3.84414715 6.08788267 5 10 C2.08482708 8.92598892 0.22189824 8.22189824 -2 6 C-1.34 6 -0.68 6 0 6 C0 4.02 0 2.04 0 0 Z " fill="#738751" transform="translate(75,616)"/>
<path d="M0 0 C0.66 0.33 1.32 0.66 2 1 C-1.96570677 5.38808974 -5.01191871 8.68554313 -11 10 C-7.50640535 6.40365256 -3.88901869 3.16548033 0 0 Z " fill="#75A57E" transform="translate(1263,546)"/>
<path d="M0 0 C0 3.73928499 -0.91959602 4.40902253 -3.375 7.125 C-4.31472656 8.18074219 -4.31472656 8.18074219 -5.2734375 9.2578125 C-7 11 -7 11 -9 12 C-7.55575365 8.76138697 -5.74227753 6.38030837 -3.375 3.75 C-2.74335937 3.04359375 -2.11171875 2.3371875 -1.4609375 1.609375 C-0.97882812 1.07828125 -0.49671875 0.5471875 0 0 Z " fill="#73A374" transform="translate(43,596)"/>
<path d="M0 0 C2.64 0 5.28 0 8 0 C6.625 2.5 6.625 2.5 5 5 C4.34 5 3.68 5 3 5 C1.375 2.5 1.375 2.5 0 0 Z " fill="#80B99E" transform="translate(893,951)"/>
<path d="M0 0 C1.32 0.33 2.64 0.66 4 1 C-0.625 6.875 -0.625 6.875 -4 8 C-2.87548273 5.0280615 -1.77706209 2.66559313 0 0 Z " fill="#758C54" transform="translate(1308,703)"/>
<path d="M0 0 C0.99 0 1.98 0 3 0 C3.66 1.98 4.32 3.96 5 6 C2.525 5.01 2.525 5.01 0 4 C0 2.68 0 1.36 0 0 Z " fill="#777C4C" transform="translate(1264,716)"/>
<path d="M0 0 C-1.1875 1.5625 -1.1875 1.5625 -3 3 C-5.625 2.8125 -5.625 2.8125 -8 2 C-8.33 1.34 -8.66 0.68 -9 0 C-3.375 -1.125 -3.375 -1.125 0 0 Z " fill="#6AAE92" transform="translate(618,944)"/>
<path d="M0 0 C0.66 0 1.32 0 2 0 C0.95125002 2.62187494 0.35068687 3.79371361 -2.125 5.25 C-2.74375 5.4975 -3.3625 5.745 -4 6 C-2.84826645 3.53199953 -1.95216435 1.95216435 0 0 Z " fill="#6EB690" transform="translate(599,945)"/>
<path d="M0 0 C0.33 0.66 0.66 1.32 1 2 C0.0625 4.125 0.0625 4.125 -1 6 C0.32 6.33 1.64 6.66 3 7 C0.69 7 -1.62 7 -4 7 C-2.92598892 4.08482708 -2.22189824 2.22189824 0 0 Z " fill="#7B804F" transform="translate(1320,685)"/>
<path d="M0 0 C0.66 0.33 1.32 0.66 2 1 C0.02 3.97 -1.96 6.94 -4 10 C-4.33 9.01 -4.66 8.02 -5 7 C-3.58511552 4.23760649 -2.19636905 2.19636905 0 0 Z " fill="#68512C" transform="translate(1327,672)"/>
<path d="M0 0 C2.79872437 2.52788007 4.45773019 4.20411134 5 8 C4.01 7.67 3.02 7.34 2 7 C2 6.34 2 5.68 2 5 C1.34 5 0.68 5 0 5 C0 3.35 0 1.7 0 0 Z " fill="#73A478" transform="translate(120,508)"/>
<path d="M0 0 C1.134375 0.020625 2.26875 0.04125 3.4375 0.0625 C3.7675 0.7225 4.0975 1.3825 4.4375 2.0625 C2.4575 2.0625 0.4775 2.0625 -1.5625 2.0625 C-2.2225 3.7125 -2.8825 5.3625 -3.5625 7.0625 C-3.8925 7.0625 -4.2225 7.0625 -4.5625 7.0625 C-4.60504356 5.06295254 -4.60330783 3.06208364 -4.5625 1.0625 C-3.5625 0.0625 -3.5625 0.0625 0 0 Z " fill="#758A52" transform="translate(1250.5625,710.9375)"/>
<path d="M0 0 C2.125 0.375 2.125 0.375 4 1 C3.67 1.66 3.34 2.32 3 3 C2.34 3 1.68 3 1 3 C0.34 4.32 -0.32 5.64 -1 7 C-1.625 4.625 -1.625 4.625 -2 2 C-1.34 1.34 -0.68 0.68 0 0 Z " fill="#6B5C33" transform="translate(71,600)"/>
<path d="M0 0 C0.99 0.33 1.98 0.66 3 1 C1.35 2.65 -0.3 4.3 -2 6 C-2 4.33333333 -2 2.66666667 -2 1 C-1.34 0.67 -0.68 0.34 0 0 Z " fill="#75B695" transform="translate(1173,900)"/>
</svg>
