<svg width="49" height="42" viewBox="0 0 49 42" fill="none" xmlns="http://www.w3.org/2000/svg">
<path d="M3.52857 5.17081C2.65786 8.00111 6.09038 9.25297 8.08576 9.52512C2.64383 15.0587 -5.51907 27.8676 5.36479 34.8345C11.4403 39.5013 27.2382 46.63 41.8257 35.4297C53.5862 28.9558 46.7235 15.7844 40.7373 9.52512C42.6964 9.52512 44.7606 7.76115 45.6676 6.94469C46.5383 4.11439 43.549 1.17929 41.8257 0C37.2545 0.217716 37.0187 3.53792 37.4722 5.17081C28.9828 -3.10237 17.0649 1.72365 12.1672 5.17081C12.4393 3.53795 11.2452 2.73647 9.88473 1.64789C8.52425 0.559316 4.61696 1.63293 3.52857 5.17081Z" fill="#CAAF82"/>
<path d="M12.1212 5.06135L8.11916 9.76962C5.95336 9.76962 4.23484 8.35714 3.64631 7.6509C2.23383 2.7543 6.58897 1.21627 8.94311 1.05933C11.2972 1.15349 12.0427 3.76658 12.1212 5.06135Z" fill="#936C2C"/>
<path d="M41.6655 0C37.3339 0.0941653 37.1142 3.33502 37.5458 4.94368L40.6062 9.65195C43.0545 10.1228 45.0006 8.04329 45.6676 6.94469C47.08 4.30806 43.5881 1.2163 41.6655 0Z" fill="#936C2C"/>
<path d="M19.715 17.4288C12.0836 27.1338 17.4454 31.5292 21.0803 32.5138C25.8074 33.4518 29.3212 31.2521 30.4872 30.0349C34.1672 25.8666 29.3857 19.6111 26.535 17.0044C22.8737 15.4878 20.4628 16.6554 19.715 17.4288Z" fill="#936C2C"/>
<path d="M23.3045 28.1172C23.0891 26.5503 23.2147 23.7775 23.3045 22.5869C23.5737 21.7574 23.7756 22.2413 23.8429 22.5869C24.0448 23.6239 23.5737 30.0759 23.3045 28.1172Z" fill="#272727"/>
<path d="M36.1333 13.8894C36.483 14.238 37.075 13.9769 37.075 13.7591C33.053 8.87885 28.9873 11.7257 27.4572 13.7591C27.2823 14.282 27.9555 14.2701 28.247 14.1248C29.7776 12.7445 31.3867 12.6904 32.7198 12.7123C34.585 12.743 35.3685 13.0847 36.1333 13.8894Z" fill="#60410E"/>
<path d="M20.1196 13.6541C20.4694 14.0026 21.0613 13.7416 21.0613 13.5237C17.0393 8.6435 12.9736 11.4903 11.4435 13.5237C11.2686 14.0466 11.9418 14.0347 12.2333 13.8895C13.764 12.5091 15.373 12.4551 16.7061 12.477C18.5713 12.5077 19.3548 12.8494 20.1196 13.6541Z" fill="#60410E"/>
<path d="M20.8786 19.8165C21.54 19.8991 22.8339 20.5984 23.1225 21.5896C23.1225 21.602 23.1268 21.6092 23.1332 21.613C23.1623 21.6305 23.2347 21.576 23.1332 21.613C23.1087 21.6219 23.0742 21.6361 23.0266 21.658C22.2449 21.4102 20.526 20.7824 20.5981 20.2537C20.6883 19.5929 20.7885 19.8039 20.8786 19.8165Z" fill="#272727"/>
<path d="M26.1986 19.8165C25.5372 19.8991 24.2434 20.5984 23.9548 21.5896C23.9548 21.602 23.9505 21.6092 23.9441 21.613C23.9149 21.6305 23.8426 21.576 23.9441 21.613C23.9685 21.6219 24.0031 21.6361 24.0507 21.658C24.8323 21.4102 26.5513 20.7824 26.4791 20.2537C26.3889 19.5929 26.2888 19.8039 26.1986 19.8165Z" fill="#272727"/>
<path d="M39.9 18.5977C37.075 17.4677 35.584 19.8532 35.1917 21.1872C34.7209 21.5403 35.8979 26.6017 39.9 23.4236C43.1016 20.8812 41.234 19.147 39.9 18.5977Z" fill="#C58181" fill-opacity="0.39"/>
<path d="M11.2772 20.0698C8.4522 18.9398 6.96125 21.3254 6.56889 22.6594C6.09806 23.0125 7.27513 28.0739 11.2772 24.8958C14.4788 22.3534 12.6112 20.6191 11.2772 20.0698Z" fill="#C58181" fill-opacity="0.39"/>
</svg>
