<?xml version="1.0" encoding="UTF-8"?>
<svg version="1.1" xmlns="http://www.w3.org/2000/svg" width="1097" height="172">
<path d="M0 0 C362.01 0 724.02 0 1097 0 C1097 56.76 1097 113.52 1097 172 C734.99 172 372.98 172 0 172 C0 115.24 0 58.48 0 0 Z " fill="#40A0AF" transform="translate(0,0)"/>
<path d="M0 0 C0.33 0 0.66 0 1 0 C2.13534637 5.4376986 2.13441718 10.70241284 2.11352539 16.22802734 C2.11367142 17.24327484 2.11381744 18.25852234 2.1139679 19.30453491 C2.11327321 22.64835778 2.10550161 25.99212441 2.09765625 29.3359375 C2.09579049 31.65906748 2.09436733 33.98219785 2.09336853 36.30532837 C2.08955578 42.41104219 2.07973609 48.51673212 2.06866455 54.62243652 C2.05842373 60.85636064 2.05386519 67.09028864 2.04882812 73.32421875 C2.03811271 85.54948965 2.0210512 97.77474284 2 110 C1.01 110 0.02 110 -1 110 C-1.02350634 99.93976754 -1.04110502 89.87954196 -1.05181217 79.8192873 C-1.0569594 75.14440735 -1.06390196 70.46954662 -1.07543945 65.79467773 C-1.12823756 43.83840485 -1.00069818 21.93750351 0 0 Z " fill="#559B9A" transform="translate(1095,62)"/>
<path d="M0 0 C0.33 0 0.66 0 1 0 C1.0154612 0.90510315 1.0154612 0.90510315 1.03123474 1.82849121 C1.14060626 8.18929085 1.2550733 14.54998519 1.37231445 20.91064453 C1.41525084 23.27487963 1.45694869 25.63913759 1.49731445 28.00341797 C1.71742676 43.47470622 1.71742676 43.47470622 2.52734375 58.921875 C3.28048494 69.61943887 3.14900025 80.33966472 3.13037109 91.05859375 C3.12495068 94.78389441 3.13037657 98.50907771 3.13671875 102.234375 C3.13605895 104.60937527 3.13477983 106.98437546 3.1328125 109.359375 C3.13483673 110.46972107 3.13686096 111.58006714 3.13894653 112.72406006 C3.13579437 113.75323547 3.13264221 114.78241089 3.12939453 115.84277344 C3.12820114 117.19601715 3.12820114 117.19601715 3.12698364 118.57659912 C3.00750082 120.85685164 2.64070276 122.81487727 2 125 C1.34 125 0.68 125 0 125 C0 83.75 0 42.5 0 0 Z " fill="#549896" transform="translate(0,47)"/>
<path d="M0 0 C0.99 0.33 1.98 0.66 3 1 C3.11223992 33.34978451 3.11598125 65.66622415 2 98 C1.67 98 1.34 98 1 98 C0.23797128 65.32801868 -0.14795935 32.6808063 0 0 Z " fill="#5AB2B6" transform="translate(0,0)"/>
<path d="M0 0 C0.66 0 1.32 0 2 0 C2 22.44 2 44.88 2 68 C1.67 68 1.34 68 1 68 C-0.70331989 60.16658067 -1.28447228 52.73051321 -1.23046875 44.7265625 C-1.23001053 43.59979095 -1.22955231 42.47301941 -1.2290802 41.31210327 C-1.22608024 38.9507338 -1.21826248 36.58936589 -1.20581055 34.22802734 C-1.18744505 30.61418669 -1.185302 27.00060144 -1.18554688 23.38671875 C-1.18063464 21.08333112 -1.17480761 18.77994522 -1.16796875 16.4765625 C-1.16685593 15.39944 -1.1657431 14.3223175 -1.16459656 13.21255493 C-1.15821671 12.20735809 -1.15183685 11.20216125 -1.14526367 10.16650391 C-1.14145187 9.2870108 -1.13764008 8.4075177 -1.13371277 7.50137329 C-0.99560001 4.91768902 -0.568497 2.52112064 0 0 Z " fill="#5BAFB2" transform="translate(1095,0)"/>
<path d="M0 0 C0.33 0 0.66 0 1 0 C2.77581721 13.09940476 3.2526752 25.91663943 3.125 39.125 C3.11493197 40.97004713 3.105813 42.81509968 3.09765625 44.66015625 C3.07598716 49.10690923 3.04167694 53.55339141 3 58 C2.01 58 1.02 58 0 58 C0 38.86 0 19.72 0 0 Z " fill="#4A8A8A" transform="translate(1094,114)"/>
</svg>
